# Exported from Wings 3D 2.3
mtllib ToolChiselTriangle.mtl
o ToolChiselTriangleTip
#9 vertices, 14 faces
v 0.10777276 2.2195830e-4 -5.6879267e-3
v -5.3822093e-2 -9.3074874e-2 -5.6879267e-3
v -5.3822093e-2 9.3518790e-2 -5.6879267e-3
v 8.9997321e-2 2.2195830e-4 8.5595521e-3
v -4.4934377e-2 -7.7680900e-2 8.5595521e-3
v -4.4934377e-2 7.8124817e-2 8.5595521e-3
v 0.10777276 2.2195830e-4 -1.1228512e-4
v -5.3822093e-2 -9.3074874e-2 -1.1228512e-4
v -5.3822093e-2 9.3518790e-2 -1.1228512e-4
vt 0.31088480 0.32877790
vt 0.60538892 6.2106934e-2
vt 0.60538892 0.58661567
vt 0.65121805 0.67224941
vt 0.66647685 0.66575493
vt 0.68182622 0.66139617
vt 0.85141645 0.74355879
vt 0.87315296 0.76913870
vt 0.89270733 0.80334043
vt 0.89455359 0.39367640
vt 0.91608212 0.33890998
vt 0.93459944 0.27634793
vn 0.70710678 0.0000000e+0 -0.70710678
vn -0.44721360 -0.77459667 -0.44721360
vn -9.0685615e-10 0.86602540 -0.50000000
vn 0.31068810 0.17937590 0.93343301
vn -0.17001124 -0.29446804 0.94041733
vn -0.13802717 0.23907010 0.96114202
vn 0.80691937 -0.16013677 0.56853967
vn -0.38231212 -0.66218404 0.64447633
vn -0.52796313 0.49848582 0.68758041
g ToolChiselTriangleTipMetal
usemtl Metal
s 1
f 1/9/1 7/8/7 2/12/2
f 2/2/2 3/3/3 1/1/1
f 2/12/2 9/5/9 3/4/3
f 3/4/3 7/8/7 1/9/1
f 3/4/3 9/5/9 7/8/7
f 4/7/4 6/6/6 5/10/5
f 4/7/4 9/5/9 6/6/6
f 5/10/5 7/8/7 4/7/4
f 5/10/5 8/11/8 7/8/7
f 5/10/5 9/5/9 8/11/8
f 6/6/6 9/5/9 5/10/5
f 7/8/7 8/11/8 2/12/2
f 7/8/7 9/5/9 4/7/4
f 8/11/8 9/5/9 2/12/2
o ToolChiselTriangle
#457 vertices, 910 faces
v -1.5544879e-3 -4.9174740e-3 1.5581640e-2
v -3.1319470e-3 -5.2604445e-3 1.5580042e-2
v -3.9664830e-3 -1.2170635e-2 -5.7408880e-2
v -7.4563466e-3 -9.9527081e-3 -5.7268046e-2
v -1.9508154e-5 -1.2776575e-2 -5.7267724e-2
v -2.7580517e-5 -4.8517447e-3 1.6035105e-2
v -2.0191530e-3 9.7267078e-4 1.5592315e-2
v -3.9197407e-3 1.5365012e-3 1.5596306e-2
v -2.7580857e-5 1.0482611e-3 1.6041109e-2
v -1.9508154e-5 9.7386591e-3 -5.7270346e-2
v -5.6991558e-3 1.0013555e-2 -5.7411042e-2
v -1.0324594e-2 7.2162951e-3 -5.7271818e-2
v -2.6035848e-2 -1.0501700e-2 -0.14789724
v -2.6350939e-2 -1.0632202e-2 -0.15400088
v -2.0230114e-2 -1.9950615e-2 -0.15400088
v -1.9988200e-2 -1.9708701e-2 -0.14789724
v -2.5720766e-2 -1.0371198e-2 -0.14179363
v -1.9746286e-2 -1.9466787e-2 -0.14179363
v -2.7927727e-2 2.8496910e-4 -0.14179363
v -2.8269847e-2 2.8496910e-4 -0.14789724
v -2.8611958e-2 2.8496910e-4 -0.15400088
v -2.6035857e-2 1.1071629e-2 -0.14789724
v -2.6350939e-2 1.1202131e-2 -0.15400088
v -2.5720766e-2 1.0941108e-2 -0.14179363
v -1.9746286e-2 2.0036697e-2 -0.14179363
v -1.9988200e-2 2.0278611e-2 -0.14789724
v -2.0230114e-2 2.0520535e-2 -0.15400088
v -1.0781208e-2 -2.5756358e-2 -0.14789724
v -1.0650688e-2 -2.5441276e-2 -0.14179363
v -1.0911719e-2 -2.6071430e-2 -0.15400088
v -1.9508154e-5 -2.8332459e-2 -0.15400088
v -1.9508154e-5 -2.7990329e-2 -0.14789721
v -1.9508154e-5 -2.7648237e-2 -0.14179363
v -1.0781199e-2 2.6326268e-2 -0.14789724
v -1.0650688e-2 2.6011187e-2 -0.14179363
v -1.9508154e-5 2.8218165e-2 -0.14179363
v -1.9508154e-5 2.8560295e-2 -0.14789721
v -1.0911710e-2 2.6641368e-2 -0.15400088
v -1.9508154e-5 2.8902415e-2 -0.15400088
v -2.1698848e-2 -8.6141909e-3 -0.13694736
v -1.6658389e-2 -1.6287810e-2 -0.13694736
v -1.7676939e-2 -6.8571841e-3 -0.13210111
v -1.3570501e-2 -1.3108851e-2 -0.13210111
v -1.9193845e-2 4.6710150e-4 -0.13210080
v -2.3560790e-2 3.7603070e-4 -0.13694722
v -2.1698857e-2 9.3662431e-3 -0.13694676
v -1.7676939e-2 7.7913779e-3 -0.13209989
v -1.3570501e-2 1.4043054e-2 -0.13209811
v -1.6658398e-2 1.7039880e-2 -0.13694585
v -8.9847610e-3 -2.1328278e-2 -0.13694736
v -7.3188250e-3 -1.7215289e-2 -0.13210111
v -1.9508154e-5 -2.3190220e-2 -0.13694732
v -1.9508154e-5 -1.8732213e-2 -0.13210111
v -8.9847610e-3 2.2080349e-2 -0.13694438
v -7.3188250e-3 1.8149492e-2 -0.13209518
v -1.9508154e-5 1.9643213e-2 -0.13209324
v -1.9508154e-5 2.3930708e-2 -0.13694341
v -1.4211327e-2 -6.1568617e-3 -0.12782722
v -1.0757794e-2 -1.1135801e-2 -0.12782727
v -1.1439615e-2 -5.5004601e-3 -5.7410122e-2
v -1.3597521e-2 -3.9156210e-4 -5.7271303e-2
v -1.5589653e-2 -2.5630370e-4 -0.12782699
v -6.3343698e-3 1.4306864e-2 -0.12782397
v -1.1313309e-2 1.0853331e-2 -0.12782548
v -1.9508154e-5 1.5673607e-2 -0.12782300
v -5.6108174e-3 -1.4333518e-2 -0.12782731
v -1.9508154e-5 -1.5412154e-2 -0.12782731
v -4.7442434e-3 -4.0987925e-3 1.5587728e-2
v -6.7131801e-3 -5.1221661e-4 1.4904817e-2
v -6.0458526e-3 8.8025315e-4 1.5594310e-2
v -1.2621033e-2 3.9725315e-3 -5.7411447e-2
v -1.4511026e-2 5.7063727e-3 -0.12782644
v 1.6103661e-3 -5.2778326e-3 1.5581640e-2
v 3.0803982e-3 -5.2604445e-3 1.5580042e-2
v 3.9140714e-3 -1.2170635e-2 -5.7408880e-2
v 7.4039350e-3 -9.9527081e-3 -5.7268046e-2
v 2.1379525e-3 2.3054255e-3 1.5592315e-2
v 3.8681922e-3 1.5365012e-3 1.5596306e-2
v 5.6467442e-3 1.0013555e-2 -5.7411042e-2
v 1.0272182e-2 7.2162951e-3 -5.7271818e-2
v 2.5983436e-2 -1.0501700e-2 -0.14789724
v 1.9935779e-2 -1.9708701e-2 -0.14789724
v 2.0177703e-2 -1.9950615e-2 -0.15400088
v 2.6298518e-2 -1.0632202e-2 -0.15400088
v 2.5668345e-2 -1.0371198e-2 -0.14179363
v 1.9693865e-2 -1.9466787e-2 -0.14179363
v 2.8217426e-2 2.8496910e-4 -0.14789724
v 2.7875315e-2 2.8496910e-4 -0.14179363
v 2.8559547e-2 2.8496910e-4 -0.15400088
v 2.5983436e-2 1.1071629e-2 -0.14789724
v 2.6298527e-2 1.1202131e-2 -0.15400088
v 2.5668355e-2 1.0941108e-2 -0.14179363
v 1.9935789e-2 2.0278611e-2 -0.14789724
v 1.9693875e-2 2.0036697e-2 -0.14179363
v 2.0177703e-2 2.0520535e-2 -0.15400088
v 1.0728787e-2 -2.5756358e-2 -0.14789724
v 1.0598276e-2 -2.5441276e-2 -0.14179363
v 1.0859308e-2 -2.6071430e-2 -0.15400088
v 1.0728787e-2 2.6326268e-2 -0.14789724
v 1.0598276e-2 2.6011187e-2 -0.14179363
v 1.0859299e-2 2.6641368e-2 -0.15400088
v 2.1646437e-2 -8.6141909e-3 -0.13694736
v 1.6605977e-2 -1.6287810e-2 -0.13694736
v 1.7624528e-2 -6.8571841e-3 -0.13210111
v 1.3518080e-2 -1.3108851e-2 -0.13210111
v 2.3508369e-2 3.7603070e-4 -0.13694722
v 1.9141433e-2 4.6710150e-4 -0.13210080
v 2.1646437e-2 9.3662431e-3 -0.13694676
v 1.7624528e-2 7.7913779e-3 -0.13209989
v 1.6605977e-2 1.7039880e-2 -0.13694585
v 1.3518080e-2 1.4043054e-2 -0.13209811
v 8.9323402e-3 -2.1328278e-2 -0.13694736
v 7.2664134e-3 -1.7215289e-2 -0.13210111
v 8.9323402e-3 2.2080349e-2 -0.13694438
v 7.2664134e-3 1.8149492e-2 -0.13209518
v 1.4158906e-2 -6.1568617e-3 -0.12782722
v 1.0705383e-2 -1.1135801e-2 -0.12782727
v 1.1387204e-2 -5.5004601e-3 -5.7410122e-2
v 1.5537241e-2 -2.5630370e-4 -0.12782699
v 1.3545101e-2 -3.9156210e-4 -5.7271303e-2
v 6.2819582e-3 1.4306864e-2 -0.12782397
v 1.1260897e-2 1.0853331e-2 -0.12782548
v 5.5584058e-3 -1.4333518e-2 -0.12782731
v 4.6926925e-3 -4.0987925e-3 1.5587728e-2
v 6.9486702e-3 -1.4189923e-3 1.5479308e-2
v 5.9943020e-3 8.8025315e-4 1.5594310e-2
v 1.2568622e-2 3.9725315e-3 -5.7411447e-2
v 1.4458615e-2 5.7063727e-3 -0.12782644
v -2.3722425e-2 -5.7100988e-2 -0.37671072
v -2.1044728e-2 -5.0623360e-2 -0.33588290
v -3.9044225e-2 -3.8800302e-2 -0.33588290
v -4.4007349e-2 -4.3776747e-2 -0.37671072
v -2.4097877e-2 -5.8025395e-2 -0.42982942
v -4.4703273e-2 -4.4490649e-2 -0.42982942
v -1.9508154e-5 -6.3025098e-2 -0.42982945
v -1.9508154e-5 -6.2022933e-2 -0.37671072
v -1.9508154e-5 -5.4990756e-2 -0.33588290
v -2.3722407e-2 5.7647889e-2 -0.37671072
v -4.4007349e-2 4.4323658e-2 -0.37671072
v -3.9044215e-2 3.9374159e-2 -0.33588290
v -2.1044710e-2 5.1197199e-2 -0.33588290
v -1.9508154e-5 6.2569871e-2 -0.37671072
v -1.9508154e-5 5.5564641e-2 -0.33588290
v -1.9508154e-5 6.3536064e-2 -0.42982945
v -2.4097859e-2 5.8536361e-2 -0.42982942
v -4.4703273e-2 4.5001606e-2 -0.42982942
v -4.7688075e-2 -2.2703163e-2 -0.58874533
v -4.2188325e-2 -2.3099232e-2 -0.59802625
v -3.6849473e-2 -3.7512753e-2 -0.59563139
v -4.1156250e-2 -4.1799916e-2 -0.58874182
v -4.8750491e-2 -2.3232890e-2 -0.57693028
v -4.1903759e-2 -4.3291227e-2 -0.57692940
v -4.9319281e-2 3.6748390e-4 -0.57693087
v -4.8077373e-2 1.8435790e-4 -0.58874761
v -4.2945862e-2 1.2198296e-5 -0.59800506
v -4.4066955e-2 -1.7979947e-2 -0.32076246
v -5.0867273e-2 -2.0800796e-2 -0.33588290
v -3.3823077e-2 -3.3575309e-2 -0.32076246
v -4.1519466e-2 -1.6924726e-2 -0.30151314
v -3.1867102e-2 -3.1619564e-2 -0.30151313
v -4.5085037e-2 2.9136310e-4 -0.30151313
v -4.7851026e-2 2.9116990e-4 -0.32076246
v -5.5234697e-2 2.8693790e-4 -0.33588290
v -4.7417881e-2 2.3271877e-2 -0.58874529
v -4.1907265e-2 2.3432703e-2 -0.59802625
v -4.8558708e-2 2.3992173e-2 -0.57693028
v -4.1563387e-2 4.4033333e-2 -0.57692940
v -4.0715809e-2 4.2578547e-2 -0.58874182
v -3.6482917e-2 3.8076462e-2 -0.59563139
v -4.4066955e-2 1.8562259e-2 -0.32076246
v -5.0867273e-2 2.1374672e-2 -0.33588290
v -4.1519475e-2 1.7507443e-2 -0.30151314
v -3.1867102e-2 3.2202281e-2 -0.30151314
v -3.3823077e-2 3.4157612e-2 -0.32076246
v -2.4336442e-2 -5.8303327e-2 -0.56636911
v -2.4642039e-2 -5.9287828e-2 -0.52831877
v -4.5362702e-2 -4.5454220e-2 -0.52831881
v -4.3748599e-2 -4.4659635e-2 -0.56636911
v -2.3830507e-2 -5.6289667e-2 -0.57692912
v -1.9508154e-5 -6.1061211e-2 -0.57692908
v -1.9508154e-5 -6.3377255e-2 -0.56636911
v -1.9508154e-5 -6.4406459e-2 -0.52831881
v -5.9168921e-2 -2.4289307e-2 -0.48438251
v -5.8225157e-2 -2.4402946e-2 -0.52831877
v -4.5417985e-2 -4.5223834e-2 -0.48438251
v -5.8238019e-2 -2.3885243e-2 -0.42982942
v -6.3237722e-2 2.5549230e-4 -0.42982942
v -6.4248489e-2 2.3701870e-4 -0.48438251
v -6.2685630e-2 2.5450790e-4 -0.52831881
v -5.9168921e-2 2.4763345e-2 -0.48438251
v -5.8200327e-2 2.4906865e-2 -0.52831877
v -5.8238019e-2 2.4396228e-2 -0.42982942
v -4.5417985e-2 4.5697880e-2 -0.48438251
v -4.5316647e-2 4.5944183e-2 -0.52831881
v -1.8227716e-2 -4.3819196e-2 -0.32076246
v -1.7172264e-2 -4.1271928e-2 -0.30151314
v -1.9508154e-5 -4.7603267e-2 -0.32076246
v -1.9508154e-5 -4.4837517e-2 -0.30151313
v -1.8227707e-2 4.4401499e-2 -0.32076246
v -1.7172264e-2 4.1854635e-2 -0.30151314
v -1.9508154e-5 4.5420243e-2 -0.30151313
v -1.9508154e-5 4.8185569e-2 -0.32076246
v -4.3681163e-2 -1.7820180e-2 -0.25341874
v -3.3526745e-2 -3.3279336e-2 -0.25341874
v -4.7279660e-2 -1.9309439e-2 -0.20331301
v -3.6290766e-2 -3.6039023e-2 -0.20331302
v -5.1338939e-2 2.9047990e-4 -0.20331302
v -4.7432187e-2 2.9137230e-4 -0.25341874
v -4.3681163e-2 1.8402897e-2 -0.25341874
v -4.7279669e-2 1.9890427e-2 -0.20331301
v -3.6290766e-2 3.6619973e-2 -0.20331302
v -3.3526745e-2 3.3862053e-2 -0.25341874
v -2.4119239e-2 -2.5184467e-2 -0.60098520
v -1.9508154e-5 -2.6649411e-2 -0.60088420
v -1.9508154e-5 -4.7774331e-2 -0.59799523
v -2.3365585e-2 -4.4855291e-2 -0.59802047
v -2.4647402e-2 6.8437896e-5 -0.60088883
v -1.9508154e-5 1.5357470e-4 -0.60073778
v -2.3948432e-2 2.5474716e-2 -0.60098520
v -1.9508154e-5 2.6965990e-2 -0.60088588
v -2.3049390e-2 4.5378300e-2 -0.59802047
v -1.9508154e-5 4.8115613e-2 -0.59799769
v -2.2977372e-2 5.4123314e-2 -0.58874069
v -1.9508154e-5 5.7930375e-2 -0.58874231
v -2.3427905e-2 5.6883056e-2 -0.57692912
v -1.9508154e-5 6.1472743e-2 -0.57692954
v -2.4483467e-2 -5.8974770e-2 -0.48438251
v -1.9508154e-5 -6.4054357e-2 -0.48438251
v -2.4483458e-2 5.9448798e-2 -0.48438251
v -1.9508154e-5 6.4528394e-2 -0.48438251
v -2.4582045e-2 5.9756566e-2 -0.52831877
v -1.9508154e-5 6.4850357e-2 -0.52831881
v -5.7331589e-2 -2.3491805e-2 -0.37671072
v -6.2253543e-2 2.7345990e-4 -0.37671072
v -5.7331598e-2 2.4038743e-2 -0.37671072
v -5.3507600e-2 -2.3925144e-2 -0.56636911
v -5.5948967e-2 3.4441950e-4 -0.56636911
v -5.3408221e-2 2.4593494e-2 -0.56636911
v -4.3564387e-2 4.5272215e-2 -0.56636911
v -2.3388115e-2 -5.3515352e-2 -0.58874069
v -1.9508154e-5 -5.7552570e-2 -0.58874069
v -2.4096497e-2 5.8831092e-2 -0.56636911
v -1.9508154e-5 6.3805661e-2 -0.56636911
v -1.8067590e-2 -4.3433744e-2 -0.25341874
v -1.9561191e-2 -4.7027908e-2 -0.20331301
v -1.9508154e-5 -4.7184768e-2 -0.25341874
v -1.9508154e-5 -5.1087196e-2 -0.20331300
v -1.8067590e-2 4.4016470e-2 -0.25341874
v -1.9561191e-2 4.7608886e-2 -0.20331301
v -1.9508154e-5 5.1668193e-2 -0.20331300
v -1.9508154e-5 4.7767503e-2 -0.25341874
v -4.6055259e-2 -1.8798389e-2 -0.17854170
v -3.5354344e-2 -3.5089537e-2 -0.17854170
v -4.1319808e-2 -1.6833103e-2 -0.16790904
v -3.1722165e-2 -3.1444626e-2 -0.16790904
v -4.4865166e-2 2.8537390e-4 -0.16790904
v -5.0008159e-2 2.8788550e-4 -0.17854170
v -4.6055259e-2 1.9374150e-2 -0.17854170
v -4.1319808e-2 1.7403823e-2 -0.16790904
v -3.1722165e-2 3.2015346e-2 -0.16790904
v -3.5354344e-2 3.5665317e-2 -0.17854170
v -1.4240555e-2 -3.4104318e-2 -0.16021922
v -2.6398907e-2 -2.6118056e-2 -0.16021922
v -1.7110633e-2 -4.1042277e-2 -0.16790904
v -1.9508154e-5 -4.4587645e-2 -0.16790904
v -1.9508154e-5 -3.7054427e-2 -0.16021922
v -1.4240555e-2 3.4673704e-2 -0.16021922
v -1.9508154e-5 3.7623804e-2 -0.16021922
v -1.7110643e-2 4.1613025e-2 -0.16790904
v -1.9508154e-5 4.5158365e-2 -0.16790904
v -2.6398907e-2 2.6687433e-2 -0.16021922
v -3.4385170e-2 -1.3959704e-2 -0.16021922
v -3.7335279e-2 2.8467470e-4 -0.16021922
v -3.4385170e-2 1.4529081e-2 -0.16021922
v -1.9063195e-2 -4.5790443e-2 -0.17854170
v -1.9508154e-5 -4.9743334e-2 -0.17854166
v -1.9063195e-2 4.6366214e-2 -0.17854170
v -1.9508154e-5 5.0319132e-2 -0.17854166
v 2.3670004e-2 -5.7100988e-2 -0.37671072
v 4.3954937e-2 -4.3776747e-2 -0.37671072
v 3.8991813e-2 -3.8800302e-2 -0.33588290
v 2.0992307e-2 -5.0623360e-2 -0.33588290
v 2.4045465e-2 -5.8025395e-2 -0.42982942
v 4.4650853e-2 -4.4490649e-2 -0.42982942
v 2.3669995e-2 5.7647889e-2 -0.37671072
v 2.0992298e-2 5.1197199e-2 -0.33588290
v 3.8991804e-2 3.9374159e-2 -0.33588290
v 4.3954937e-2 4.4323658e-2 -0.37671072
v 2.4045447e-2 5.8536361e-2 -0.42982942
v 4.4650853e-2 4.5001606e-2 -0.42982942
v 4.7635655e-2 -2.2703163e-2 -0.58874529
v 4.1103829e-2 -4.1799916e-2 -0.58874182
v 3.6797052e-2 -3.7512753e-2 -0.59563139
v 4.2135913e-2 -2.3099232e-2 -0.59802625
v 4.8698071e-2 -2.3232890e-2 -0.57693024
v 4.1851348e-2 -4.3291227e-2 -0.57692937
v 4.8024962e-2 1.8435790e-4 -0.58874761
v 4.9266861e-2 3.6748390e-4 -0.57693087
v 4.2893441e-2 1.2198296e-5 -0.59800506
v 4.4014535e-2 -1.7979947e-2 -0.32076246
v 3.3770657e-2 -3.3575309e-2 -0.32076246
v 5.0814853e-2 -2.0800796e-2 -0.33588290
v 4.1467055e-2 -1.6924726e-2 -0.30151313
v 3.1814681e-2 -3.1619564e-2 -0.30151313
v 4.7798605e-2 2.9116990e-4 -0.32076246
v 4.5032625e-2 2.9136310e-4 -0.30151313
v 5.5182277e-2 2.8693790e-4 -0.33588290
v 4.7365460e-2 2.3271877e-2 -0.58874529
v 4.1854853e-2 2.3432703e-2 -0.59802625
v 4.8506297e-2 2.3992173e-2 -0.57693024
v 4.0663398e-2 4.2578547e-2 -0.58874182
v 4.1510966e-2 4.4033333e-2 -0.57692937
v 3.6430496e-2 3.8076462e-2 -0.59563139
v 4.4014544e-2 1.8562259e-2 -0.32076246
v 5.0814862e-2 2.1374672e-2 -0.33588290
v 4.1467055e-2 1.7507443e-2 -0.30151313
v 3.3770657e-2 3.4157612e-2 -0.32076246
v 3.1814681e-2 3.2202281e-2 -0.30151313
v 2.4284021e-2 -5.8303327e-2 -0.56636911
v 4.3696178e-2 -4.4659635e-2 -0.56636911
v 4.5310281e-2 -4.5454220e-2 -0.52831881
v 2.4589627e-2 -5.9287828e-2 -0.52831881
v 2.3778086e-2 -5.6289667e-2 -0.57692912
v 5.9116500e-2 -2.4289307e-2 -0.48438251
v 4.5365573e-2 -4.5223834e-2 -0.48438251
v 5.8172746e-2 -2.4402946e-2 -0.52831881
v 5.8185598e-2 -2.3885243e-2 -0.42982942
v 6.4196069e-2 2.3701870e-4 -0.48438251
v 6.3185301e-2 2.5549230e-4 -0.42982942
v 6.2633209e-2 2.5450790e-4 -0.52831881
v 5.9116509e-2 2.4763345e-2 -0.48438251
v 5.8147906e-2 2.4906865e-2 -0.52831881
v 5.8185598e-2 2.4396228e-2 -0.42982942
v 4.5365573e-2 4.5697880e-2 -0.48438251
v 4.5264226e-2 4.5944183e-2 -0.52831881
v 1.8175304e-2 -4.3819196e-2 -0.32076246
v 1.7119853e-2 -4.1271928e-2 -0.30151313
v 1.8175295e-2 4.4401499e-2 -0.32076246
v 1.7119853e-2 4.1854635e-2 -0.30151313
v 4.3628742e-2 -1.7820180e-2 -0.25341874
v 3.3474325e-2 -3.3279336e-2 -0.25341874
v 4.7227239e-2 -1.9309439e-2 -0.20331301
v 3.6238345e-2 -3.6039023e-2 -0.20331302
v 4.7379766e-2 2.9137230e-4 -0.25341874
v 5.1286527e-2 2.9047990e-4 -0.20331302
v 4.3628751e-2 1.8402897e-2 -0.25341874
v 4.7227248e-2 1.9890427e-2 -0.20331301
v 3.3474334e-2 3.3862053e-2 -0.25341874
v 3.6238354e-2 3.6619973e-2 -0.20331302
v 2.4066819e-2 -2.5184467e-2 -0.60098517
v 2.3313173e-2 -4.4855291e-2 -0.59802047
v 2.4594991e-2 6.8437896e-5 -0.60088883
v 2.3896011e-2 2.5474716e-2 -0.60098517
v 2.2996969e-2 4.5378300e-2 -0.59802047
v 2.2924961e-2 5.4123314e-2 -0.58874066
v 2.3375485e-2 5.6883056e-2 -0.57692912
v 2.4431056e-2 -5.8974770e-2 -0.48438251
v 2.4431037e-2 5.9448798e-2 -0.48438251
v 2.4529634e-2 5.9756566e-2 -0.52831881
v 5.7279177e-2 -2.3491805e-2 -0.37671072
v 6.2201122e-2 2.7345990e-4 -0.37671072
v 5.7279177e-2 2.4038743e-2 -0.37671072
v 5.3455179e-2 -2.3925144e-2 -0.56636911
v 5.5896555e-2 3.4441950e-4 -0.56636911
v 5.3355810e-2 2.4593494e-2 -0.56636911
v 4.3511966e-2 4.5272215e-2 -0.56636911
v 2.3335704e-2 -5.3515352e-2 -0.58874066
v 2.4044085e-2 5.8831092e-2 -0.56636911
v 1.8015169e-2 -4.3433744e-2 -0.25341874
v 1.9508780e-2 -4.7027908e-2 -0.20331301
v 1.8015169e-2 4.4016470e-2 -0.25341874
v 1.9508780e-2 4.7608886e-2 -0.20331301
v 4.6002839e-2 -1.8798389e-2 -0.17854170
v 3.5301932e-2 -3.5089537e-2 -0.17854170
v 4.1267387e-2 -1.6833103e-2 -0.16790904
v 3.1669745e-2 -3.1444626e-2 -0.16790904
v 4.9955738e-2 2.8788550e-4 -0.17854170
v 4.4812745e-2 2.8537390e-4 -0.16790904
v 4.6002848e-2 1.9374150e-2 -0.17854170
v 4.1267396e-2 1.7403823e-2 -0.16790904
v 3.5301932e-2 3.5665317e-2 -0.17854170
v 3.1669754e-2 3.2015346e-2 -0.16790904
v 1.4188144e-2 -3.4104318e-2 -0.16021922
v 2.6346496e-2 -2.6118056e-2 -0.16021922
v 1.7058222e-2 -4.1042277e-2 -0.16790904
v 1.4188144e-2 3.4673704e-2 -0.16021922
v 1.7058222e-2 4.1613025e-2 -0.16790904
v 2.6346496e-2 2.6687433e-2 -0.16021922
v 3.4332758e-2 -1.3959704e-2 -0.16021922
v 3.7282867e-2 2.8467470e-4 -0.16021922
v 3.4332758e-2 1.4529081e-2 -0.16021922
v 1.9010784e-2 -4.5790443e-2 -0.17854170
v 1.9010784e-2 4.6366214e-2 -0.17854170
v 1.2899613e-2 3.4566691e-3 1.2918577e-2
v 1.3765145e-2 2.3187470e-3 1.2918577e-2
v 1.4252608e-2 1.3667600e-4 1.2918577e-2
v 1.3174549e-2 -2.4167438e-3 1.2918577e-2
v 1.0695180e-2 -5.2161133e-3 1.2918577e-2
v 1.1750266e-2 5.0801889e-3 1.2918577e-2
v 1.0885537e-2 6.2170250e-3 1.2918577e-2
v 8.5739576e-3 7.6143753e-3 1.2918577e-2
v 5.6783800e-3 7.4156850e-3 1.2918577e-2
v 8.7025099e-3 -7.4444097e-3 1.2918577e-2
v 6.2258261e-3 -1.0240737e-2 1.2918577e-2
v 4.4797619e-3 -1.1349982e-2 1.2918577e-2
v 3.1555865e-3 -1.1808063e-2 1.2918577e-2
v -1.2952025e-2 3.4566691e-3 1.2918577e-2
v -1.3817561e-2 2.3187470e-3 1.2918577e-2
v -1.4305029e-2 1.3667600e-4 1.2918577e-2
v -1.3226965e-2 -2.4167438e-3 1.2918577e-2
v -1.0747597e-2 -5.2161133e-3 1.2918577e-2
v -1.1802678e-2 5.0801889e-3 1.2918577e-2
v 2.8430825e-3 7.2805993e-3 1.2918577e-2
v -1.9508154e-5 7.0821189e-3 1.2918577e-2
v -1.0937949e-2 6.2170250e-3 1.2918577e-2
v -8.6263691e-3 7.6143753e-3 1.2918577e-2
v -5.7307915e-3 7.4156850e-3 1.2918577e-2
v -2.8887914e-3 7.2805993e-3 1.2918577e-2
v 1.1876223e-3 -1.2111670e-2 1.2918577e-2
v -1.9508154e-5 -1.2569311e-2 1.2918577e-2
v -8.7549260e-3 -7.4444097e-3 1.2918577e-2
v -6.2782422e-3 -1.0240737e-2 1.2918577e-2
v -4.5321780e-3 -1.1349982e-2 1.2918577e-2
v -1.2333298e-3 -1.2111670e-2 1.2918577e-2
v -3.2079980e-3 -1.1808063e-2 1.2918577e-2
v -7.1871573e-3 -5.2258626e-3 1.4068479e-2
v -2.2230733e-5 -9.3497935e-3 1.4278971e-2
v 1.2693765e-3 -8.9004990e-3 1.4201902e-2
v 2.5682160e-3 4.7357208e-3 1.4206934e-2
v -8.7621983e-3 2.8135931e-3 1.4072931e-2
v -7.8902828e-3 -4.8025491e-3 1.4018013e-2
v -1.1057881e-2 -1.5993454e-3 1.3909632e-2
v -1.1162225e-2 -5.2248167e-4 1.3787924e-2
v 7.1351595e-3 -5.2258626e-3 1.4108137e-2
v 8.7102022e-3 2.8135931e-3 1.4112590e-2
v 7.4005068e-3 -4.9597614e-3 1.4096674e-2
v 9.9843781e-3 -1.9661739e-3 1.4047848e-2
v 9.9427957e-3 -9.4171428e-4 1.3986354e-2
v 9.2977675e-3 2.1315668e-3 1.4099275e-2
v 1.0354868e-2 5.7524544e-4 1.4048854e-2
v 7.0377003e-3 3.9457942e-3 1.4117287e-2
v 6.3039342e-3 4.5189304e-3 1.4117060e-2
v 3.3854164e-3 4.6869044e-3 1.4133897e-2
v 4.5082974e-3 -7.8727002e-3 1.4111003e-2
v 4.0236977e-3 -8.0485351e-3 1.4110311e-2
v 2.1052865e-3 -9.1239710e-3 1.4127986e-2
v -9.7875407e-3 2.2887791e-3 1.4020615e-2
v -1.1428372e-2 9.4207396e-4 1.3910637e-2
v -2.2230277e-5 4.4789840e-3 1.4283347e-2
v -7.0895144e-3 3.9457942e-3 1.4117287e-2
v -6.3547543e-3 4.5189304e-3 1.4117060e-2
v -3.4345575e-3 4.6869044e-3 1.4133897e-2
v -2.6177906e-3 4.7357208e-3 1.4206934e-2
v -4.5601131e-3 -7.8727002e-3 1.4111003e-2
v -4.0745205e-3 -8.0485351e-3 1.4110311e-2
v -1.3189512e-3 -8.9004990e-3 1.4201902e-2
v -2.1544281e-3 -9.1239710e-3 1.4127986e-2
vt 1.4010000e-2 -0.10607700
vt 1.4647000e-2 -0.11558200
vt 1.5256000e-2 -0.12517600
vt 1.6605000e-2 -0.14490800
vt 1.7591000e-2 -0.16219300
vt 1.7948000e-2 -0.17938800
vt 1.8112000e-2 -0.19898900
vt 1.8241000e-2 -0.20832800
vt 1.8307000e-2 -0.21748100
vt 1.9008000e-2 -0.24299600
vt 2.0000000e-2 0.95998400
vt 2.6020000e-2 0.91589900
vt 2.9714000e-2 0.87473100
vt 3.2074000e-2 0.83529600
vt 3.4649000e-2 0.79117300
vt 3.9094000e-2 0.74745100
vt 4.2402000e-2 0.70918900
vt 4.3024000e-2 0.96469200
vt 4.3170000e-2 0.29952100
vt 4.3895000e-2 0.66959200
vt 4.4981000e-2 0.62607000
vt 4.6232000e-2 0.58264900
vt 4.6347000e-2 0.46368600
vt 4.6409000e-2 0.34361900
vt 4.6505000e-2 0.42119700
vt 4.7283000e-2 0.50605900
vt 4.7580000e-2 0.54347500
vt 4.7632000e-2 0.38352100
vt 4.8262000e-2 0.91988800
vt 5.1560000e-2 0.87776200
vt 5.3734000e-2 0.83718900
vt 5.5911000e-2 0.79249500
vt 5.8659000e-2 -0.52782300
vt 5.9547000e-2 -0.47771600
vt 5.9771000e-2 -0.50016800
vt 6.0143000e-2 -0.43128400
vt 6.0354000e-2 0.74847500
vt 6.0381000e-2 -0.45747400
vt 6.1404000e-2 -0.40240300
vt 6.1509000e-2 -0.37340700
vt 6.2982000e-2 -0.34727900
vt 6.3102000e-2 -0.32700500
vt 6.3595000e-2 0.70942300
vt 6.4378000e-2 -0.30461000
vt 6.4562000e-2 -0.27691900
vt 6.5264000e-2 0.66923500
vt 6.5337000e-2 0.29652200
vt 6.6347000e-2 0.96846400
vt 6.6621000e-2 0.62663800
vt 6.7228000e-2 0.46376000
vt 6.7526000e-2 0.58426300
vt 6.7810000e-2 0.42084500
vt 6.8088000e-2 0.34146000
vt 6.8344000e-2 0.50655400
vt 6.8661000e-2 0.54468600
vt 6.8749000e-2 0.38219900
vt 7.0022000e-2 0.92290500
vt 7.2939000e-2 0.87940900
vt 7.5826000e-2 0.83786300
vt 7.8419000e-2 0.79383500
vt 8.0987000e-2 0.75038300
vt 8.2515000e-2 0.71040900
vt 8.3769000e-2 0.66930300
vt 8.5005000e-2 0.62697800
vt 8.5147000e-2 0.29447600
vt 8.5994000e-2 0.58490400
vt 8.6862000e-2 0.34000700
vt 8.7367000e-2 0.54449500
vt 8.7795000e-2 0.38214400
vt 8.8445000e-2 0.50551600
vt 8.8592000e-2 0.42167500
vt 8.8880000e-2 0.46359000
vt 8.9507000e-2 -0.68987300
vt 8.9782000e-2 -0.65641500
vt 8.9785000e-2 -0.72339200
vt 9.0638000e-2 -0.62071900
vt 9.0644000e-2 -0.75903700
vt 9.2218000e-2 -0.58501800
vt 9.2227000e-2 -0.79464200
vt 0.14095300 0.97724000
vt 0.14336100 0.93037700
vt 0.14508700 0.88503200
vt 0.14708300 0.84128400
vt 0.14871000 0.79727900
vt 0.14959000 0.75268000
vt 0.15031400 0.71117000
vt 0.15107100 0.66953300
vt 0.15198400 0.62776900
vt 0.15311300 0.58619800
vt 0.15345200 0.29488300
vt 0.15420000 0.33955800
vt 0.15463600 0.54504700
vt 0.15482800 0.38244900
vt 0.15638800 0.50476800
vt 0.15776900 0.46403900
vt 0.15781100 0.42311800
vt 0.22774200 0.88727400
vt 0.22793900 0.93323900
vt 0.22810700 0.84200700
vt 0.22820100 0.98000000
vt 0.22834200 0.79751100
vt 0.22853700 0.75393900
vt 0.22894600 0.71106200
vt 0.22926000 0.66968000
vt 0.22987500 0.62875100
vt 0.23100800 0.58817300
vt 0.23268300 0.54777500
vt 0.23480500 0.50729700
vt 0.23687400 0.46636600
vt 0.23844600 0.42498700
vt 0.23884100 0.38379600
vt 0.24082200 0.34053200
vt 0.24305900 0.29636400
vt 0.32686200 0.71205800
vt 0.32686500 0.67105600
vt 0.32710100 0.75456300
vt 0.32729600 0.63086900
vt 0.32749200 0.79741100
vt 0.32832800 0.84093200
vt 0.32845700 0.59112300
vt 0.32972400 0.88505500
vt 0.33038400 0.55140200
vt 0.33214300 0.93000400
vt 0.33281600 0.51153500
vt 0.33537000 0.97585000
vt 0.33577900 0.47137300
vt 0.33916800 0.43091000
vt 0.34327300 0.39027300
vt 0.34831100 0.34776900
vt 0.34931513 -0.53843612
vt 0.34968983 -0.51963029
vt 0.34997366 -0.50580040
vt 0.35013634 -0.49458218
vt 0.35022541 -0.48754678
vt 0.35036888 -0.47740933
vt 0.35046537 -0.47011619
vt 0.35061913 -0.45703626
vt 0.35094131 -0.44288675
vt 0.35129624 -0.42842432
vt 0.35167315 -0.41380531
vt 0.35198721 -0.39915046
vt 0.35231581 -0.38465218
vt 0.35266129 -0.37050479
vt 0.35312482 -0.35743442
vt 0.35337159 -0.35014896
vt 0.35370540 -0.34001702
vt 0.35388700 0.30425700
vt 0.35394639 -0.33298830
vt 0.35430985 -0.32177700
vt 0.35467364 -0.30795049
vt 0.35518013 -0.28914879
vt 0.42237800 0.67135600
vt 0.42251400 0.71050100
vt 0.42268600 0.63273100
vt 0.42323300 0.75150600
vt 0.42389700 0.59435900
vt 0.42416800 0.79252000
vt 0.42587600 0.83374300
vt 0.42603500 0.55593400
vt 0.42836800 0.87585900
vt 0.42903500 0.51764200
vt 0.43275300 0.91907400
vt 0.43281600 0.47930100
vt 0.43753600 0.44045100
vt 0.43951900 0.96334600
vt 0.44349300 0.40098300
vt 0.45144400 0.36107700
vt 0.46128200 0.31887100
vt 0.49464579 -0.54374277
vt 0.49520785 -0.51553386
vt 0.49534970 -0.50862193
vt 0.49543101 -0.50301526
vt 0.49556462 -0.49246217
vt 0.49563632 -0.48739580
vt 0.49578114 -0.47644921
vt 0.49585798 -0.46991246
vt 0.49634126 -0.44868815
vt 0.49651865 -0.44145978
vt 0.49708438 -0.41951734
vt 0.49725300 0.67124500
vt 0.49743000 0.70875500
vt 0.49753500 0.63419000
vt 0.49755578 -0.39752109
vt 0.49772001 -0.39027480
vt 0.49817700 0.74746300
vt 0.49823823 -0.36905368
vt 0.49846988 -0.36252171
vt 0.49884027 -0.35158665
vt 0.49885100 0.59738400
vt 0.49900709 -0.34652303
vt 0.49936859 -0.33597996
vt 0.49950200 0.78632000
vt 0.49955024 -0.33037675
vt 0.49973206 -0.32346651
vt 0.50049179 -0.29526379
vt 0.50120100 0.56055700
vt 0.50188600 0.82518700
vt 0.50482500 0.52383300
vt 0.50500000 0.86393900
vt 0.50932400 0.48717100
vt 0.51010800 0.90269200
vt 0.51038500 -0.88799100
vt 0.51042000 -0.87695000
vt 0.51042300 -0.89904900
vt 0.51047000 -0.86509900
vt 0.51047300 -0.91098200
vt 0.51071400 -0.83207800
vt 0.51498200 0.45067200
vt 0.51879000 0.94162000
vt 0.52185200 0.41429100
vt 0.52774400 0.67118500
vt 0.52793700 0.70798600
vt 0.52803100 0.74584300
vt 0.52821400 0.63481500
vt 0.52978100 0.59874000
vt 0.52978400 0.78363700
vt 0.53128700 0.37821800
vt 0.53249000 0.56269200
vt 0.53293300 0.82106700
vt 0.53664800 0.52676400
vt 0.53701000 0.85798400
vt 0.54199000 0.49099700
vt 0.54249300 0.89411200
vt 0.54386300 0.34051100
vt 0.54480600 -0.82173800
vt 0.54740900 -0.85080900
vt 0.54853000 -0.87094000
vt 0.54873300 0.45558400
vt 0.55039000 0.92878200
vt 0.55045600 -0.89030200
vt 0.55156400 -0.90974400
vt 0.55358800 -0.92985600
vt 0.55553200 -0.95894100
vt 0.55658800 0.42069400
vt 0.56203900 0.67124800
vt 0.56236100 0.70715600
vt 0.56239000 0.74408100
vt 0.56276500 0.63570600
vt 0.56466100 0.60046500
vt 0.56485800 0.78052900
vt 0.56504300 0.38644700
vt 0.56786800 0.56530800
vt 0.56889700 0.81647500
vt 0.57258000 0.53033300
vt 0.57401200 0.85172600
vt 0.57563300 -0.65168400
vt 0.57563500 -0.69863900
vt 0.57645100 -0.67509800
vt 0.57688200 0.35255500
vt 0.57719700 -0.62731300
vt 0.57720300 -0.72291600
vt 0.57756500 -0.59211800
vt 0.57757300 -0.75808700
vt 0.57883400 0.49560800
vt 0.57986400 0.88598700
vt 0.58577000 0.91904800
vt 0.58664800 0.46131000
vt 0.59593100 0.42768800
vt 0.60657300 0.39547400
vt 0.61575400 0.36340700
vt 0.63991000 -0.54904700
vt 0.64059900 -0.51144100
vt 0.64076900 -0.49737300
vt 0.64095400 -0.48277600
vt 0.64162700 -0.45448500
vt 0.64241000 -0.42522600
vt 0.64301000 -0.39589300
vt 0.64367200 -0.36760400
vt 0.64417400 -0.35302300
vt 0.64466400 -0.33896900
vt 0.64573700 -0.30137600
vt 0.64644400 0.67161300
vt 0.64706800 0.70549400
vt 0.64725100 0.63791800
vt 0.64859200 0.73976500
vt 0.64943300 0.60434500
vt 0.65208400 0.77374000
vt 0.65317900 0.57078800
vt 0.65718200 0.80753100
vt 0.65856100 0.53743600
vt 0.65906600 -0.52151400
vt 0.65923600 -0.57476200
vt 0.65973800 -0.46807100
vt 0.66000600 -0.62471300
vt 0.66098100 -0.41792200
vt 0.66126500 -0.67457200
vt 0.66271100 -0.36776900
vt 0.66285900 -0.72435800
vt 0.66352000 0.84123400
vt 0.66472300 -0.77407900
vt 0.66477500 -0.31762300
vt 0.66573200 0.50430000
vt 0.66711000 -0.26749000
vt 0.67031900 0.87503400
vt 0.67459300 0.47131300
vt 0.67593500 0.90921200
vt 0.68521500 0.43838800
vt 0.69899800 0.40550900
vt 0.70626300 0.37171500
vt 0.73067500 0.23710200
vt 0.73403300 0.67168000
vt 0.73469300 0.64081300
vt 0.73500900 0.70262000
vt 0.73699700 0.60996000
vt 0.73771900 0.73348800
vt 0.74104400 0.57900700
vt 0.74225800 0.76433900
vt 0.74234800 0.28739300
vt 0.74694200 0.54810500
vt 0.74790800 0.19410100
vt 0.74848100 0.79543800
vt 0.75336200 0.23477400
vt 0.75472300 0.51722600
vt 0.75612600 0.82715100
vt 0.75827500 0.20627200
vt 0.76153784 -0.82038286
vt 0.76263267 -0.83493206
vt 0.76400001 -0.85311279
vt 0.76427300 0.48625800
vt 0.76445400 0.27804500
vt 0.76466600 0.85994800
vt 0.76476656 -0.86318055
vt 0.76529143 -0.87000101
vt 0.76604887 -0.87969224
vt 0.76653672 -0.88598020
vt 0.76703392 -0.89229308
vt 0.76779444 -0.90201609
vt 0.76833606 -0.90883601
vt 0.76914300 -0.91890249
vt 0.77061813 -0.93708133
vt 0.77090800 0.17434000
vt 0.77179829 -0.95162923
vt 0.77273900 0.89451800
vt 0.77535400 0.45497700
vt 0.77573900 0.33056400
vt 0.77674900 0.67142100
vt 0.77712900 0.64266400
vt 0.77799300 0.70018800
vt 0.77860400 0.19088300
vt 0.77946700 0.61391000
vt 0.78117700 0.72888800
vt 0.78357300 0.58506400
vt 0.78552800 0.22198700
vt 0.78600300 0.75769100
vt 0.78686900 0.42266600
vt 0.78919900 0.31614000
vt 0.78977700 0.55628100
vt 0.79245500 0.78689700
vt 0.79725900 0.67119700
vt 0.79737200 0.64364000
vt 0.79780000 0.52745100
vt 0.79784400 0.38910100
vt 0.79871600 0.69876400
vt 0.79904000 0.26257500
vt 0.79970900 0.61611800
vt 0.80042700 0.81682300
vt 0.80218400 0.72627900
vt 0.80384100 0.58854800
vt 0.80429100 0.15559200
vt 0.80697900 0.75392800
vt 0.80747900 0.35404200
vt 0.80769300 0.49844800
vt 0.81015900 0.84778700
vt 0.81028300 0.56109900
vt 0.81101800 0.33564400
vt 0.81211700 0.17216700
vt 0.81328900 0.78181300
vt 0.81596600 -0.12043300
vt 0.81642600 0.64460400
vt 0.81646900 0.67085300
vt 0.81806200 0.69721700
vt 0.81846400 0.53359400
vt 0.81864900 0.61846000
vt 0.81889400 0.46876200
vt 0.81897900 -0.16323500
vt 0.81933000 0.30149100
vt 0.82094700 0.81017600
vt 0.82157700 0.72362100
vt 0.82203400 0.88001400
vt 0.82273600 0.59230400
vt 0.82500200 0.20167300
vt 0.82617300 0.75016500
vt 0.82659000 -7.9377000e-2
vt 0.82823400 -0.12233100
vt 0.82855700 0.50599200
vt 0.82916900 0.56628500
vt 0.83101400 -0.15892300
vt 0.83106600 0.83879000
vt 0.83149400 0.43818500
vt 0.83215800 0.77671000
vt 0.83413900 -0.20118000
vt 0.83548800 0.64547300
vt 0.83555400 0.67029600
vt 0.83637600 0.33137600
vt 0.83715900 0.69539200
vt 0.83718800 -8.7313000e-2
vt 0.83730000 0.54018700
vt 0.83755100 0.62089300
vt 0.83908800 -0.12409500
vt 0.83912900 0.80315500
vt 0.83982500 0.47798300
vt 0.84055300 0.72072100
vt 0.84056900 0.13734200
vt 0.84147200 0.59634000
vt 0.84188400 -0.15512600
vt 0.84195900 0.24138100
vt 0.84259300 0.35287800
vt 0.84413000 -0.19145200
vt 0.84498300 0.74628200
vt 0.84539300 0.86653800
vt 0.84651200 -9.4312000e-2
vt 0.84668100 0.40691500
vt 0.84730500 0.51409700
vt 0.84762700 0.57180600
vt 0.84791600 0.15430600
vt 0.84862900 0.82866000
vt 0.84947500 -4.7380000e-2
vt 0.85066200 0.77169300
vt 0.85113900 -0.12576700
vt 0.85321100 -0.18267000
vt 0.85354600 0.44966800
vt 0.85387300 -0.15071700
vt 0.85549200 0.54704700
vt 0.85666100 -6.0095000e-2
vt 0.85686700 -0.10177500
vt 0.85711300 0.79632000
vt 0.85869900 0.48828300
vt 0.85890900 0.28223000
vt 0.85893000 -0.22956500
vt 0.86261400 0.85133400
vt 0.86302100 -7.1232000e-2
vt 0.86329100 -0.17285100
vt 0.86381800 -0.12725700
vt 0.86482200 0.18096800
vt 0.86518400 0.52223300
vt 0.86542400 0.81860800
vt 0.86549700 -0.21585100
vt 0.86636300 -0.14584000
vt 0.86776600 -0.10950600
vt 0.86990570 -0.81970527
vt 0.87014500 -8.3373000e-2
vt 0.87045299 -0.82697821
vt 0.87109600 0.42251700
vt 0.87146100 -0.20334100
vt 0.87187800 0.46229800
vt 0.87189100 0.31454200
vt 0.87250532 -0.85426692
vt 0.87288859 -0.85930069
vt 0.87366000 0.14620200
vt 0.87367590 -0.86953150
vt 0.87381000 -0.16244500
vt 0.87405461 -0.87437706
vt 0.87478686 -0.88381510
vt 0.87509700 -0.13007200
vt 0.87553314 -0.89329055
vt 0.87591340 -0.89815200
vt 0.87663600 0.49797600
vt 0.87672584 -0.90838199
vt 0.87684800 -0.11852200
vt 0.87692000 0.83657300
vt 0.87712930 -0.91341513
vt 0.87759400 -9.6240000e-2
vt 0.87759800 -0.14247700
vt 0.87816100 -0.18954300
vt 0.87817500 0.12710300
vt 0.87934342 -0.94070099
vt 0.87941800 0.33502000
vt 0.87993337 -0.94797328
vt 0.88050300 -3.0178000e-2
vt 0.88258700 -0.10982500
vt 0.88284900 -0.15317100
vt 0.88318300 -4.5638000e-2
vt 0.88424600 0.21835100
vt 0.88523900 -0.17514000
vt 0.88566300 -5.9430000e-2
vt 0.88847100 -7.4483000e-2
vt 0.88871200 0.47456700
vt 0.88930200 0.43995800
vt 0.89011800 -0.24493900
vt 0.89050100 -0.16185100
vt 0.89125100 -9.0387000e-2
vt 0.89140600 -0.10581700
vt 0.89226800 -0.22922200
vt 0.89413800 -0.21504900
vt 0.89555300 0.16260400
vt 0.89643200 -0.19938000
vt 0.89724700 0.25915100
vt 0.89904700 -0.18296500
vt 0.90023100 -0.16809900
vt 0.90157200 -0.10651800
vt 0.90551400 0.29181100
vt 0.90556300 0.45677000
vt 0.90585800 -9.1616000e-2
vt 0.90810700 -7.5216000e-2
vt 0.91008500 -5.9650000e-2
vt 0.91030200 0.14264700
vt 0.91036100 -0.16987300
vt 0.91151000 -0.11203600
vt 0.91195000 -4.5441000e-2
vt 0.91384900 -0.18409200
vt 0.91410100 -2.9714000e-2
vt 0.91425000 0.31083200
vt 0.91617800 -0.20006800
vt 0.91797700 0.19943600
vt 0.91861600 -0.21526300
vt 0.91938400 -9.9413000e-2
vt 0.91944500 -0.16689800
vt 0.92054700 -0.12203200
vt 0.92107400 -0.22901400
vt 0.92375600 -0.24445700
vt 0.92402800 0.27070400
vt 0.92571400 -0.15886800
vt 0.92623700 -8.5029000e-2
vt 0.92640600 -0.13494800
vt 0.92748200 -0.17781700
vt 0.92804600 0.24193100
vt 0.92821000 -0.14755100
vt 0.93044300 -0.11195000
vt 0.93270000 -7.1339000e-2
vt 0.93450100 -0.19095600
vt 0.93690100 -0.16413700
vt 0.93777600 -0.12820800
vt 0.93783400 0.27751700
vt 0.93867400 -5.8798000e-2
vt 0.93984100 0.18872600
vt 0.94043900 -0.14644400
vt 0.94090500 -0.10163300
vt 0.94126500 -0.20336000
vt 0.94524600 -4.5076000e-2
vt 0.94756000 -0.17232600
vt 0.94759700 -0.21448400
vt 0.94963100 0.23635800
vt 0.95026200 -0.12360500
vt 0.95085200 -9.1957000e-2
vt 0.95305600 -0.14836400
vt 0.95478800 -0.22718100
vt 0.95766600 -0.18016100
vt 0.95996500 -8.3144000e-2
vt 0.96214600 -0.11945400
vt 0.96496800 -0.15039000
vt 0.96699700 -0.18718600
vt 0.96742100 -0.53805400
vt 0.96786300 -0.44417400
vt 0.96835400 -0.49109900
vt 0.96864300 -0.58252800
vt 0.96882400 -0.61535800
vt 0.96950500 -0.39942100
vt 0.96996800 -7.3408000e-2
vt 0.96999500 -0.36652300
vt 0.97058800 -0.65196800
vt 0.97182800 -0.69759700
vt 0.97210600 -0.32953300
vt 0.97306200 -0.11564800
vt 0.97377600 -0.28361900
vt 0.97586600 -0.15217300
vt 0.97760800 -0.19510800
vt 0.97822400 -0.81902800
vt 0.98100600 -0.85542100
vt 0.98205800 -0.86906200
vt 0.98303700 -0.88165000
vt 0.98403000 -0.89428800
vt 0.98511100 -0.90792800
vt 0.98511200 -0.11132800
vt 0.98801900 -0.94431900
vt 0.98815000 -0.15406100
vn -9.8880714e-2 -0.23524113 0.96689411
vn -7.7735129e-2 -0.32983061 0.94083421
vn -0.29667120 -0.95477187 1.9921574e-2
vn -0.63095702 -0.77549844 2.2257598e-2
vn 4.6788603e-4 -0.99987298 1.5931420e-2
vn -6.8551227e-2 -0.15395842 0.98569647
vn -8.8726796e-2 0.19258082 0.97726157
vn -5.5416381e-2 0.15926184 0.98567981
vn -3.6629416e-3 0.15514778 0.98788448
vn 5.7409985e-6 0.99850752 5.4614346e-2
vn -0.20854897 0.97707845 4.2720414e-2
vn -0.67681350 0.73591736 1.8684855e-2
vn -0.92244079 -0.38208716 5.5788787e-2
vn -0.81364659 -0.32147321 0.48439054
vn -0.62908744 -0.60704547 0.48553558
vn -0.70599876 -0.70599850 5.5963060e-2
vn -0.84884341 -0.36060615 0.38655928
vn -0.64486602 -0.65778428 0.38918846
vn -0.92259277 -8.9058243e-3 0.38567249
vn -0.99843281 -1.8445043e-7 5.5963666e-2
vn -0.87407327 1.5587705e-2 0.48554397
vn -0.92244054 0.38208774 5.5788929e-2
vn -0.80265240 0.34802025 0.48438728
vn -0.85658832 0.34600298 0.38280332
vn -0.65958424 0.64718080 0.38223767
vn -0.70599853 0.70599868 5.5963623e-2
vn -0.60704645 0.62909025 0.48553070
vn -0.38229888 -0.92235318 5.5786957e-2
vn -0.34481364 -0.85413150 0.38931084
vn -0.34817789 -0.80260538 0.48435189
vn 1.1648587e-4 -0.94010135 0.34089505
vn 1.2438032e-4 -0.99843261 5.5967072e-2
vn 1.1523025e-4 -0.86773693 0.49702376
vn -0.38230208 0.92235176 5.5788427e-2
vn -0.36143415 0.85127758 0.38038380
vn 1.2085530e-4 0.96209979 0.27269758
vn 1.2332083e-4 0.99843247 5.5969474e-2
vn -0.32168625 0.81358388 0.48435445
vn 9.0154592e-5 0.78670508 0.61732901
vn -0.68493638 -0.28347134 0.67119755
vn -0.52198538 -0.52169581 0.67480719
vn -0.70076413 -0.29315919 0.65037475
vn -0.53729604 -0.54048176 0.64745072
vn -0.75104364 -3.1707417e-2 0.65949078
vn -0.74290658 2.6432191e-4 0.66939506
vn -0.68974119 0.28588801 0.66522563
vn -0.71192634 0.23896608 0.66034544
vn -0.54676790 0.50680925 0.66647524
vn -0.52878040 0.52893914 0.66378813
vn -0.28251336 -0.68129138 0.67529864
vn -0.29140990 -0.70797230 0.64331602
vn 1.1901499e-4 -0.73594094 0.67704573
vn 1.5295372e-4 -0.77496038 0.63200980
vn -0.28674311 0.69345867 0.66097917
vn -0.28590423 0.68570384 0.66937958
vn 1.2709829e-4 0.74404111 0.66813383
vn 1.0605163e-4 0.74952808 0.66197255
vn -0.84729471 -0.39831406 0.35133686
vn -0.63761766 -0.68677094 0.34898337
vn -0.81518523 -0.57881017 2.1256220e-2
vn -0.99724140 -7.3273562e-2 1.1856385e-2
vn -0.88654762 -1.6426324e-2 0.46234564
vn -0.31254310 0.86081589 0.40163766
vn -0.68384698 0.67823591 0.26897835
vn 1.7956105e-4 0.85957559 0.51100858
vn -0.35150809 -0.87123968 0.34261274
vn 2.2956715e-4 -0.97092252 0.23939384
vn -0.21298187 -0.15410396 0.96482677
vn -0.23689576 -0.10430445 0.96591976
vn -0.20089458 8.8908316e-2 0.97556993
vn -0.87751739 0.47933159 1.4298910e-2
vn -0.86825309 0.33626202 0.36477996
vn 0.10460245 -0.24830580 0.96301742
vn 0.16312668 -0.33902646 0.92652617
vn 0.32853696 -0.94431633 1.8169913e-2
vn 0.66114472 -0.74990863 2.2906327e-2
vn 5.6918394e-2 0.41839317 0.90648080
vn 0.11562777 0.23569901 0.96492290
vn 0.25032194 0.96740100 3.8395647e-2
vn 0.72620284 0.68725991 1.7414163e-2
vn 0.92244080 -0.38208715 5.5788756e-2
vn 0.70599857 -0.70599864 5.5963765e-2
vn 0.62908744 -0.60704536 0.48553570
vn 0.81364667 -0.32147312 0.48439047
vn 0.84884320 -0.36060635 0.38655954
vn 0.64486629 -0.65778431 0.38918797
vn 0.99843283 -4.6748867e-8 5.5963163e-2
vn 0.92259266 -8.9059617e-3 0.38567275
vn 0.87407285 1.5587480e-2 0.48554472
vn 0.92244062 0.38208752 5.5789175e-2
vn 0.80265225 0.34802005 0.48438767
vn 0.85658841 0.34600299 0.38280311
vn 0.70599869 0.70599851 5.5963839e-2
vn 0.65958429 0.64718067 0.38223781
vn 0.60704645 0.62909025 0.48553070
vn 0.38241294 -0.92230595 5.5786040e-2
vn 0.34492700 -0.85408777 0.38930636
vn 0.34826342 -0.80257336 0.48434346
vn 0.38241694 0.92230420 5.5787511e-2
vn 0.36154270 0.85123466 0.38037669
vn 0.32179696 0.81354330 0.48434907
vn 0.68493686 -0.28347127 0.67119709
vn 0.52198518 -0.52169589 0.67480728
vn 0.70076364 -0.29315946 0.65037516
vn 0.53729602 -0.54048179 0.64745071
vn 0.74290684 2.6446020e-4 0.66939477
vn 0.75104392 -3.1707269e-2 0.65949047
vn 0.68974102 0.28588810 0.66522576
vn 0.71192655 0.23896642 0.66034509
vn 0.52878029 0.52893896 0.66378835
vn 0.54676808 0.50680950 0.66647491
vn 0.28261244 -0.68125772 0.67529114
vn 0.29153345 -0.70792684 0.64331006
vn 0.28685647 0.69341834 0.66097230
vn 0.28604067 0.68565937 0.66936683
vn 0.84729468 -0.39831402 0.35133697
vn 0.63761809 -0.68677068 0.34898311
vn 0.84177143 -0.53950255 1.8917362e-2
vn 0.88654748 -1.6426748e-2 0.46234590
vn 0.99751911 -6.7820765e-2 1.8867396e-2
vn 0.31265511 0.86077720 0.40163341
vn 0.68384704 0.67823596 0.26897808
vn 0.35168646 -0.87117067 0.34260516
vn 0.20732867 -0.18202618 0.96118744
vn 0.27946439 -5.5359121e-2 0.95855883
vn 0.23062032 0.19690303 0.95291315
vn 0.90349176 0.42841979 1.2614047e-2
vn 0.86825321 0.33626185 0.36477984
vn -0.38081394 -0.91983283 9.4277824e-2
vn -0.36199539 -0.88024922 0.30679089
vn -0.67075151 -0.67488037 0.30761811
vn -0.70360664 -0.70427776 9.4501521e-2
vn -0.38285238 -0.92361865 1.8778992e-2
vn -0.70698255 -0.70698203 1.8764094e-2
vn 5.5696478e-5 -0.99982204 1.8864769e-2
vn 5.8288764e-5 -0.99279969 0.11978639
vn 6.2468970e-5 -0.93576670 0.35261973
vn -0.38083778 0.91988491 9.3671433e-2
vn -0.70543108 0.70543271 6.8787194e-2
vn -0.65793745 0.69597734 0.28763495
vn -0.30816895 0.90086443 0.30573709
vn 5.8253720e-5 0.99287770 0.11913805
vn 6.0672855e-5 0.95165560 0.30716708
vn 5.5401437e-5 0.99983457 1.8188862e-2
vn -0.44061400 0.89751365 1.8126099e-2
vn -0.73564200 0.67712384 1.8279968e-2
vn -0.92837294 -0.17495212 -0.32789546
vn -0.58564475 -0.15456750 -0.79569411
vn -0.60220402 -0.39302169 -0.69489874
vn -0.73557853 -0.54282178 -0.40530080
vn -0.94168902 -0.18403107 -0.28169904
vn -0.76603806 -0.60337284 -0.22164590
vn -0.95266331 1.5069007e-2 -0.30365366
vn -0.95261390 4.3635800e-3 -0.30415082
vn -0.57005908 6.7648858e-3 -0.82157585
vn -0.88425673 -0.36320601 0.29354970
vn -0.87833176 -0.36672753 0.30666633
vn -0.67793542 -0.67358709 0.29442148
vn -0.92297113 -0.38200938 4.6830767e-2
vn -0.70653730 -0.70611493 4.6976037e-2
vn -0.99889595 2.9860777e-4 4.6976548e-2
vn -0.95569289 3.0729596e-3 0.29434956
vn -0.95156351 -2.9177156e-3 0.30743841
vn -0.93438201 0.17743100 -0.30894741
vn -0.52300216 0.16654709 -0.83590120
vn -0.95377169 0.19347797 -0.22996919
vn -0.75533402 0.63163484 -0.17466523
vn -0.68882847 0.54657946 -0.47619978
vn -0.40720369 0.34913578 -0.84397237
vn -0.88211473 0.36844686 0.29346297
vn -0.88044860 0.36178491 0.30646688
vn -0.92276070 0.38251783 4.6827263e-2
vn -0.70611495 0.70653772 4.6969447e-2
vn -0.67362509 0.67796723 0.29426124
vn -0.39105260 -0.91307909 -0.11560470
vn -0.38543594 -0.92267821 -1.0201177e-2
vn -0.71998953 -0.69365322 -2.1454380e-2
vn -0.74776009 -0.64965869 -0.13710739
vn -0.38461954 -0.89626857 -0.22084033
vn 5.3146707e-5 -0.97271728 -0.23199374
vn 5.4640971e-5 -0.99594226 -8.9994489e-2
vn 5.4325442e-5 -0.99999309 -3.7169034e-3
vn -0.92594827 -0.37763650 3.2357907e-3
vn -0.93768964 -0.34210838 -6.0827503e-2
vn -0.70793783 -0.70617856 1.1656324e-2
vn -0.92371987 -0.38261701 1.8596440e-2
vn -0.99982840 2.1373192e-7 1.8524845e-2
vn -0.99997242 4.2173582e-3 -6.1131893e-3
vn -0.99533964 1.7781182e-2 -9.4777810e-2
vn -0.92540504 0.37896658 -3.1388848e-3
vn -0.93388831 0.34945060 -7.5742328e-2
vn -0.92372404 0.38261944 1.8337487e-2
vn -0.71080474 0.70335397 7.0584476e-3
vn -0.73112423 0.68147372 -3.2418089e-2
vn -0.36871941 -0.88196182 0.29358021
vn -0.38284855 -0.92262386 4.6820935e-2
vn 7.2794257e-5 -0.96976891 0.24402511
vn 7.6589674e-5 -0.99988779 1.4979894e-2
vn -0.36354725 0.88417406 0.29337626
vn -0.38234377 0.92283330 4.6818135e-2
vn 7.6114818e-5 0.99688221 7.8904099e-2
vn 6.5884804e-5 0.93906195 0.34374795
vn -0.92201986 -0.38197387 -6.3050310e-2
vn -0.70564825 -0.70573451 -6.3240357e-2
vn -0.92383118 -0.38261091 -1.2035376e-2
vn -0.70709288 -0.70701853 -1.2019041e-2
vn -0.99992716 5.2334468e-5 -1.2069600e-2
vn -0.99799795 -6.0796967e-5 -6.3246279e-2
vn -0.92206315 0.38187087 -6.3041159e-2
vn -0.92379482 0.38270056 -1.1975744e-2
vn -0.70701998 0.70709332 -1.1907197e-2
vn -0.70573506 0.70564927 -6.3222885e-2
vn -8.5839648e-2 -7.3513572e-2 -0.99359313
vn -6.5210905e-8 -4.2134148e-2 -0.99911196
vn 1.7600663e-5 -0.44841326 -0.89382635
vn -0.26013843 -0.45262441 -0.85291215
vn -7.6479950e-2 2.1180284e-3 -0.99706887
vn -1.2747615e-6 -1.3408396e-3 -0.99999910
vn -9.9947911e-2 8.7016869e-2 -0.99118035
vn 2.0192758e-6 9.2668075e-2 -0.99569706
vn -0.21995727 0.43207892 -0.87460082
vn 2.1886503e-5 0.54119589 -0.84089655
vn -0.33442539 0.82251747 -0.46002681
vn 4.5275065e-5 0.90211091 -0.43150424
vn -0.31701799 0.92203132 -0.22216625
vn 5.2475057e-5 0.96781609 -0.25165851
vn -0.38291606 -0.92368636 1.3371592e-2
vn 5.4809917e-5 -0.99988373 1.5248501e-2
vn -0.38389025 0.92329949 1.2096782e-2
vn 5.4454812e-5 0.99993955 1.0995310e-2
vn -0.38895169 0.92117630 -1.2280622e-2
vn 5.4534694e-5 0.99987682 -1.5695183e-2
vn -0.91961257 -0.38138860 9.4103452e-2
vn -0.99554654 -4.7327602e-4 9.4270138e-2
vn -0.91996813 0.38059214 9.3852379e-2
vn -0.93537829 -0.25477492 -0.24526965
vn -0.94305145 2.6943000e-2 -0.33155396
vn -0.92011860 0.27060389 -0.28311711
vn -0.75904774 0.63028199 -0.16306790
vn -0.33991418 -0.82121565 -0.45832653
vn 4.5931177e-5 -0.90253362 -0.43061939
vn -0.39324694 0.91261142 -0.11179108
vn 5.4223285e-5 0.98924615 -0.14626025
vn -0.38219825 -0.92192844 -6.3027350e-2
vn -0.38299067 -0.92367587 -1.1875235e-2
vn 7.1959042e-5 -0.99768281 -6.8036744e-2
vn 6.8876802e-5 -0.99994787 1.0210350e-2
vn -0.38228041 0.92189618 -6.3001013e-2
vn -0.38286552 0.92372979 -1.1716002e-2
vn 7.0171509e-5 0.99943210 -3.3696885e-2
vn 7.5195827e-5 0.99829440 -5.8380542e-2
vn -0.89358250 -0.37345563 0.24908072
vn -0.68230361 -0.68701266 0.24995076
vn -0.75408335 -0.31865452 0.57429748
vn -0.57374208 -0.58266377 0.57560660
vn -0.81778728 -6.3216267e-3 0.57548588
vn -0.96828883 -3.3353122e-3 0.24981117
vn -0.89590550 0.36776445 0.24920403
vn -0.75850678 0.30787232 0.57435364
vn -0.58262644 0.57367832 0.57570793
vn -0.68698481 0.68224775 0.25017968
vn -0.24535301 -0.60303198 0.75904831
vn -0.45629962 -0.46274801 0.76003614
vn -0.30797233 -0.75828014 0.57459923
vn 6.5327873e-5 -0.78498778 0.61951124
vn 6.5051129e-5 -0.62715467 0.77889474
vn -0.25312859 0.59981403 0.75904482
vn 5.9724469e-5 0.67190473 0.74063759
vn -0.31866790 0.75376341 0.57470992
vn 6.4102900e-5 0.84745549 0.53086646
vn -0.46274708 0.45629656 0.76003855
vn -0.59988562 -0.25303690 0.75901882
vn -0.64988314 -4.5632657e-3 0.76002045
vn -0.60310548 0.24525771 0.75902071
vn -0.36797183 -0.89574392 0.24947857
vn 6.8947318e-5 -0.94919254 0.31469591
vn -0.37358755 0.89332987 0.24978809
vn 6.8402691e-5 0.98267417 0.18534148
vn 0.38086552 -0.91981152 9.4277428e-2
vn 0.70360666 -0.70427774 9.4501527e-2
vn 0.67075148 -0.67488034 0.30761823
vn 0.36205026 -0.88022730 0.30678902
vn 0.38290331 -0.92359754 1.8778856e-2
vn 0.70698259 -0.70698198 1.8764069e-2
vn 0.38088943 0.91986356 9.3671032e-2
vn 0.30824670 0.90083886 0.30573407
vn 0.65793749 0.69597727 0.28763502
vn 0.70543118 0.70543262 6.8787153e-2
vn 0.44064665 0.89749762 1.8126040e-2
vn 0.73564206 0.67712378 1.8279996e-2
vn 0.92837326 -0.17495230 -0.32789448
vn 0.73557869 -0.54282171 -0.40530061
vn 0.60220467 -0.39302166 -0.69489820
vn 0.58564474 -0.15456752 -0.79569411
vn 0.94168885 -0.18403110 -0.28169962
vn 0.76603808 -0.60337268 -0.22164625
vn 0.95261400 4.3634297e-3 -0.30415050
vn 0.95266326 1.5068752e-2 -0.30365383
vn 0.57005871 6.7646930e-3 -0.82157611
vn 0.88425681 -0.36320596 0.29354954
vn 0.67793539 -0.67358712 0.29442147
vn 0.87833179 -0.36672742 0.30666639
vn 0.92297108 -0.38200952 4.6830692e-2
vn 0.70653729 -0.70611494 4.6976050e-2
vn 0.95569291 3.0728765e-3 0.29434947
vn 0.99889596 2.9869412e-4 4.6976330e-2
vn 0.95156350 -2.9178587e-3 0.30743844
vn 0.93438205 0.17743103 -0.30894727
vn 0.52300163 0.16654723 -0.83590150
vn 0.95377151 0.19347820 -0.22996975
vn 0.68882849 0.54657972 -0.47619945
vn 0.75533403 0.63163481 -0.17466530
vn 0.40720279 0.34913523 -0.84397303
vn 0.88211473 0.36844677 0.29346309
vn 0.88044862 0.36178484 0.30646689
vn 0.92276068 0.38251791 4.6827211e-2
vn 0.67362507 0.67796722 0.29426130
vn 0.70611494 0.70653773 4.6969451e-2
vn 0.39110257 -0.91305791 -0.11560289
vn 0.74776005 -0.64965871 -0.13710748
vn 0.71998953 -0.69365321 -2.1454422e-2
vn 0.38548632 -0.92265716 -1.0201040e-2
vn 0.38466643 -0.89624921 -0.22083725
vn 0.92594829 -0.37763646 3.2358320e-3
vn 0.70793793 -0.70617846 1.1656313e-2
vn 0.93768965 -0.34210835 -6.0827551e-2
vn 0.92371991 -0.38261691 1.8596411e-2
vn 0.99997242 4.2173070e-3 -6.1131243e-3
vn 0.99982840 2.1373192e-7 1.8524845e-2
vn 0.99533964 1.7781172e-2 -9.4777822e-2
vn 0.92540508 0.37896646 -3.1388690e-3
vn 0.93388832 0.34945058 -7.5742343e-2
vn 0.92372408 0.38261934 1.8337515e-2
vn 0.71080472 0.70335399 7.0583946e-3
vn 0.73112420 0.68147375 -3.2418102e-2
vn 0.36878082 -0.88193729 0.29357677
vn 0.38291900 -0.92259468 4.6819910e-2
vn 0.36361497 0.88414689 0.29337420
vn 0.38241469 0.92280391 4.6818170e-2
vn 0.92201981 -0.38197400 -6.3050285e-2
vn 0.70564829 -0.70573448 -6.3240341e-2
vn 0.92383112 -0.38261105 -1.2035316e-2
vn 0.70709298 -0.70701842 -1.2019145e-2
vn 0.99799795 -6.0888159e-5 -6.3246213e-2
vn 0.99992716 5.2258053e-5 -1.2069599e-2
vn 0.92206320 0.38187074 -6.3041135e-2
vn 0.92379484 0.38270051 -1.1975830e-2
vn 0.70573499 0.70564933 -6.3222980e-2
vn 0.70702007 0.70709323 -1.1907173e-2
vn 8.5841086e-2 -7.3513458e-2 -0.99359301
vn 0.26014856 -0.45262295 -0.85290984
vn 7.6478407e-2 2.1179944e-3 -0.99706899
vn 9.9947084e-2 8.7016671e-2 -0.99118045
vn 0.21996790 0.43207760 -0.87459881
vn 0.33445909 0.82250699 -0.46002105
vn 0.31708353 0.92200954 -0.22216311
vn 0.38296637 -0.92366550 1.3371537e-2
vn 0.38394085 0.92327845 1.2096650e-2
vn 0.38900186 0.92115511 -1.2280628e-2
vn 0.91961262 -0.38138849 9.4103446e-2
vn 0.99554655 -4.7322064e-4 9.4270073e-2
vn 0.91996817 0.38059204 9.3852309e-2
vn 0.93537817 -0.25477486 -0.24527014
vn 0.94305135 2.6942704e-2 -0.33155428
vn 0.92011840 0.27060405 -0.28311760
vn 0.75904763 0.63028201 -0.16306834
vn 0.33994870 -0.82120465 -0.45832063
vn 0.39329730 0.91258978 -0.11179055
vn 0.38226777 -0.92189966 -6.3026806e-2
vn 0.38305559 -0.92364896 -1.1874913e-2
vn 0.38234685 0.92186867 -6.3000340e-2
vn 0.38292911 0.92370343 -1.1716239e-2
vn 0.89358256 -0.37345552 0.24908067
vn 0.68230371 -0.68701253 0.24995084
vn 0.75408348 -0.31865449 0.57429732
vn 0.57374218 -0.58266373 0.57560654
vn 0.96828880 -3.3356166e-3 0.24981128
vn 0.81778741 -6.3217662e-3 0.57548570
vn 0.89590554 0.36776439 0.24920398
vn 0.75850685 0.30787212 0.57435365
vn 0.68698482 0.68224773 0.25017970
vn 0.58262639 0.57367840 0.57570789
vn 0.24541011 -0.60301385 0.75904425
vn 0.45629973 -0.46274798 0.76003610
vn 0.30803287 -0.75825846 0.57459539
vn 0.25319026 0.59979309 0.75904081
vn 0.31872924 0.75374075 0.57470562
vn 0.46274708 0.45629656 0.76003855
vn 0.59988567 -0.25303702 0.75901874
vn 0.64988337 -4.5632803e-3 0.76002025
vn 0.60310558 0.24525767 0.75902064
vn 0.36803539 -0.89571820 0.24947717
vn 0.37365158 0.89330391 0.24978517
vn 0.60032547 0.43102226 0.67366842
vn 0.72363790 0.33596765 0.60288799
vn 0.78770354 -7.3407888e-2 0.61166528
vn 0.69420911 -0.44005958 0.56957991
vn 0.58459001 -0.51576621 0.62629046
vn 0.64976797 0.47690256 0.59191682
vn 0.45462600 0.57049934 0.68399247
vn 0.18073815 0.77774749 0.60203203
vn -3.1541984e-2 0.74694734 0.66413461
vn 0.62521347 -0.55641799 0.54727245
vn 0.46835531 -0.61261163 0.63667126
vn 0.35664890 -0.73734691 0.57369077
vn 0.20337572 -0.71482333 0.66907842
vn -0.65522950 0.48092485 0.58256811
vn -0.70874904 0.24498945 0.66155496
vn -0.78720933 -7.6018635e-2 0.61198254
vn -0.68343880 -0.35694497 0.63679015
vn -0.62632724 -0.55740949 0.54498518
vn -0.57674327 0.45831663 0.67624927
vn -2.1399599e-2 0.79113257 0.61127025
vn -6.9174580e-5 0.84543632 0.53407623
vn -0.52818527 0.59040794 0.61027762
vn -0.22953440 0.70221967 0.67394473
vn 4.8366902e-2 0.83255690 0.55182394
vn 2.1298742e-2 0.79113875 0.61126578
vn 0.17623357 -0.75641121 0.62990778
vn 7.5366158e-4 -0.82221260 0.56917999
vn -0.57275110 -0.52662064 0.62819335
vn -0.45651070 -0.58566249 0.66977416
vn -0.38413525 -0.72976533 0.56558170
vn -0.17549496 -0.75659633 0.62989166
vn -0.19954468 -0.80651552 0.55652011
vn -0.30845647 -0.34191978 0.88766292
vn -9.9817234e-3 -0.37055414 0.92875723
vn 8.4141227e-2 -0.36663252 0.92655321
vn 4.2604428e-2 0.46849720 0.88243710
vn -0.21478547 0.30217417 0.92873999
vn -0.30557901 -0.25697706 0.91683383
vn -0.29786144 -7.1543889e-2 0.95192438
vn -0.32232588 -3.3650376e-2 0.94603048
vn 0.31468642 -0.31088478 0.89684063
vn 0.22351904 0.25887033 0.93969431
vn 0.34190300 -0.29133756 0.89343426
vn 0.33635645 -0.15795562 0.92839343
vn 0.35059552 -3.3805763e-2 0.93591664
vn 0.29001470 0.19817667 0.93627853
vn 0.31462301 5.8496986e-2 0.94741251
vn 0.18965856 0.25912202 0.94704034
vn 9.6868951e-2 0.32674358 0.94013565
vn 7.3879811e-2 0.43260503 0.89855143
vn 0.22119184 -0.34638737 0.91164135
vn 0.14145066 -0.36532603 0.92006989
vn 8.4320878e-2 -0.35744629 0.93011942
vn -0.26221651 0.16679501 0.95048510
vn -0.28525972 1.9878246e-2 0.95824410
vn -3.8923576e-2 0.44914108 0.89261260
vn -0.19059632 0.27319303 0.94288844
vn -0.11538016 0.32402173 0.93898740
vn -1.3464112e-2 0.39990471 0.91645782
vn -4.6264185e-2 0.39357818 0.91812627
vn -0.24931721 -0.34060207 0.90654904
vn -0.12302687 -0.36953115 0.92103806
vn -8.3184620e-2 -0.35122985 0.93258668
vn -8.7785159e-2 -0.34535310 0.93435807
g ToolChiselTriangleMetal
usemtl Metal
s 1
f 10/215/10 77/219/77 11/217/11
f 10/573/10 436/465/436 15/572/15
f 10/573/10 465/467/465 436/465/436
f 10/573/10 466/468/466 465/467/465
f 11/574/11 464/470/464 10/573/10
f 12/259/12 76/85/76 14/260/14
f 12/243/12 432/340/432 13/244/13
f 12/243/12 434/339/434 432/340/432
f 13/263/13 69/265/69 68/89/68
f 13/263/13 75/87/75 12/259/12
f 13/244/13 430/342/430 69/245/69
f 13/244/13 431/341/431 430/342/430
f 13/244/13 432/340/432 431/341/431
f 14/242/14 433/338/433 12/243/12
f 15/214/15 16/16/16 10/215/10
f 15/214/15 18/17/18 16/16/16
f 15/214/15 82/216/82 18/17/18
f 15/572/15 436/465/436 82/571/82
f 16/16/16 77/219/77 10/215/10
f 16/279/16 461/196/461 17/280/17
f 16/279/16 462/195/462 461/196/461
f 17/15/17 77/219/77 16/16/16
f 17/15/17 78/13/78 77/219/77
f 17/15/17 79/14/79 78/13/78
f 17/280/17 459/199/459 79/281/79
f 17/280/17 460/198/460 459/199/459
f 17/280/17 461/196/461 460/198/460
f 18/17/18 87/19/87 86/18/86
f 18/17/18 133/22/133 87/19/87
f 18/278/18 458/191/458 16/279/16
f 19/556/19 72/295/72 20/555/20
f 19/556/19 74/293/74 72/295/72
f 19/556/19 130/294/130 74/293/74
f 19/51/19 422/151/422 88/48/88
f 19/51/19 423/152/423 422/151/422
f 19/51/19 427/153/427 423/152/423
f 20/555/20 73/297/73 21/559/21
f 20/52/20 427/153/427 19/51/19
f 21/53/21 425/155/425 20/52/20
f 22/521/22 29/543/29 23/522/23
f 23/522/23 24/491/24 22/521/22
f 24/491/24 25/495/25 22/521/22
f 24/491/24 39/441/39 25/495/25
f 25/495/25 26/517/26 22/521/22
f 25/495/25 27/496/27 26/517/26
f 25/495/25 37/449/37 27/496/27
f 25/495/25 39/441/39 37/449/37
f 26/517/26 28/540/28 22/521/22
f 26/517/26 54/532/54 28/540/28
f 27/496/27 49/515/49 26/517/26
f 27/496/27 50/498/50 49/515/49
f 28/540/28 29/543/29 22/521/22
f 28/540/28 33/549/33 29/543/29
f 28/540/28 55/542/55 33/549/33
f 29/543/29 30/548/30 23/522/23
f 29/543/29 31/553/31 30/548/30
f 29/543/29 33/549/33 31/553/31
f 31/553/31 32/568/32 30/548/30
f 31/553/31 35/567/35 32/568/32
f 33/549/33 34/552/34 31/553/31
f 33/549/33 58/547/58 34/552/34
f 34/552/34 35/567/35 31/553/31
f 34/552/34 44/551/44 35/567/35
f 34/552/34 63/545/63 44/551/44
f 35/567/35 36/577/36 32/568/32
f 35/567/35 43/565/43 36/577/36
f 35/567/35 44/551/44 43/565/43
f 37/449/37 38/456/38 27/496/27
f 37/449/37 41/420/41 38/456/38
f 38/456/38 50/498/50 27/496/27
f 38/456/38 59/476/59 50/498/50
f 39/441/39 40/403/40 37/449/37
f 40/403/40 41/420/41 37/449/37
f 40/403/40 105/399/105 41/420/41
f 40/403/40 107/387/107 105/399/105
f 41/420/41 42/432/42 38/456/38
f 41/420/41 106/417/106 42/432/42
f 42/432/42 59/476/59 38/456/38
f 42/432/42 61/444/61 59/476/59
f 42/432/42 121/434/121 61/444/61
f 43/565/43 47/575/47 36/577/36
f 44/551/44 45/546/45 43/565/43
f 44/551/44 66/539/66 45/546/45
f 45/546/45 46/550/46 43/565/43
f 45/546/45 108/536/108 46/550/46
f 45/546/45 109/531/109 108/536/108
f 46/550/46 47/575/47 43/565/43
f 46/550/46 48/560/48 47/575/47
f 46/550/46 110/541/110 48/560/48
f 49/515/49 54/532/54 26/517/26
f 50/498/50 51/512/51 49/515/49
f 50/498/50 52/500/52 51/512/51
f 50/498/50 59/476/59 52/500/52
f 51/512/51 53/527/53 49/515/49
f 51/512/51 71/519/71 53/527/53
f 52/500/52 67/509/67 51/512/51
f 52/500/52 68/501/68 67/509/67
f 53/527/53 54/532/54 49/515/49
f 53/527/53 56/533/56 54/532/54
f 53/527/53 71/519/71 56/533/56
f 54/532/54 55/542/55 28/540/28
f 54/532/54 56/533/56 55/542/55
f 55/542/55 58/547/58 33/549/33
f 56/533/56 57/538/57 55/542/55
f 56/533/56 81/524/81 57/538/57
f 57/538/57 58/547/58 55/542/55
f 57/538/57 64/534/64 58/547/58
f 57/538/57 72/526/72 64/534/64
f 57/538/57 73/529/73 72/526/72
f 57/538/57 81/524/81 73/529/73
f 58/547/58 63/545/63 34/552/34
f 58/547/58 64/534/64 63/545/63
f 59/476/59 60/486/60 52/500/52
f 59/476/59 61/444/61 60/486/60
f 60/486/60 68/501/68 52/500/52
f 60/486/60 75/492/75 68/501/68
f 61/444/61 62/463/62 60/486/60
f 61/444/61 122/450/122 62/463/62
f 62/463/62 75/492/75 60/486/60
f 62/463/62 76/483/76 75/492/75
f 62/463/62 132/475/132 76/483/76
f 63/545/63 66/539/66 44/551/44
f 64/534/64 65/530/65 63/545/63
f 64/534/64 74/520/74 65/530/65
f 65/530/65 66/539/66 63/545/63
f 65/530/65 123/525/123 66/539/66
f 65/530/65 124/518/124 123/525/123
f 66/539/66 109/531/109 45/546/45
f 66/539/66 123/525/123 109/531/109
f 67/509/67 71/519/71 51/512/51
f 68/89/68 69/265/69 67/91/67
f 68/89/68 75/87/75 13/263/13
f 69/566/69 70/564/70 67/305/67
f 69/57/69 419/162/419 70/56/70
f 69/57/69 420/163/420 419/162/419
f 69/245/69 430/342/430 420/344/420
f 70/564/70 71/303/71 67/305/67
f 70/564/70 81/299/81 71/303/71
f 70/56/70 417/160/417 80/54/80
f 70/56/70 418/161/418 417/160/417
f 70/56/70 419/162/419 418/161/418
f 71/519/71 81/524/81 56/533/56
f 72/295/72 73/297/73 20/555/20
f 72/526/72 74/520/74 64/534/64
f 73/297/73 80/561/80 21/559/21
f 73/297/73 81/299/81 80/561/80
f 74/520/74 124/518/124 65/530/65
f 74/520/74 130/510/130 124/518/124
f 75/87/75 76/85/76 12/259/12
f 76/85/76 84/258/84 14/260/14
f 76/85/76 132/86/132 84/258/84
f 77/576/77 440/480/440 435/478/435
f 77/576/77 463/473/463 11/574/11
f 78/282/78 440/207/440 77/283/77
f 78/282/78 441/206/441 440/207/440
f 78/282/78 442/205/442 441/206/441
f 78/282/78 457/203/457 442/205/442
f 79/281/79 456/202/456 78/282/78
f 79/281/79 459/199/459 439/200/439
f 80/561/80 81/299/81 70/564/70
f 80/54/80 417/160/417 416/158/416
f 80/54/80 421/157/421 21/53/21
f 82/216/82 133/22/133 18/17/18
f 82/571/82 454/460/454 83/570/83
f 82/571/82 455/462/455 454/460/454
f 83/218/83 133/22/133 82/216/82
f 83/570/83 443/454/443 133/569/133
f 83/570/83 453/459/453 443/454/443
f 83/570/83 454/460/454 453/459/453
f 84/258/84 132/86/132 85/262/85
f 84/239/84 428/336/428 14/242/14
f 85/262/85 132/86/132 126/88/126
f 85/238/85 413/330/413 84/239/84
f 86/277/86 452/189/452 438/190/438
f 86/277/86 458/191/458 18/278/18
f 87/276/87 452/189/452 86/277/86
f 88/554/88 130/294/130 19/556/19
f 88/554/88 131/296/131 130/294/130
f 88/48/88 409/148/409 89/50/89
f 88/48/88 410/149/410 409/148/409
f 88/48/88 411/150/411 410/149/410
f 88/48/88 422/151/422 411/150/411
f 89/557/89 131/296/131 88/554/88
f 89/557/89 136/558/136 131/296/131
f 89/50/89 403/146/403 136/46/136
f 89/50/89 408/147/408 403/146/403
f 89/50/89 409/148/409 408/147/408
f 90/408/90 94/423/94 91/396/91
f 90/408/90 97/443/97 94/423/94
f 91/396/91 92/380/92 90/408/90
f 91/396/91 107/387/107 92/380/92
f 92/380/92 93/395/93 90/408/90
f 93/395/93 96/436/96 90/408/90
f 93/395/93 98/429/98 96/436/96
f 94/423/94 95/411/95 91/396/91
f 94/423/94 111/437/111 95/411/95
f 94/423/94 115/453/115 111/437/111
f 95/411/95 105/399/105 91/396/91
f 95/411/95 106/417/106 105/399/105
f 95/411/95 112/431/112 106/417/106
f 96/436/96 97/443/97 90/408/90
f 96/436/96 101/487/101 97/443/97
f 97/443/97 115/453/115 94/423/94
f 97/443/97 117/488/117 115/453/115
f 98/429/98 99/484/99 96/436/96
f 98/429/98 100/481/100 99/484/99
f 99/484/99 101/487/101 96/436/96
f 99/484/99 103/507/103 101/487/101
f 100/481/100 102/511/102 99/484/99
f 100/481/100 104/513/104 102/511/102
f 101/487/101 117/488/117 97/443/97
f 101/487/101 119/506/119 117/488/117
f 102/511/102 103/507/103 99/484/99
f 102/511/102 109/531/109 103/507/103
f 103/507/103 119/506/119 101/487/101
f 103/507/103 123/525/123 119/506/119
f 104/513/104 108/536/108 102/511/102
f 104/513/104 110/541/110 108/536/108
f 105/399/105 106/417/106 41/420/41
f 105/399/105 107/387/107 91/396/91
f 106/417/106 121/434/121 42/432/42
f 108/536/108 109/531/109 102/511/102
f 108/536/108 110/541/110 46/550/46
f 109/531/109 123/525/123 103/507/103
f 111/437/111 112/431/112 95/411/95
f 111/437/111 113/451/113 112/431/112
f 111/437/111 116/474/116 113/451/113
f 112/431/112 121/434/121 106/417/106
f 113/451/113 114/445/114 112/431/112
f 113/451/113 125/471/125 114/445/114
f 113/451/113 128/482/128 125/471/125
f 114/445/114 121/434/121 112/431/112
f 114/445/114 122/450/122 121/434/121
f 114/445/114 126/466/126 122/450/122
f 115/453/115 116/474/116 111/437/111
f 115/453/115 118/493/118 116/474/116
f 116/474/116 128/482/128 113/451/113
f 117/488/117 118/493/118 115/453/115
f 117/488/117 120/505/120 118/493/118
f 118/493/118 128/482/128 116/474/116
f 118/493/118 137/494/137 128/482/128
f 119/506/119 120/505/120 117/488/117
f 119/506/119 124/518/124 120/505/120
f 120/505/120 137/494/137 118/493/118
f 121/434/121 122/450/122 61/444/61
f 122/450/122 132/475/132 62/463/62
f 123/525/123 124/518/124 119/506/119
f 124/518/124 130/510/130 120/505/120
f 125/471/125 126/466/126 114/445/114
f 125/90/125 127/264/127 126/88/126
f 125/302/125 129/562/129 127/563/127
f 126/88/126 127/264/127 85/262/85
f 126/466/126 132/475/132 122/450/122
f 127/237/127 407/328/407 85/238/85
f 128/300/128 129/562/129 125/302/125
f 128/300/128 137/298/137 129/562/129
f 129/562/129 137/298/137 136/558/136
f 129/47/129 405/144/405 127/45/127
f 130/510/130 131/502/131 120/505/120
f 131/502/131 137/494/137 120/505/120
f 133/22/133 134/21/134 87/19/87
f 133/273/133 446/182/446 134/274/134
f 134/21/134 135/20/135 87/19/87
f 134/274/134 449/184/449 135/275/135
f 135/275/135 444/186/444 87/276/87
f 135/275/135 448/185/448 444/186/444
f 135/275/135 449/184/449 448/185/448
f 136/558/136 137/298/137 131/296/131
f 136/46/136 405/144/405 129/47/129
f 403/146/403 404/145/404 136/46/136
f 403/146/403 449/184/449 404/145/404
f 404/145/404 405/144/405 136/46/136
f 404/145/404 449/184/449 405/144/405
f 405/144/405 406/143/406 127/45/127
f 405/144/405 446/182/446 406/143/406
f 405/144/405 447/183/447 446/182/446
f 405/144/405 449/184/449 447/183/447
f 406/143/406 407/142/407 127/45/127
f 406/143/406 446/182/446 407/142/407
f 407/328/407 412/329/412 85/238/85
f 407/328/407 443/454/443 412/329/412
f 407/328/407 445/452/445 443/454/443
f 407/142/407 446/182/446 445/181/445
f 408/147/408 444/186/444 403/146/403
f 409/148/409 444/186/444 408/147/408
f 409/148/409 450/187/450 444/186/444
f 409/148/409 451/188/451 450/187/450
f 410/149/410 451/188/451 409/148/409
f 411/150/411 451/188/451 410/149/410
f 411/150/411 452/189/452 451/188/451
f 412/329/412 413/330/413 85/238/85
f 412/329/412 443/454/443 413/330/413
f 413/330/413 414/334/414 84/239/84
f 413/330/413 454/460/454 414/334/414
f 414/334/414 415/335/415 84/239/84
f 414/334/414 454/460/454 415/335/415
f 415/335/415 428/336/428 84/239/84
f 415/335/415 455/462/455 428/336/428
f 416/158/416 421/157/421 80/54/80
f 416/158/416 456/202/456 421/157/421
f 417/160/417 456/202/456 416/158/416
f 417/160/417 457/203/457 456/202/456
f 418/161/418 442/205/442 417/160/417
f 419/162/419 442/205/442 418/161/418
f 420/163/420 440/207/440 419/162/419
f 421/157/421 424/156/424 21/53/21
f 421/157/421 456/202/456 439/200/439
f 421/157/421 459/199/459 424/156/424
f 422/151/422 452/189/452 411/150/411
f 422/151/422 458/191/458 438/190/438
f 423/152/423 458/191/458 422/151/422
f 424/156/424 425/155/425 21/53/21
f 424/156/424 459/199/459 425/155/425
f 425/155/425 426/154/426 20/52/20
f 425/155/425 461/196/461 426/154/426
f 426/154/426 427/153/427 20/52/20
f 426/154/426 461/196/461 427/153/427
f 427/153/427 458/191/458 423/152/423
f 427/153/427 462/195/462 458/191/458
f 428/336/428 429/337/429 14/242/14
f 428/336/428 436/465/436 429/337/429
f 428/336/428 437/464/437 436/465/436
f 428/336/428 455/462/455 437/464/437
f 429/337/429 433/338/433 14/242/14
f 429/337/429 436/465/436 433/338/433
f 430/342/430 440/480/440 420/344/420
f 430/342/430 463/473/463 435/478/435
f 431/341/431 463/473/463 430/342/430
f 431/341/431 464/470/464 463/473/463
f 432/340/432 464/470/464 431/341/431
f 432/340/432 466/468/466 464/470/464
f 433/338/433 434/339/434 12/243/12
f 433/338/433 466/468/466 434/339/434
f 434/339/434 466/468/466 432/340/432
f 435/478/435 440/480/440 430/342/430
f 435/478/435 463/473/463 77/576/77
f 436/465/436 437/464/437 82/571/82
f 436/465/436 465/467/465 433/338/433
f 437/464/437 455/462/455 82/571/82
f 438/190/438 452/189/452 422/151/422
f 438/190/438 458/191/458 86/277/86
f 439/200/439 456/202/456 79/281/79
f 439/200/439 459/199/459 421/157/421
f 440/207/440 441/206/441 419/162/419
f 441/206/441 442/205/442 419/162/419
f 442/205/442 457/203/457 417/160/417
f 443/454/443 445/452/445 133/569/133
f 443/454/443 453/459/453 413/330/413
f 444/186/444 448/185/448 403/146/403
f 444/186/444 450/187/450 87/276/87
f 445/181/445 446/182/446 133/273/133
f 446/182/446 447/183/447 134/274/134
f 447/183/447 449/184/449 134/274/134
f 448/185/448 449/184/449 403/146/403
f 450/187/450 451/188/451 87/276/87
f 451/188/451 452/189/452 87/276/87
f 453/459/453 454/460/454 413/330/413
f 454/460/454 455/462/455 415/335/415
f 456/202/456 457/203/457 78/282/78
f 458/191/458 462/195/462 16/279/16
f 459/199/459 460/198/460 425/155/425
f 460/198/460 461/196/461 425/155/425
f 461/196/461 462/195/462 427/153/427
f 463/473/463 464/470/464 11/574/11
f 464/470/464 466/468/466 10/573/10
f 465/467/465 466/468/466 433/338/433
g ToolChiselTriangleWood
usemtl Wood
s 1
f 23/430/23 272/412/272 24/438/24
f 23/430/23 281/402/281 272/412/272
f 24/438/24 271/428/271 39/448/39
f 24/438/24 272/412/272 271/428/271
f 30/421/30 281/402/281 23/430/23
f 30/421/30 282/394/282 281/402/281
f 32/414/32 282/394/282 30/421/30
f 32/414/32 283/390/283 282/394/282
f 36/407/36 283/390/283 32/414/32
f 39/448/39 275/442/275 40/472/40
f 40/504/40 275/490/275 107/489/107
f 47/405/47 280/383/280 36/407/36
f 48/404/48 276/382/276 47/405/47
f 48/404/48 277/381/277 276/382/276
f 48/404/48 395/385/395 277/381/277
f 92/469/92 393/439/393 93/447/93
f 93/447/93 398/425/398 98/435/98
f 98/435/98 399/409/399 100/426/100
f 100/426/100 400/398/400 104/416/104
f 104/416/104 397/392/397 110/410/110
f 104/416/104 400/398/400 397/392/397
f 107/489/107 392/457/392 92/469/92
f 110/410/110 395/385/395 48/404/48
f 110/410/110 397/392/397 395/385/395
f 138/174/138 145/177/145 139/213/139
f 139/213/139 140/211/140 138/174/138
f 139/213/139 167/233/167 140/211/140
f 139/213/139 204/235/204 167/233/167
f 140/211/140 141/172/141 138/174/138
f 140/211/140 166/209/166 141/172/141
f 140/211/140 167/233/167 165/231/165
f 141/172/141 142/135/142 138/174/138
f 141/172/141 143/133/143 142/135/142
f 141/172/141 242/170/242 143/133/143
f 142/135/142 144/137/144 138/174/138
f 142/135/142 237/112/237 144/137/144
f 143/133/143 195/131/195 194/109/194
f 143/133/143 236/110/236 142/135/142
f 143/133/143 242/170/242 195/131/195
f 144/137/144 145/177/145 138/174/138
f 144/159/144 288/179/288 145/180/145
f 144/159/144 292/141/292 288/179/288
f 145/177/145 146/221/146 139/213/139
f 145/180/145 291/229/291 146/236/146
f 146/221/146 204/235/204 139/213/139
f 146/221/146 206/241/206 204/235/204
f 146/236/146 345/253/345 206/261/206
f 147/164/147 154/127/154 148/165/148
f 148/165/148 149/193/149 147/164/147
f 148/165/148 244/167/244 149/193/149
f 149/193/149 150/192/150 147/164/147
f 149/193/149 208/223/208 150/192/150
f 149/193/149 244/167/244 180/197/180
f 150/192/150 151/166/151 147/164/147
f 150/192/150 152/194/152 151/166/151
f 150/192/150 211/226/211 152/194/152
f 151/166/151 153/129/153 147/164/147
f 151/166/151 294/168/294 153/129/153
f 151/166/151 295/201/295 294/168/294
f 152/194/152 295/201/295 151/166/151
f 153/129/153 154/127/154 147/164/147
f 153/129/153 238/116/238 154/127/154
f 153/129/153 239/117/239 238/116/238
f 153/129/153 367/118/367 239/117/239
f 154/127/154 155/126/155 148/165/148
f 154/127/154 202/115/202 155/126/155
f 154/127/154 238/116/238 202/115/202
f 155/126/155 201/128/201 148/165/148
f 155/126/155 202/115/202 199/114/199
f 156/419/156 163/479/163 157/406/157
f 157/406/157 158/377/158 156/419/156
f 157/406/157 225/358/225 158/377/158
f 158/377/158 159/373/159 156/419/156
f 158/377/158 225/358/225 159/373/159
f 159/25/159 160/43/160 156/26/156
f 159/25/159 161/42/161 160/43/160
f 159/25/159 249/24/249 161/42/161
f 160/43/160 162/44/162 156/26/156
f 160/43/160 246/72/246 162/44/162
f 161/42/161 188/41/188 187/70/187
f 161/42/161 245/71/245 160/43/160
f 161/42/161 249/24/249 188/41/188
f 162/44/162 163/27/163 156/26/156
f 162/44/162 175/49/175 163/27/163
f 162/44/162 247/73/247 175/49/175
f 163/479/163 164/458/164 157/406/157
f 163/479/163 173/514/173 164/458/164
f 163/27/163 175/49/175 173/28/173
f 164/458/164 222/388/222 157/406/157
f 164/458/164 226/440/226 222/388/222
f 165/231/165 166/209/166 140/211/140
f 165/231/165 171/228/171 166/209/166
f 166/209/166 242/170/242 141/172/141
f 167/233/167 168/255/168 165/231/165
f 167/233/167 169/257/169 168/255/168
f 167/233/167 204/235/204 169/257/169
f 168/255/168 170/252/170 165/231/165
f 168/255/168 217/289/217 170/252/170
f 169/257/169 212/291/212 168/255/168
f 169/257/169 213/301/213 212/291/212
f 170/252/170 171/228/171 165/231/165
f 170/252/170 181/249/181 171/228/171
f 170/252/170 218/287/218 181/249/181
f 171/228/171 172/204/172 166/209/166
f 171/228/171 179/225/179 172/204/172
f 171/228/171 181/249/181 179/225/179
f 172/204/172 242/170/242 166/209/166
f 172/204/172 243/169/243 242/170/242
f 173/514/173 174/503/174 164/458/164
f 173/514/173 177/535/177 174/503/174
f 174/503/174 226/440/226 164/458/164
f 174/503/174 228/499/228 226/440/226
f 175/49/175 176/55/176 173/28/173
f 175/49/175 248/74/248 176/55/176
f 176/55/176 177/29/177 173/28/173
f 176/55/176 232/32/232 177/29/177
f 176/55/176 234/58/234 232/32/232
f 176/55/176 251/75/251 234/58/234
f 177/535/177 178/523/178 174/503/174
f 177/535/177 230/528/230 178/523/178
f 177/535/177 232/544/232 230/528/230
f 178/523/178 228/499/228 174/503/174
f 178/523/178 230/528/230 228/499/228
f 179/225/179 180/197/180 172/204/172
f 179/225/179 183/224/183 180/197/180
f 180/197/180 183/224/183 149/193/149
f 180/197/180 243/169/243 172/204/172
f 180/197/180 244/167/244 243/169/243
f 181/249/181 182/248/182 179/225/179
f 181/249/181 221/285/221 182/248/182
f 182/248/182 183/224/183 179/225/179
f 182/248/182 209/247/209 183/224/183
f 182/248/182 257/284/257 209/247/209
f 183/224/183 208/223/208 149/193/149
f 183/224/183 209/247/209 208/223/208
f 184/69/184 190/60/190 185/93/185
f 185/93/185 186/94/186 184/69/184
f 185/93/185 194/109/194 186/94/186
f 185/93/185 236/110/236 194/109/194
f 186/94/186 187/70/187 184/69/184
f 186/94/186 193/95/193 187/70/187
f 186/94/186 194/109/194 192/111/192
f 187/70/187 188/41/188 184/69/184
f 187/70/187 245/71/245 161/42/161
f 188/41/188 189/30/189 184/69/184
f 188/41/188 250/23/250 189/30/189
f 189/30/189 190/60/190 184/69/184
f 189/59/189 328/79/328 190/77/190
f 189/59/189 332/65/332 328/79/328
f 190/60/190 191/92/191 185/93/185
f 190/77/190 331/103/331 191/102/191
f 191/92/191 236/110/236 185/93/185
f 191/92/191 237/112/237 236/110/236
f 191/102/191 366/124/366 237/125/237
f 192/111/192 193/95/193 186/94/186
f 192/111/192 197/113/197 193/95/193
f 193/95/193 245/71/245 187/70/187
f 194/109/194 195/131/195 192/111/192
f 194/109/194 236/110/236 143/133/143
f 195/131/195 196/130/196 192/111/192
f 195/131/195 243/169/243 196/130/196
f 196/130/196 197/113/197 192/111/192
f 196/130/196 201/128/201 197/113/197
f 196/130/196 244/167/244 201/128/201
f 197/113/197 198/96/198 193/95/193
f 197/113/197 199/114/199 198/96/198
f 197/113/197 201/128/201 199/114/199
f 198/96/198 245/71/245 193/95/193
f 198/96/198 246/72/246 245/71/245
f 199/114/199 200/97/200 198/96/198
f 199/114/199 201/128/201 155/126/155
f 199/114/199 202/115/202 200/97/200
f 200/97/200 246/72/246 198/96/198
f 200/97/200 247/73/247 246/72/246
f 201/128/201 244/167/244 148/165/148
f 202/115/202 203/98/203 200/97/200
f 202/115/202 238/116/238 203/98/203
f 203/98/203 247/73/247 200/97/200
f 203/98/203 248/74/248 247/73/247
f 204/235/204 205/267/205 169/257/169
f 204/235/204 206/241/206 205/267/205
f 205/267/205 213/301/213 169/257/169
f 205/267/205 253/306/253 213/301/213
f 206/241/206 207/268/207 205/267/205
f 206/261/206 346/271/346 207/272/207
f 207/268/207 253/306/253 205/267/205
f 207/268/207 255/308/255 253/306/253
f 207/272/207 378/310/378 255/311/255
f 208/223/208 211/226/211 150/192/150
f 209/247/209 210/250/210 208/223/208
f 209/247/209 260/286/260 210/250/210
f 210/250/210 211/226/211 208/223/208
f 210/250/210 347/227/347 211/226/211
f 210/250/210 348/251/348 347/227/347
f 211/226/211 295/201/295 152/194/152
f 211/226/211 347/227/347 295/201/295
f 212/291/212 217/289/217 168/255/168
f 213/301/213 214/323/214 212/291/212
f 213/301/213 215/326/215 214/323/214
f 213/301/213 253/306/253 215/326/215
f 214/323/214 216/319/216 212/291/212
f 214/323/214 266/356/266 216/319/216
f 215/326/215 261/360/261 214/323/214
f 215/326/215 262/368/262 261/360/261
f 216/319/216 217/289/217 212/291/212
f 216/319/216 219/317/219 217/289/217
f 216/319/216 267/353/267 219/317/219
f 217/289/217 218/287/218 170/252/170
f 217/289/217 219/317/219 218/287/218
f 218/287/218 221/285/221 181/249/181
f 219/317/219 220/315/220 218/287/218
f 219/317/219 270/350/270 220/315/220
f 220/315/220 221/285/221 218/287/218
f 220/315/220 258/313/258 221/285/221
f 220/315/220 286/348/286 258/313/258
f 221/285/221 257/284/257 182/248/182
f 221/285/221 258/313/258 257/284/257
f 222/388/222 225/358/225 157/406/157
f 222/388/222 226/440/226 223/366/223
f 223/366/223 224/332/224 222/388/222
f 223/366/223 359/355/359 224/332/224
f 223/366/223 361/393/361 359/355/359
f 224/332/224 225/358/225 222/388/222
f 224/332/224 249/347/249 225/358/225
f 224/332/224 250/320/250 249/347/249
f 224/332/224 376/312/376 250/320/250
f 225/358/225 249/347/249 159/373/159
f 226/440/226 227/418/227 223/366/223
f 226/440/226 228/499/228 227/418/227
f 227/418/227 361/393/361 223/366/223
f 227/418/227 362/446/362 361/393/361
f 228/499/228 229/485/229 227/418/227
f 228/499/228 230/528/230 229/485/229
f 229/485/229 362/446/362 227/418/227
f 229/485/229 363/497/363 362/446/362
f 230/528/230 231/516/231 229/485/229
f 230/528/230 232/544/232 231/516/231
f 231/516/231 363/497/363 229/485/229
f 231/516/231 364/508/364 363/497/363
f 232/544/232 233/537/233 231/516/231
f 232/32/232 234/58/234 233/33/233
f 233/537/233 364/508/364 231/516/231
f 233/33/233 365/63/365 364/34/364
f 234/58/234 235/61/235 233/33/233
f 234/58/234 252/76/252 235/61/235
f 235/61/235 365/63/365 233/33/233
f 236/110/236 237/112/237 142/135/142
f 237/125/237 292/141/292 144/159/144
f 237/125/237 366/124/366 292/141/292
f 238/116/238 240/99/240 203/98/203
f 239/117/239 240/99/240 238/116/238
f 239/117/239 241/100/241 240/99/240
f 239/117/239 368/101/368 241/100/241
f 240/99/240 248/74/248 203/98/203
f 240/99/240 251/75/251 248/74/248
f 241/100/241 251/75/251 240/99/240
f 241/100/241 252/76/252 251/75/251
f 241/100/241 377/78/377 252/76/252
f 242/170/242 243/169/243 195/131/195
f 243/169/243 244/167/244 196/130/196
f 245/71/245 246/72/246 160/43/160
f 246/72/246 247/73/247 162/44/162
f 247/73/247 248/74/248 175/49/175
f 248/74/248 251/75/251 176/55/176
f 249/24/249 250/23/250 188/41/188
f 250/31/250 332/65/332 189/59/189
f 250/31/250 376/36/376 332/65/332
f 251/75/251 252/76/252 234/58/234
f 252/76/252 365/63/365 235/61/235
f 252/76/252 377/78/377 365/63/365
f 253/306/253 254/333/254 215/326/215
f 253/306/253 255/308/255 254/333/254
f 254/333/254 262/368/262 215/326/215
f 254/333/254 284/375/284 262/368/262
f 255/308/255 256/345/256 254/333/254
f 255/311/255 379/357/379 256/364/256
f 256/345/256 284/375/284 254/333/254
f 256/345/256 285/391/285 284/375/284
f 256/364/256 401/401/401 285/424/285
f 257/284/257 260/286/260 209/247/209
f 258/313/258 259/314/259 257/284/257
f 258/313/258 287/349/287 259/314/259
f 259/314/259 260/286/260 257/284/257
f 259/314/259 380/288/380 260/286/260
f 259/314/259 381/316/381 380/288/380
f 260/286/260 348/251/348 210/250/210
f 260/286/260 380/288/380 348/251/348
f 261/360/261 266/356/266 214/323/214
f 262/368/262 263/379/263 261/360/261
f 262/368/262 264/389/264 263/379/263
f 262/368/262 284/375/284 264/389/264
f 263/379/263 265/372/265 261/360/261
f 263/379/263 282/394/282 265/372/265
f 264/389/264 273/400/273 272/412/272
f 264/389/264 281/402/281 263/379/263
f 264/389/264 284/375/284 273/400/273
f 265/372/265 266/356/266 261/360/261
f 265/372/265 268/369/268 266/356/266
f 265/372/265 283/390/283 268/369/268
f 266/356/266 267/353/267 216/319/216
f 266/356/266 268/369/268 267/353/267
f 267/353/267 270/350/270 219/317/219
f 268/369/268 269/365/269 267/353/267
f 268/369/268 280/383/280 269/365/269
f 268/369/268 283/390/283 280/383/280
f 269/365/269 270/350/270 267/353/267
f 269/365/269 278/361/278 270/350/270
f 269/365/269 280/383/280 276/382/276
f 270/350/270 286/348/286 220/315/220
f 271/428/271 275/442/275 39/448/39
f 272/412/272 273/400/273 271/428/271
f 272/412/272 281/402/281 264/389/264
f 273/400/273 274/422/274 271/428/271
f 273/400/273 285/391/285 274/422/274
f 274/422/274 275/442/275 271/428/271
f 274/455/274 392/457/392 275/490/275
f 274/455/274 394/433/394 392/457/392
f 275/490/275 392/457/392 107/489/107
f 276/382/276 278/361/278 269/365/269
f 276/382/276 280/383/280 47/405/47
f 277/381/277 278/361/278 276/382/276
f 277/381/277 279/362/279 278/361/278
f 277/381/277 396/367/396 279/362/279
f 278/361/278 286/348/286 270/350/270
f 279/362/279 286/348/286 278/361/278
f 279/362/279 287/349/287 286/348/286
f 279/362/279 402/352/402 287/349/287
f 280/383/280 283/390/283 36/407/36
f 281/402/281 282/394/282 263/379/263
f 282/394/282 283/390/283 265/372/265
f 284/375/284 285/391/285 273/400/273
f 285/424/285 394/433/394 274/455/274
f 285/424/285 401/401/401 394/433/394
f 286/348/286 287/349/287 258/313/258
f 287/349/287 381/316/381 259/314/259
f 287/349/287 402/352/402 381/316/381
f 288/179/288 291/229/291 145/180/145
f 288/179/288 292/141/292 289/178/289
f 289/178/289 290/222/290 288/179/288
f 289/178/289 311/220/311 290/222/290
f 289/178/289 369/176/369 311/220/311
f 290/222/290 291/229/291 288/179/288
f 290/222/290 310/246/310 291/229/291
f 290/222/290 311/220/311 309/240/309
f 291/229/291 345/253/345 146/236/146
f 292/141/292 293/140/293 289/178/289
f 292/141/292 366/124/366 293/140/293
f 293/140/293 366/124/366 334/123/334
f 293/140/293 369/176/369 289/178/289
f 294/168/294 298/132/298 153/129/153
f 295/201/295 296/208/296 294/168/294
f 295/201/295 347/227/347 296/208/296
f 296/208/296 297/171/297 294/168/294
f 296/208/296 326/230/326 324/210/324
f 296/208/296 347/227/347 326/230/326
f 296/208/296 371/173/371 297/171/297
f 297/171/297 298/132/298 294/168/294
f 297/171/297 299/134/299 298/132/298
f 297/171/297 342/136/342 299/134/299
f 297/171/297 371/173/371 342/136/342
f 298/132/298 367/118/367 153/129/153
f 299/134/299 342/136/342 340/120/340
f 299/134/299 343/119/343 298/132/298
f 300/37/300 304/64/304 301/40/301
f 300/37/300 307/62/307 304/64/304
f 301/322/301 302/327/302 300/343/300
f 301/322/301 360/324/360 302/327/302
f 301/322/301 376/312/376 360/324/360
f 302/327/302 303/351/303 300/343/300
f 302/327/302 360/324/360 303/351/303
f 303/351/303 306/371/306 300/343/300
f 303/351/303 308/378/308 306/371/306
f 303/351/303 359/355/359 308/378/308
f 303/351/303 360/324/360 359/355/359
f 304/64/304 305/68/305 301/40/301
f 304/64/304 372/83/372 305/68/305
f 304/64/304 373/84/373 372/83/372
f 305/68/305 372/83/372 329/81/329
f 305/68/305 376/36/376 301/40/301
f 306/35/306 307/62/307 300/37/300
f 306/35/306 319/66/319 307/62/307
f 307/62/307 373/84/373 304/64/304
f 307/62/307 374/82/374 373/84/373
f 308/378/308 317/415/317 306/371/306
f 308/378/308 318/427/318 317/415/317
f 308/378/308 361/393/361 318/427/318
f 309/240/309 310/246/310 290/222/290
f 309/240/309 312/269/312 310/246/310
f 309/240/309 315/266/315 312/269/312
f 310/246/310 345/253/345 291/229/291
f 311/220/311 314/234/314 309/240/309
f 311/220/311 316/212/316 314/234/314
f 311/220/311 369/176/369 316/212/316
f 312/269/312 313/270/313 310/246/310
f 312/269/312 349/307/349 313/270/313
f 312/269/312 353/304/353 349/307/349
f 313/270/313 345/253/345 310/246/310
f 313/270/313 346/271/346 345/253/345
f 313/270/313 350/309/350 346/271/346
f 314/234/314 315/266/315 309/240/309
f 314/234/314 325/256/325 315/266/315
f 315/266/315 353/304/353 312/269/312
f 315/266/315 355/292/355 353/304/353
f 316/212/316 323/232/323 314/234/314
f 316/212/316 324/210/324 323/232/323
f 316/212/316 370/175/370 324/210/324
f 317/38/317 319/66/319 306/35/306
f 317/38/317 321/67/321 319/66/319
f 318/427/318 320/477/320 317/415/317
f 318/427/318 322/461/322 320/477/320
f 318/427/318 362/446/362 322/461/322
f 319/66/319 374/82/374 307/62/307
f 319/66/319 375/80/375 374/82/374
f 320/39/320 321/67/321 317/38/317
f 320/39/320 364/34/364 321/67/321
f 321/67/321 375/80/375 319/66/319
f 321/67/321 377/78/377 375/80/375
f 322/461/322 363/497/363 320/477/320
f 323/232/323 325/256/325 314/234/314
f 323/232/323 327/254/327 325/256/325
f 324/210/324 326/230/326 323/232/323
f 324/210/324 371/173/371 296/208/296
f 325/256/325 355/292/355 315/266/315
f 325/256/325 357/290/357 355/292/355
f 326/230/326 327/254/327 323/232/323
f 326/230/326 348/251/348 327/254/327
f 327/254/327 357/290/357 325/256/325
f 327/254/327 380/288/380 357/290/357
f 328/79/328 331/103/331 190/77/190
f 328/79/328 332/65/332 329/81/329
f 329/81/329 330/105/330 328/79/328
f 329/81/329 332/65/332 305/68/305
f 329/81/329 335/108/335 330/105/330
f 329/81/329 372/83/372 335/108/335
f 330/105/330 331/103/331 328/79/328
f 330/105/330 334/123/334 331/103/331
f 330/105/330 335/108/335 333/122/333
f 331/103/331 366/124/366 191/102/191
f 332/65/332 376/36/376 305/68/305
f 333/122/333 334/123/334 330/105/330
f 333/122/333 336/139/336 334/123/334
f 333/122/333 338/138/338 336/139/336
f 334/123/334 336/139/336 293/140/293
f 334/123/334 366/124/366 331/103/331
f 335/108/335 337/121/337 333/122/333
f 335/108/335 339/107/339 337/121/337
f 335/108/335 372/83/372 339/107/339
f 336/139/336 369/176/369 293/140/293
f 336/139/336 370/175/370 369/176/369
f 337/121/337 338/138/338 333/122/333
f 337/121/337 342/136/342 338/138/338
f 338/138/338 370/175/370 336/139/336
f 338/138/338 371/173/371 370/175/370
f 339/107/339 340/120/340 337/121/337
f 339/107/339 341/106/341 340/120/340
f 339/107/339 373/84/373 341/106/341
f 340/120/340 342/136/342 337/121/337
f 340/120/340 343/119/343 299/134/299
f 341/106/341 343/119/343 340/120/340
f 341/106/341 344/104/344 343/119/343
f 341/106/341 374/82/374 344/104/344
f 342/136/342 371/173/371 338/138/338
f 343/119/343 367/118/367 298/132/298
f 344/104/344 367/118/367 343/119/343
f 344/104/344 368/101/368 367/118/367
f 344/104/344 375/80/375 368/101/368
f 345/253/345 346/271/346 206/261/206
f 346/271/346 378/310/378 207/272/207
f 347/227/347 348/251/348 326/230/326
f 348/251/348 380/288/380 327/254/327
f 349/307/349 350/309/350 313/270/313
f 349/307/349 351/331/351 350/309/350
f 349/307/349 354/325/354 351/331/351
f 350/309/350 378/310/378 346/271/346
f 351/331/351 352/346/352 350/309/350
f 351/331/351 382/374/382 352/346/352
f 351/331/351 386/363/386 382/374/382
f 352/346/352 378/310/378 350/309/350
f 352/346/352 379/357/379 378/310/378
f 352/346/352 383/386/383 379/357/379
f 353/304/353 354/325/354 349/307/349
f 353/304/353 356/321/356 354/325/354
f 354/325/354 386/363/386 351/331/351
f 354/325/354 388/359/388 386/363/386
f 355/292/355 356/321/356 353/304/353
f 355/292/355 358/318/358 356/321/356
f 356/321/356 388/359/388 354/325/354
f 356/321/356 390/354/390 388/359/388
f 357/290/357 358/318/358 355/292/355
f 357/290/357 381/316/381 358/318/358
f 358/318/358 390/354/390 356/321/356
f 358/318/358 402/352/402 390/354/390
f 359/355/359 360/324/360 224/332/224
f 359/355/359 361/393/361 308/378/308
f 360/324/360 376/312/376 224/332/224
f 361/393/361 362/446/362 318/427/318
f 362/446/362 363/497/363 322/461/322
f 363/497/363 364/508/364 320/477/320
f 364/34/364 365/63/365 321/67/321
f 365/63/365 377/78/377 321/67/321
f 367/118/367 368/101/368 239/117/239
f 368/101/368 377/78/377 241/100/241
f 369/176/369 370/175/370 316/212/316
f 370/175/370 371/173/371 324/210/324
f 372/83/372 373/84/373 339/107/339
f 373/84/373 374/82/374 341/106/341
f 374/82/374 375/80/375 344/104/344
f 375/80/375 377/78/377 368/101/368
f 378/310/378 379/357/379 255/311/255
f 379/357/379 401/401/401 256/364/256
f 380/288/380 381/316/381 357/290/357
f 381/316/381 402/352/402 358/318/358
f 382/374/382 383/386/383 352/346/352
f 382/374/382 384/397/384 383/386/383
f 382/374/382 387/384/387 384/397/384
f 383/386/383 401/401/401 379/357/379
f 384/397/384 385/413/385 383/386/383
f 384/397/384 398/425/398 385/413/385
f 384/397/384 399/409/399 398/425/398
f 385/413/385 398/425/398 393/439/393
f 385/413/385 401/401/401 383/386/383
f 386/363/386 387/384/387 382/374/382
f 386/363/386 389/376/389 387/384/387
f 387/384/387 399/409/399 384/397/384
f 387/384/387 400/398/400 399/409/399
f 388/359/388 389/376/389 386/363/386
f 388/359/388 391/370/391 389/376/389
f 389/376/389 400/398/400 387/384/387
f 390/354/390 391/370/391 388/359/388
f 390/354/390 396/367/396 391/370/391
f 390/354/390 402/352/402 396/367/396
f 391/370/391 396/367/396 395/385/395
f 391/370/391 397/392/397 389/376/389
f 392/457/392 393/439/393 92/469/92
f 392/457/392 394/433/394 393/439/393
f 393/439/393 394/433/394 385/413/385
f 393/439/393 398/425/398 93/447/93
f 394/433/394 401/401/401 385/413/385
f 395/385/395 396/367/396 277/381/277
f 395/385/395 397/392/397 391/370/391
f 396/367/396 402/352/402 279/362/279
f 397/392/397 400/398/400 389/376/389
f 398/425/398 399/409/399 98/435/98
f 399/409/399 400/398/400 100/426/100
