# Exported from Wings 3D 2.3
#9 vertices, 14 faces
v 0.10777276 2.2195830e-4 -5.6879267e-3
v -5.3822093e-2 -9.3074874e-2 -5.6879267e-3
v -5.3822093e-2 9.3518790e-2 -5.6879267e-3
v 8.9997321e-2 2.2195830e-4 8.5595521e-3
v -4.4934377e-2 -7.7680900e-2 8.5595521e-3
v -4.4934377e-2 7.8124817e-2 8.5595521e-3
v 0.10777276 2.2195830e-4 -1.1228512e-4
v -5.3822093e-2 -9.3074874e-2 -1.1228512e-4
v -5.3822093e-2 9.3518790e-2 -1.1228512e-4
vn 0.70710678 0.0000000e+0 -0.70710678
vn -0.44721360 -0.77459667 -0.44721360
vn -9.0685615e-10 0.86602540 -0.50000000
vn 0.31068810 0.17937590 0.93343301
vn -0.17001124 -0.29446804 0.94041733
vn -0.13802717 0.23907010 0.96114202
vn 0.80691937 -0.16013677 0.56853967
vn -0.38231212 -0.66218404 0.64447633
vn -0.52796313 0.49848582 0.68758041
f 1//1 7//7 2//2
f 2//2 3//3 1//1
f 2//2 9//9 3//3
f 3//3 7//7 1//1
f 3//3 9//9 7//7
f 4//4 6//6 5//5
f 4//4 9//9 6//6
f 5//5 7//7 4//4
f 5//5 8//8 7//7
f 5//5 9//9 8//8
f 6//6 9//9 5//5
f 7//7 8//8 2//2
f 7//7 9//9 4//4
f 8//8 9//9 2//2
