# Exported from Wings 3D 2.3
#8 vertices, 12 faces
v -4.9720160e-2 -4.9635319e-2 -5.3510468e-3
v 4.9817445e-2 -4.9635319e-2 -5.3510468e-3
v -4.9720160e-2 4.9902285e-2 -5.3510468e-3
v 4.9817445e-2 4.9902285e-2 -5.3510468e-3
v -4.9720160e-2 -4.9635319e-2 8.5842090e-3
v 4.9817445e-2 -4.9635319e-2 8.5842090e-3
v -4.9720160e-2 4.9902285e-2 8.5842090e-3
v 4.9817445e-2 4.9902285e-2 8.5842090e-3
vn -0.57735027 -0.57735027 -0.57735027
vn 0.33333333 -0.66666667 -0.66666667
vn -0.66666667 0.33333333 -0.66666667
vn 0.66666667 0.66666667 -0.33333333
vn -0.66666667 -0.66666667 0.33333333
vn 0.66666667 -0.33333333 0.66666667
vn -0.33333333 0.66666667 0.66666667
vn 0.57735027 0.57735027 0.57735027
f 1//1 3//3 2//2
f 1//1 5//5 3//3
f 2//2 5//5 1//1
f 2//2 6//6 5//5
f 3//3 4//4 2//2
f 3//3 7//7 4//4
f 4//4 6//6 2//2
f 4//4 8//8 6//6
f 5//5 7//7 3//3
f 6//6 7//7 5//5
f 6//6 8//8 7//7
f 7//7 8//8 4//4
