# Exported from Wings 3D 2.3
mtllib ToolChiselRectangle.mtl
o ToolChiselRectangleTip
#8 vertices, 12 faces
v -4.9720160e-2 -4.9635319e-2 -5.3510468e-3
v 4.9817445e-2 -4.9635319e-2 -5.3510468e-3
v -4.9720160e-2 4.9902285e-2 -5.3510468e-3
v 4.9817445e-2 4.9902285e-2 -5.3510468e-3
v -4.9720160e-2 -4.9635319e-2 8.5842090e-3
v 4.9817445e-2 -4.9635319e-2 8.5842090e-3
v -4.9720160e-2 4.9902285e-2 8.5842090e-3
v 4.9817445e-2 4.9902285e-2 8.5842090e-3
vt 8.7377934e-2 0.90787511
vt 0.10765277 0.88884428
vt 0.13172964 0.50196880
vt 0.14853261 0.41667130
vt 0.15233159 2.8093169e-2
vt 0.15447626 0.53040301
vt 0.59002517 0.44462098
vt 0.59780404 2.8093169e-2
vt 0.62042110 0.50778653
vt 0.63097079 0.49722619
vt 0.65486812 0.87142799
vt 0.68693795 0.90994307
vn -0.57735027 -0.57735027 -0.57735027
vn 0.33333333 -0.66666667 -0.66666667
vn -0.66666667 0.33333333 -0.66666667
vn 0.66666667 0.66666667 -0.33333333
vn -0.66666667 -0.66666667 0.33333333
vn 0.66666667 -0.33333333 0.66666667
vn -0.33333333 0.66666667 0.66666667
vn 0.57735027 0.57735027 0.57735027
g ToolChiselRectangleTipMetal
usemtl Metal
s 1
f 1/8/1 3/7/3 2/5/2
f 1/3/1 5/6/5 3/1/3
f 2/10/2 5/6/5 1/3/1
f 2/10/2 6/9/6 5/6/5
f 3/7/3 4/4/4 2/5/2
f 3/1/3 7/2/7 4/12/4
f 4/12/4 6/9/6 2/10/2
f 4/12/4 8/11/8 6/9/6
f 5/6/5 7/2/7 3/1/3
f 6/9/6 7/2/7 5/6/5
f 6/9/6 8/11/8 7/2/7
f 7/2/7 8/11/8 4/12/4
o ToolChiselRectangle
#457 vertices, 910 faces
v -1.5520979e-3 -5.0168699e-3 1.5668007e-2
v -3.1329090e-3 -5.3605692e-3 1.5666406e-2
v -3.9692182e-3 -1.2285443e-2 -5.7477608e-2
v -7.4664973e-3 -1.0062803e-2 -5.7336475e-2
v -1.3856603e-5 -1.2892670e-2 -5.7336152e-2
v -2.1946118e-5 -4.9510010e-3 1.6122436e-2
v -2.0177504e-3 8.8579067e-4 1.5678705e-2
v -3.9223766e-3 1.4508192e-3 1.5682705e-2
v -2.1946459e-5 9.6154157e-4 1.6128453e-2
v -1.3856603e-5 9.6704056e-3 -5.7338780e-2
v -5.7055727e-3 9.9458857e-3 -5.7479775e-2
v -1.0340839e-2 7.1426819e-3 -5.7340255e-2
v -2.6085478e-2 -1.0612961e-2 -0.14815824
v -2.6401238e-2 -1.0743741e-2 -0.15427485
v -2.0267408e-2 -2.0081954e-2 -0.15427485
v -2.0024979e-2 -1.9839526e-2 -0.14815824
v -2.5769726e-2 -1.0482182e-2 -0.14204166
v -1.9782551e-2 -1.9597098e-2 -0.14204166
v -2.7981376e-2 1.9662771e-4 -0.14204166
v -2.8324224e-2 1.9662771e-4 -0.14815824
v -2.8667062e-2 1.9662771e-4 -0.15427485
v -2.6085487e-2 1.1006208e-2 -0.14815824
v -2.6401238e-2 1.1136987e-2 -0.15427485
v -2.5769726e-2 1.0875410e-2 -0.14204166
v -1.9782551e-2 1.9990326e-2 -0.14204166
v -2.0024979e-2 2.0232754e-2 -0.14815824
v -2.0267408e-2 2.0475191e-2 -0.15427485
v -1.0798424e-2 -2.5900034e-2 -0.14815824
v -1.0667626e-2 -2.5584282e-2 -0.14204166
v -1.0929212e-2 -2.6215775e-2 -0.15427485
v -1.3856603e-5 -2.8481609e-2 -0.15427485
v -1.3856603e-5 -2.8138752e-2 -0.14815821
v -1.3856603e-5 -2.7795932e-2 -0.14204166
v -1.0798415e-2 2.6293261e-2 -0.14815824
v -1.0667626e-2 2.5977510e-2 -0.14204166
v -1.3856603e-5 2.8189179e-2 -0.14204166
v -1.3856603e-5 2.8532035e-2 -0.14815821
v -1.0929203e-2 2.6609031e-2 -0.15427485
v -1.3856603e-5 2.8874882e-2 -0.15427485
v -2.1739262e-2 -8.7214418e-3 -0.13718510
v -1.6688093e-2 -1.6411366e-2 -0.13718510
v -1.7708808e-2 -6.9607016e-3 -0.13232855
v -1.3593643e-2 -1.3225652e-2 -0.13232855
v -1.9228936e-2 3.7914712e-4 -0.13232824
v -2.3605161e-2 2.8788281e-4 -0.13718496
v -2.1739272e-2 9.2971982e-3 -0.13718450
v -1.7708808e-2 7.7189867e-3 -0.13232733
v -1.3593643e-2 1.3983947e-2 -0.13232555
v -1.6688102e-2 1.6987141e-2 -0.13718359
v -8.9981594e-3 -2.1462545e-2 -0.13718510
v -7.3286835e-3 -1.7340816e-2 -0.13232855
v -1.3856603e-5 -2.3328443e-2 -0.13718506
v -1.3856603e-5 -1.8860963e-2 -0.13232855
v -8.9981594e-3 2.2038320e-2 -0.13718211
v -7.3286835e-3 1.8099111e-2 -0.13232261
v -1.3856603e-5 1.9596006e-2 -0.13232066
v -1.3856603e-5 2.3892611e-2 -0.13718114
v -1.4235831e-2 -6.2588911e-3 -0.12804557
v -1.0774960e-2 -1.1248410e-2 -0.12804563
v -1.1458230e-2 -5.6010948e-3 -5.7478853e-2
v -1.3620721e-2 -4.8134103e-4 -5.7339739e-2
v -1.5617086e-2 -3.4579522e-4 -0.12804534
v -6.3421365e-3 1.4248317e-2 -0.12804232
v -1.1331655e-2 1.0787446e-2 -0.12804383
v -1.3856603e-5 1.5617964e-2 -0.12804135
v -5.6170466e-3 -1.4452922e-2 -0.12804567
v -1.3856603e-5 -1.5533849e-2 -0.12804567
v -4.7486313e-3 -4.1964488e-3 1.5674108e-2
v -6.7217518e-3 -6.0225191e-4 1.4989746e-2
v -6.0530062e-3 7.9317667e-4 1.5680704e-2
v -1.2642158e-2 3.8920257e-3 -5.7480180e-2
v -1.4536167e-2 5.6295511e-3 -0.12804480
v 1.6194810e-3 -5.3779942e-3 1.5668007e-2
v 3.0926366e-3 -5.3605692e-3 1.5666406e-2
v 3.9280813e-3 -1.2285443e-2 -5.7477608e-2
v 7.4253604e-3 -1.0062803e-2 -5.7336475e-2
v 2.1481883e-3 2.2213774e-3 1.5678705e-2
v 3.8821046e-3 1.4508192e-3 1.5682705e-2
v 5.6644358e-3 9.9458857e-3 -5.7479775e-2
v 1.0299702e-2 7.1426819e-3 -5.7340255e-2
v 2.6044341e-2 -1.0612961e-2 -0.14815824
v 1.9983833e-2 -1.9839526e-2 -0.14815824
v 2.0226271e-2 -2.0081954e-2 -0.15427485
v 2.6360092e-2 -1.0743741e-2 -0.15427485
v 2.5728580e-2 -1.0482182e-2 -0.14204166
v 1.9741405e-2 -1.9597098e-2 -0.14204166
v 2.8283078e-2 1.9662771e-4 -0.14815824
v 2.7940239e-2 1.9662771e-4 -0.14204166
v 2.8625925e-2 1.9662771e-4 -0.15427485
v 2.6044341e-2 1.1006208e-2 -0.14815824
v 2.6360101e-2 1.1136987e-2 -0.15427485
v 2.5728590e-2 1.0875410e-2 -0.14204166
v 1.9983843e-2 2.0232754e-2 -0.14815824
v 1.9741415e-2 1.9990326e-2 -0.14204166
v 2.0226271e-2 2.0475191e-2 -0.15427485
v 1.0757278e-2 -2.5900034e-2 -0.14815824
v 1.0626489e-2 -2.5584282e-2 -0.14204166
v 1.0888075e-2 -2.6215775e-2 -0.15427485
v 1.0757278e-2 2.6293261e-2 -0.14815824
v 1.0626489e-2 2.5977510e-2 -0.14204166
v 1.0888066e-2 2.6609031e-2 -0.15427485
v 2.1698126e-2 -8.7214418e-3 -0.13718510
v 1.6646956e-2 -1.6411366e-2 -0.13718510
v 1.7667671e-2 -6.9607016e-3 -0.13232855
v 1.3552497e-2 -1.3225652e-2 -0.13232855
v 2.3564015e-2 2.8788281e-4 -0.13718496
v 1.9187799e-2 3.7914712e-4 -0.13232824
v 2.1698126e-2 9.2971982e-3 -0.13718450
v 1.7667671e-2 7.7189867e-3 -0.13232733
v 1.6646956e-2 1.6987141e-2 -0.13718359
v 1.3552497e-2 1.3983947e-2 -0.13232555
v 8.9570133e-3 -2.1462545e-2 -0.13718510
v 7.2875466e-3 -1.7340816e-2 -0.13232855
v 8.9570133e-3 2.2038320e-2 -0.13718211
v 7.2875466e-3 1.8099111e-2 -0.13232261
v 1.4194685e-2 -6.2588911e-3 -0.12804557
v 1.0733823e-2 -1.1248410e-2 -0.12804563
v 1.1417093e-2 -5.6010948e-3 -5.7478853e-2
v 1.5575949e-2 -3.4579522e-4 -0.12804534
v 1.3579575e-2 -4.8134103e-4 -5.7339739e-2
v 6.3009996e-3 1.4248317e-2 -0.12804232
v 1.1290518e-2 1.0787446e-2 -0.12804383
v 5.5759097e-3 -1.4452922e-2 -0.12804567
v 4.7083568e-3 -4.1964488e-3 1.5674108e-2
v 6.9691282e-3 -1.5109543e-3 1.5565458e-2
v 6.0127321e-3 7.9317667e-4 1.5680704e-2
v 1.2601022e-2 3.8920257e-3 -5.7480180e-2
v 1.4495030e-2 5.6295511e-3 -0.12804480
v -2.3767139e-2 -5.7311267e-2 -0.37745793
v -2.1083752e-2 -5.0819875e-2 -0.33654335
v -3.9121495e-2 -3.8971694e-2 -0.33654335
v -4.4095165e-2 -4.3958714e-2 -0.37745793
v -2.4143389e-2 -5.8237638e-2 -0.43068950
v -4.4792569e-2 -4.4674133e-2 -0.43068950
v -1.3856603e-5 -6.3247965e-2 -0.43068953
v -1.3856603e-5 -6.2243670e-2 -0.37745793
v -1.3856603e-5 -5.5196551e-2 -0.33654335
v -2.3767121e-2 5.7681436e-2 -0.37745793
v -4.4095165e-2 4.4328893e-2 -0.37745793
v -3.9121486e-2 3.9368877e-2 -0.33654335
v -2.1083734e-2 5.1217039e-2 -0.33654335
v -1.3856603e-5 6.2613877e-2 -0.37745793
v -1.3856603e-5 5.5593762e-2 -0.33654335
v -1.3856603e-5 6.3582123e-2 -0.43068953
v -2.4143370e-2 5.8571796e-2 -0.43068950
v -4.4792569e-2 4.5008282e-2 -0.43068950
v -4.7783713e-2 -2.2840351e-2 -0.58994308
v -4.2272276e-2 -2.3237262e-2 -0.59924372
v -3.6922080e-2 -3.7681409e-2 -0.59684377
v -4.1238009e-2 -4.1977682e-2 -0.58993956
v -4.8848387e-2 -2.3371203e-2 -0.57810292
v -4.1987106e-2 -4.3472162e-2 -0.57810204
v -4.9418385e-2 2.7931785e-4 -0.57810352
v -4.8173838e-2 9.5802728e-5 -0.58994537
v -4.3031423e-2 -7.6722688e-5 -0.59922248
v -4.4154899e-2 -1.8107099e-2 -0.32139078
v -5.0969667e-2 -2.0933942e-2 -0.33654335
v -3.3889254e-2 -3.3735599e-2 -0.32139078
v -4.1601997e-2 -1.7049635e-2 -0.30210056
v -3.1929123e-2 -3.1775698e-2 -0.30210055
v -4.5175143e-2 2.0303530e-4 -0.30210055
v -4.7947010e-2 2.0284169e-4 -0.32139078
v -5.5346371e-2 1.9860070e-4 -0.33654335
v -4.7512944e-2 2.3232380e-2 -0.58994304
v -4.1990619e-2 2.3393547e-2 -0.59924372
v -4.8656196e-2 2.3954206e-2 -0.57810292
v -4.1646011e-2 4.4037952e-2 -0.57810204
v -4.0796632e-2 4.2580074e-2 -0.58993956
v -3.6554745e-2 3.8068423e-2 -0.59684377
v -4.4154899e-2 1.8512755e-2 -0.32139078
v -5.0969667e-2 2.1331143e-2 -0.33654335
v -4.1602006e-2 1.7455697e-2 -0.30210056
v -3.1929123e-2 3.2181759e-2 -0.30210056
v -3.3889254e-2 3.4141245e-2 -0.32139078
v -2.4382461e-2 -5.8516160e-2 -0.56751931
v -2.4688707e-2 -5.9502754e-2 -0.52938812
v -4.5453399e-2 -4.5639751e-2 -0.52938816
v -4.3835866e-2 -4.4843477e-2 -0.56751931
v -2.3875450e-2 -5.6498222e-2 -0.57810176
v -1.3856603e-5 -6.1279905e-2 -0.57810172
v -1.3856603e-5 -6.3600871e-2 -0.56751931
v -1.3856603e-5 -6.4632262e-2 -0.52938816
v -5.9288954e-2 -2.4429866e-2 -0.48535850
v -5.8343185e-2 -2.4543746e-2 -0.52938812
v -4.5508799e-2 -4.5408875e-2 -0.48535850
v -5.8356074e-2 -2.4024943e-2 -0.43068950
v -6.3366401e-2 1.6708828e-4 -0.43068950
v -6.4379316e-2 1.4857543e-4 -0.48535850
v -6.2813136e-2 1.6610179e-4 -0.52938816
v -5.9288954e-2 2.4727017e-2 -0.48535850
v -5.8318302e-2 2.4870842e-2 -0.52938812
v -5.8356074e-2 2.4359120e-2 -0.43068950
v -4.5508799e-2 4.5706035e-2 -0.48535850
v -4.5407246e-2 4.5952861e-2 -0.52938816
v -1.8260754e-2 -4.4001253e-2 -0.32139078
v -1.7203060e-2 -4.1448572e-2 -0.30210056
v -1.3856603e-5 -4.7793364e-2 -0.32139078
v -1.3856603e-5 -4.5021737e-2 -0.30210055
v -1.8260745e-2 4.4406900e-2 -0.32139078
v -1.7203060e-2 4.1854624e-2 -0.30210056
v -1.3856603e-5 4.5427808e-2 -0.30210055
v -1.3856603e-5 4.8199011e-2 -0.32139078
v -4.3768286e-2 -1.7946993e-2 -0.25390397
v -3.3592292e-2 -3.3438997e-2 -0.25390397
v -4.7374430e-2 -1.9439416e-2 -0.20369177
v -3.6362186e-2 -3.6204548e-2 -0.20369178
v -5.1442334e-2 2.0215022e-4 -0.20369178
v -4.7527281e-2 2.0304452e-4 -0.25390397
v -4.3768286e-2 1.8353054e-2 -0.25390397
v -4.7374439e-2 1.9843744e-2 -0.20369177
v -3.6362186e-2 3.6608839e-2 -0.20369178
v -3.3592292e-2 3.3845058e-2 -0.25390397
v -2.4164797e-2 -2.5326928e-2 -0.60220896
v -1.3856603e-5 -2.6794984e-2 -0.60210774
v -1.3856603e-5 -4.7964792e-2 -0.59921263
v -2.3409540e-2 -4.5039549e-2 -0.59923792
v -2.4694082e-2 -2.0363587e-5 -0.60211239
v -1.3856603e-5 6.4954118e-5 -0.60196101
v -2.3993626e-2 2.5439900e-2 -0.60220896
v -1.3856603e-5 2.6934343e-2 -0.60210943
v -2.3092674e-2 4.5385776e-2 -0.59923792
v -1.3856603e-5 4.8128905e-2 -0.59921510
v -2.3020503e-2 5.4149372e-2 -0.58993843
v -1.3856603e-5 5.7964523e-2 -0.58994005
v -2.3471994e-2 5.6914978e-2 -0.57810176
v -1.3856603e-5 6.1514418e-2 -0.57810218
v -2.4529799e-2 -5.9189031e-2 -0.48535850
v -1.3856603e-5 -6.4279411e-2 -0.48535850
v -2.4529789e-2 5.9486172e-2 -0.48535850
v -1.3856603e-5 6.4576562e-2 -0.48535850
v -2.4628586e-2 5.9794594e-2 -0.52938812
v -1.3856603e-5 6.4899209e-2 -0.52938816
v -5.7447718e-2 -2.3630669e-2 -0.37745793
v -6.2380131e-2 1.8509406e-4 -0.37745793
v -5.7447727e-2 2.4000876e-2 -0.37745793
v -5.3615603e-2 -2.4064928e-2 -0.56751931
v -5.6062158e-2 2.5620444e-4 -0.56751931
v -5.3516014e-2 2.4556805e-2 -0.56751931
v -4.3651263e-2 4.5279465e-2 -0.56751931
v -2.3432119e-2 -5.3718012e-2 -0.58993843
v -1.3856603e-5 -5.7763808e-2 -0.58993843
v -2.4142006e-2 5.8867153e-2 -0.56751931
v -1.3856603e-5 6.3852292e-2 -0.56751931
v -1.8100288e-2 -4.3614982e-2 -0.25390397
v -1.9597063e-2 -4.7216783e-2 -0.20369177
v -1.3856603e-5 -4.7373976e-2 -0.25390397
v -1.3856603e-5 -5.1284697e-2 -0.20369176
v -1.8100288e-2 4.4021052e-2 -0.25390397
v -1.9597063e-2 4.7621102e-2 -0.20369177
v -1.3856603e-5 5.1689034e-2 -0.20369176
v -1.3856603e-5 4.7780056e-2 -0.25390397
v -4.6147428e-2 -1.8927280e-2 -0.17886782
v -3.5423774e-2 -3.5253044e-2 -0.17886782
v -4.1401914e-2 -1.6957818e-2 -0.16821257
v -3.1783878e-2 -3.1600388e-2 -0.16821257
v -4.4954805e-2 1.9703337e-4 -0.16821257
v -5.0108727e-2 1.9955031e-4 -0.17886782
v -4.6147428e-2 1.9326371e-2 -0.17886782
v -4.1401914e-2 1.7351857e-2 -0.16821257
v -3.1783878e-2 3.1994427e-2 -0.16821257
v -3.5423774e-2 3.5652154e-2 -0.17886782
v -1.4265122e-2 -3.4265732e-2 -0.16050641
v -2.6449309e-2 -2.6262500e-2 -0.16050641
v -1.7141298e-2 -4.1218434e-2 -0.16821257
v -1.3856603e-5 -4.4771334e-2 -0.16821257
v -1.3856603e-5 -3.7222110e-2 -0.16050641
v -1.4265122e-2 3.4658434e-2 -0.16050641
v -1.3856603e-5 3.7614803e-2 -0.16050641
v -1.7141307e-2 4.1612500e-2 -0.16821257
v -1.3856603e-5 4.5165373e-2 -0.16821257
v -2.6449309e-2 2.6655193e-2 -0.16050641
v -3.4452541e-2 -1.4078313e-2 -0.16050641
v -3.7408918e-2 1.9633269e-4 -0.16050641
v -3.4452541e-2 1.4471006e-2 -0.16050641
v -1.9098009e-2 -4.5976689e-2 -0.17886782
v -1.3856603e-5 -4.9937979e-2 -0.17886778
v -1.9098009e-2 4.6375790e-2 -0.17886782
v -1.3856603e-5 5.0337107e-2 -0.17886778
v 2.3725993e-2 -5.7311267e-2 -0.37745793
v 4.4054029e-2 -4.3958714e-2 -0.37745793
v 3.9080359e-2 -3.8971694e-2 -0.33654335
v 2.1042606e-2 -5.0819875e-2 -0.33654335
v 2.4102252e-2 -5.8237638e-2 -0.43068950
v 4.4751423e-2 -4.4674133e-2 -0.43068950
v 2.3725984e-2 5.7681436e-2 -0.37745793
v 2.1042597e-2 5.1217039e-2 -0.33654335
v 3.9080349e-2 3.9368877e-2 -0.33654335
v 4.4054029e-2 4.4328893e-2 -0.37745793
v 2.4102233e-2 5.8571796e-2 -0.43068950
v 4.4751423e-2 4.5008282e-2 -0.43068950
v 4.7742567e-2 -2.2840351e-2 -0.58994304
v 4.1196863e-2 -4.1977682e-2 -0.58993956
v 3.6880934e-2 -3.7681409e-2 -0.59684377
v 4.2231139e-2 -2.3237262e-2 -0.59924372
v 4.8807241e-2 -2.3371203e-2 -0.57810288
v 4.1945970e-2 -4.3472162e-2 -0.57810201
v 4.8132702e-2 9.5802728e-5 -0.58994537
v 4.9377239e-2 2.7931785e-4 -0.57810352
v 4.2990277e-2 -7.6722688e-5 -0.59922248
v 4.4113753e-2 -1.8107099e-2 -0.32139078
v 3.3848108e-2 -3.3735599e-2 -0.32139078
v 5.0928521e-2 -2.0933942e-2 -0.33654335
v 4.1560860e-2 -1.7049635e-2 -0.30210055
v 3.1887976e-2 -3.1775698e-2 -0.30210055
v 4.7905864e-2 2.0284169e-4 -0.32139078
v 4.5134007e-2 2.0303530e-4 -0.30210055
v 5.5305225e-2 1.9860070e-4 -0.33654335
v 4.7471798e-2 2.3232380e-2 -0.58994304
v 4.1949482e-2 2.3393547e-2 -0.59924372
v 4.8615059e-2 2.3954206e-2 -0.57810288
v 4.0755495e-2 4.2580074e-2 -0.58993956
v 4.1604865e-2 4.4037952e-2 -0.57810201
v 3.6513599e-2 3.8068423e-2 -0.59684377
v 4.4113762e-2 1.8512755e-2 -0.32139078
v 5.0928530e-2 2.1331143e-2 -0.33654335
v 4.1560860e-2 1.7455697e-2 -0.30210055
v 3.3848108e-2 3.4141245e-2 -0.32139078
v 3.1887976e-2 3.2181759e-2 -0.30210055
v 2.4341315e-2 -5.8516160e-2 -0.56751931
v 4.3794720e-2 -4.4843477e-2 -0.56751931
v 4.5412252e-2 -4.5639751e-2 -0.52938816
v 2.4647570e-2 -5.9502754e-2 -0.52938816
v 2.3834304e-2 -5.6498222e-2 -0.57810176
v 5.9247808e-2 -2.4429866e-2 -0.48535850
v 4.5467662e-2 -4.5408875e-2 -0.48535850
v 5.8302048e-2 -2.4543746e-2 -0.52938816
v 5.8314928e-2 -2.4024943e-2 -0.43068950
v 6.4338170e-2 1.4857543e-4 -0.48535850
v 6.3325255e-2 1.6708828e-4 -0.43068950
v 6.2771990e-2 1.6610179e-4 -0.52938816
v 5.9247817e-2 2.4727017e-2 -0.48535850
v 5.8277156e-2 2.4870842e-2 -0.52938816
v 5.8314928e-2 2.4359120e-2 -0.43068950
v 4.5467662e-2 4.5706035e-2 -0.48535850
v 4.5366099e-2 4.5952861e-2 -0.52938816
v 1.8219617e-2 -4.4001253e-2 -0.32139078
v 1.7161923e-2 -4.1448572e-2 -0.30210055
v 1.8219608e-2 4.4406900e-2 -0.32139078
v 1.7161923e-2 4.1854624e-2 -0.30210055
v 4.3727140e-2 -1.7946993e-2 -0.25390397
v 3.3551146e-2 -3.3438997e-2 -0.25390397
v 4.7333284e-2 -1.9439416e-2 -0.20369177
v 3.6321040e-2 -3.6204548e-2 -0.20369178
v 4.7486135e-2 2.0304452e-4 -0.25390397
v 5.1401198e-2 2.0215022e-4 -0.20369178
v 4.3727149e-2 1.8353054e-2 -0.25390397
v 4.7333293e-2 1.9843744e-2 -0.20369177
v 3.3551155e-2 3.3845058e-2 -0.25390397
v 3.6321049e-2 3.6608839e-2 -0.20369178
v 2.4123651e-2 -2.5326928e-2 -0.60220892
v 2.3368404e-2 -4.5039549e-2 -0.59923792
v 2.4652945e-2 -2.0363587e-5 -0.60211239
v 2.3952480e-2 2.5439900e-2 -0.60220892
v 2.3051528e-2 4.5385776e-2 -0.59923792
v 2.2979366e-2 5.4149372e-2 -0.58993840
v 2.3430848e-2 5.6914978e-2 -0.57810176
v 2.4488662e-2 -5.9189031e-2 -0.48535850
v 2.4488643e-2 5.9486172e-2 -0.48535850
v 2.4587449e-2 5.9794594e-2 -0.52938816
v 5.7406581e-2 -2.3630669e-2 -0.37745793
v 6.2338985e-2 1.8509406e-4 -0.37745793
v 5.7406581e-2 2.4000876e-2 -0.37745793
v 5.3574457e-2 -2.4064928e-2 -0.56751931
v 5.6021021e-2 2.5620444e-4 -0.56751931
v 5.3474877e-2 2.4556805e-2 -0.56751931
v 4.3610117e-2 4.5279465e-2 -0.56751931
v 2.3390982e-2 -5.3718012e-2 -0.58993840
v 2.4100869e-2 5.8867153e-2 -0.56751931
v 1.8059142e-2 -4.3614982e-2 -0.25390397
v 1.9555926e-2 -4.7216783e-2 -0.20369177
v 1.8059142e-2 4.4021052e-2 -0.25390397
v 1.9555926e-2 4.7621102e-2 -0.20369177
v 4.6106282e-2 -1.8927280e-2 -0.17886782
v 3.5382637e-2 -3.5253044e-2 -0.17886782
v 4.1360768e-2 -1.6957818e-2 -0.16821257
v 3.1742732e-2 -3.1600388e-2 -0.16821257
v 5.0067581e-2 1.9955031e-4 -0.17886782
v 4.4913659e-2 1.9703337e-4 -0.16821257
v 4.6106291e-2 1.9326371e-2 -0.17886782
v 4.1360777e-2 1.7351857e-2 -0.16821257
v 3.5382637e-2 3.5652154e-2 -0.17886782
v 3.1742741e-2 3.1994427e-2 -0.16821257
v 1.4223985e-2 -3.4265732e-2 -0.16050641
v 2.6408172e-2 -2.6262500e-2 -0.16050641
v 1.7100161e-2 -4.1218434e-2 -0.16821257
v 1.4223985e-2 3.4658434e-2 -0.16050641
v 1.7100161e-2 4.1612500e-2 -0.16821257
v 2.6408172e-2 2.6655193e-2 -0.16050641
v 3.4411404e-2 -1.4078313e-2 -0.16050641
v 3.7367781e-2 1.9633269e-4 -0.16050641
v 3.4411404e-2 1.4471006e-2 -0.16050641
v 1.9056872e-2 -4.5976689e-2 -0.17886782
v 1.9056872e-2 4.6375790e-2 -0.17886782
v 1.2932716e-2 3.3750672e-3 1.2999286e-2
v 1.3800087e-2 2.2347272e-3 1.2999286e-2
v 1.4288586e-2 4.8019514e-5 1.2999286e-2
v 1.3208236e-2 -2.5108259e-3 1.2999286e-2
v 1.0723599e-2 -5.3161438e-3 1.2999286e-2
v 1.1780927e-2 5.0020367e-3 1.2999286e-2
v 1.0914361e-2 6.1412885e-3 1.2999286e-2
v 8.5978691e-3 7.5416080e-3 1.2999286e-2
v 5.6961388e-3 7.3424955e-3 1.2999286e-2
v 8.7266946e-3 -7.5491750e-3 1.2999286e-2
v 6.2447482e-3 -1.0351444e-2 1.2999286e-2
v 4.4949738e-3 -1.1463046e-2 1.2999286e-2
v 3.1679847e-3 -1.1922100e-2 1.2999286e-2
v -1.2973853e-2 3.3750672e-3 1.2999286e-2
v -1.3841228e-2 2.2347272e-3 1.2999286e-2
v -1.4329732e-2 4.8019514e-5 1.2999286e-2
v -1.3249377e-2 -2.5108259e-3 1.2999286e-2
v -1.0764741e-2 -5.3161438e-3 1.2999286e-2
v -1.1822064e-2 5.0020367e-3 1.2999286e-2
v 2.8548167e-3 7.2071227e-3 1.2999286e-2
v -1.3856603e-5 7.0082206e-3 1.2999286e-2
v -1.0955498e-2 6.1412885e-3 1.2999286e-2
v -8.6390060e-3 7.5416080e-3 1.2999286e-2
v -5.7372757e-3 7.3424955e-3 1.2999286e-2
v -2.8892367e-3 7.2071227e-3 1.2999286e-2
v 1.1958388e-3 -1.2226353e-2 1.2999286e-2
v -1.3856603e-5 -1.2684966e-2 1.2999286e-2
v -8.7678361e-3 -7.5491750e-3 1.2999286e-2
v -6.2858897e-3 -1.0351444e-2 1.2999286e-2
v -4.5361153e-3 -1.1463046e-2 1.2999286e-2
v -1.2302574e-3 -1.2226353e-2 1.2999286e-2
v -3.2091215e-3 -1.1922100e-2 1.2999286e-2
v -7.1967361e-3 -5.3259137e-3 1.4151631e-2
v -1.6584967e-5 -9.4586075e-3 1.4362570e-2
v 1.2777668e-3 -9.0083583e-3 1.4285337e-2
v 2.5793662e-3 4.6568367e-3 1.4290380e-2
v -8.7751239e-3 2.7306247e-3 1.4156093e-2
v -7.9013556e-3 -4.9017008e-3 1.4101058e-2
v -1.1075685e-2 -1.6916907e-3 1.3992446e-2
v -1.1180250e-2 -6.1253878e-4 1.3870480e-2
v 7.1560138e-3 -5.3259137e-3 1.4191373e-2
v 8.7344032e-3 2.7306247e-3 1.4195835e-2
v 7.4219250e-3 -5.0592471e-3 1.4179885e-2
v 1.0011287e-2 -2.0592987e-3 1.4130956e-2
v 9.9696159e-3 -1.0326622e-3 1.4069331e-2
v 9.3232170e-3 2.0471492e-3 1.4182493e-2
v 1.0382564e-2 4.8752086e-4 1.4131964e-2
v 7.0583475e-3 3.8652316e-3 1.4200543e-2
v 6.3230222e-3 4.4395857e-3 1.4200315e-2
v 3.3983030e-3 4.6079166e-3 1.4217187e-2
v 4.5235700e-3 -7.9783755e-3 1.4194246e-2
v 4.0379406e-3 -8.1545841e-3 1.4193551e-2
v 2.1154530e-3 -9.2323052e-3 1.4211265e-2
v -9.8026450e-3 2.2046955e-3 1.4103665e-2
v -1.1446962e-2 8.5512884e-4 1.3993454e-2
v -1.6584509e-5 4.3995543e-3 1.4366955e-2
v -7.0988857e-3 3.8652316e-3 1.4200543e-2
v -6.3625643e-3 4.4395857e-3 1.4200315e-2
v -3.4361625e-3 4.6079166e-3 1.4217187e-2
v -2.6176601e-3 4.6568367e-3 1.4290380e-2
v -4.5641098e-3 -7.9783755e-3 1.4194246e-2
v -4.0774853e-3 -8.1545841e-3 1.4193551e-2
v -1.3160608e-3 -9.0083583e-3 1.4285337e-2
v -2.1533130e-3 -9.2323052e-3 1.4211265e-2
vt 1.4010000e-2 -0.10607700
vt 1.4647000e-2 -0.11558200
vt 1.5256000e-2 -0.12517600
vt 1.6605000e-2 -0.14490800
vt 1.7591000e-2 -0.16219300
vt 1.7948000e-2 -0.17938800
vt 1.8112000e-2 -0.19898900
vt 1.8241000e-2 -0.20832800
vt 1.8307000e-2 -0.21748100
vt 1.9008000e-2 -0.24299600
vt 2.0000000e-2 0.95998400
vt 2.6020000e-2 0.91589900
vt 2.9714000e-2 0.87473100
vt 3.2074000e-2 0.83529600
vt 3.4649000e-2 0.79117300
vt 3.9094000e-2 0.74745100
vt 4.2402000e-2 0.70918900
vt 4.3024000e-2 0.96469200
vt 4.3170000e-2 0.29952100
vt 4.3895000e-2 0.66959200
vt 4.4981000e-2 0.62607000
vt 4.6232000e-2 0.58264900
vt 4.6347000e-2 0.46368600
vt 4.6409000e-2 0.34361900
vt 4.6505000e-2 0.42119700
vt 4.7283000e-2 0.50605900
vt 4.7580000e-2 0.54347500
vt 4.7632000e-2 0.38352100
vt 4.8262000e-2 0.91988800
vt 5.1560000e-2 0.87776200
vt 5.3734000e-2 0.83718900
vt 5.5911000e-2 0.79249500
vt 5.8659000e-2 -0.52782300
vt 5.9547000e-2 -0.47771600
vt 5.9771000e-2 -0.50016800
vt 6.0143000e-2 -0.43128400
vt 6.0354000e-2 0.74847500
vt 6.0381000e-2 -0.45747400
vt 6.1404000e-2 -0.40240300
vt 6.1509000e-2 -0.37340700
vt 6.2982000e-2 -0.34727900
vt 6.3102000e-2 -0.32700500
vt 6.3595000e-2 0.70942300
vt 6.4378000e-2 -0.30461000
vt 6.4562000e-2 -0.27691900
vt 6.5264000e-2 0.66923500
vt 6.5337000e-2 0.29652200
vt 6.6347000e-2 0.96846400
vt 6.6621000e-2 0.62663800
vt 6.7228000e-2 0.46376000
vt 6.7526000e-2 0.58426300
vt 6.7810000e-2 0.42084500
vt 6.8088000e-2 0.34146000
vt 6.8344000e-2 0.50655400
vt 6.8661000e-2 0.54468600
vt 6.8749000e-2 0.38219900
vt 7.0022000e-2 0.92290500
vt 7.2939000e-2 0.87940900
vt 7.5826000e-2 0.83786300
vt 7.8419000e-2 0.79383500
vt 8.0987000e-2 0.75038300
vt 8.2515000e-2 0.71040900
vt 8.3769000e-2 0.66930300
vt 8.5005000e-2 0.62697800
vt 8.5147000e-2 0.29447600
vt 8.5994000e-2 0.58490400
vt 8.6862000e-2 0.34000700
vt 8.7367000e-2 0.54449500
vt 8.7795000e-2 0.38214400
vt 8.8445000e-2 0.50551600
vt 8.8592000e-2 0.42167500
vt 8.8880000e-2 0.46359000
vt 8.9507000e-2 -0.68987300
vt 8.9782000e-2 -0.65641500
vt 8.9785000e-2 -0.72339200
vt 9.0638000e-2 -0.62071900
vt 9.0644000e-2 -0.75903700
vt 9.2218000e-2 -0.58501800
vt 9.2227000e-2 -0.79464200
vt 0.14095300 0.97724000
vt 0.14336100 0.93037700
vt 0.14508700 0.88503200
vt 0.14708300 0.84128400
vt 0.14871000 0.79727900
vt 0.14959000 0.75268000
vt 0.15031400 0.71117000
vt 0.15107100 0.66953300
vt 0.15198400 0.62776900
vt 0.15311300 0.58619800
vt 0.15345200 0.29488300
vt 0.15420000 0.33955800
vt 0.15463600 0.54504700
vt 0.15482800 0.38244900
vt 0.15638800 0.50476800
vt 0.15776900 0.46403900
vt 0.15781100 0.42311800
vt 0.22774200 0.88727400
vt 0.22793900 0.93323900
vt 0.22810700 0.84200700
vt 0.22820100 0.98000000
vt 0.22834200 0.79751100
vt 0.22853700 0.75393900
vt 0.22894600 0.71106200
vt 0.22926000 0.66968000
vt 0.22987500 0.62875100
vt 0.23100800 0.58817300
vt 0.23268300 0.54777500
vt 0.23480500 0.50729700
vt 0.23687400 0.46636600
vt 0.23844600 0.42498700
vt 0.23884100 0.38379600
vt 0.24082200 0.34053200
vt 0.24305900 0.29636400
vt 0.32686200 0.71205800
vt 0.32686500 0.67105600
vt 0.32710100 0.75456300
vt 0.32729600 0.63086900
vt 0.32749200 0.79741100
vt 0.32832800 0.84093200
vt 0.32845700 0.59112300
vt 0.32972400 0.88505500
vt 0.33038400 0.55140200
vt 0.33214300 0.93000400
vt 0.33281600 0.51153500
vt 0.33537000 0.97585000
vt 0.33577900 0.47137300
vt 0.33916800 0.43091000
vt 0.34327300 0.39027300
vt 0.34831100 0.34776900
vt 0.34931513 -0.53843612
vt 0.34968983 -0.51963029
vt 0.34997366 -0.50580040
vt 0.35013634 -0.49458218
vt 0.35022541 -0.48754678
vt 0.35036888 -0.47740933
vt 0.35046537 -0.47011619
vt 0.35061913 -0.45703626
vt 0.35094131 -0.44288675
vt 0.35129624 -0.42842432
vt 0.35167315 -0.41380531
vt 0.35198721 -0.39915046
vt 0.35231581 -0.38465218
vt 0.35266129 -0.37050479
vt 0.35312482 -0.35743442
vt 0.35337159 -0.35014896
vt 0.35370540 -0.34001702
vt 0.35388700 0.30425700
vt 0.35394639 -0.33298830
vt 0.35430985 -0.32177700
vt 0.35467364 -0.30795049
vt 0.35518013 -0.28914879
vt 0.42237800 0.67135600
vt 0.42251400 0.71050100
vt 0.42268600 0.63273100
vt 0.42323300 0.75150600
vt 0.42389700 0.59435900
vt 0.42416800 0.79252000
vt 0.42587600 0.83374300
vt 0.42603500 0.55593400
vt 0.42836800 0.87585900
vt 0.42903500 0.51764200
vt 0.43275300 0.91907400
vt 0.43281600 0.47930100
vt 0.43753600 0.44045100
vt 0.43951900 0.96334600
vt 0.44349300 0.40098300
vt 0.45144400 0.36107700
vt 0.46128200 0.31887100
vt 0.49464579 -0.54374277
vt 0.49520785 -0.51553386
vt 0.49534970 -0.50862193
vt 0.49543101 -0.50301526
vt 0.49556462 -0.49246217
vt 0.49563632 -0.48739580
vt 0.49578114 -0.47644921
vt 0.49585798 -0.46991246
vt 0.49634126 -0.44868815
vt 0.49651865 -0.44145978
vt 0.49708438 -0.41951734
vt 0.49725300 0.67124500
vt 0.49743000 0.70875500
vt 0.49753500 0.63419000
vt 0.49755578 -0.39752109
vt 0.49772001 -0.39027480
vt 0.49817700 0.74746300
vt 0.49823823 -0.36905368
vt 0.49846988 -0.36252171
vt 0.49884027 -0.35158665
vt 0.49885100 0.59738400
vt 0.49900709 -0.34652303
vt 0.49936859 -0.33597996
vt 0.49950200 0.78632000
vt 0.49955024 -0.33037675
vt 0.49973206 -0.32346651
vt 0.50049179 -0.29526379
vt 0.50120100 0.56055700
vt 0.50188600 0.82518700
vt 0.50482500 0.52383300
vt 0.50500000 0.86393900
vt 0.50932400 0.48717100
vt 0.51010800 0.90269200
vt 0.51038500 -0.88799100
vt 0.51042000 -0.87695000
vt 0.51042300 -0.89904900
vt 0.51047000 -0.86509900
vt 0.51047300 -0.91098200
vt 0.51071400 -0.83207800
vt 0.51498200 0.45067200
vt 0.51879000 0.94162000
vt 0.52185200 0.41429100
vt 0.52774400 0.67118500
vt 0.52793700 0.70798600
vt 0.52803100 0.74584300
vt 0.52821400 0.63481500
vt 0.52978100 0.59874000
vt 0.52978400 0.78363700
vt 0.53128700 0.37821800
vt 0.53249000 0.56269200
vt 0.53293300 0.82106700
vt 0.53664800 0.52676400
vt 0.53701000 0.85798400
vt 0.54199000 0.49099700
vt 0.54249300 0.89411200
vt 0.54386300 0.34051100
vt 0.54480600 -0.82173800
vt 0.54740900 -0.85080900
vt 0.54853000 -0.87094000
vt 0.54873300 0.45558400
vt 0.55039000 0.92878200
vt 0.55045600 -0.89030200
vt 0.55156400 -0.90974400
vt 0.55358800 -0.92985600
vt 0.55553200 -0.95894100
vt 0.55658800 0.42069400
vt 0.56203900 0.67124800
vt 0.56236100 0.70715600
vt 0.56239000 0.74408100
vt 0.56276500 0.63570600
vt 0.56466100 0.60046500
vt 0.56485800 0.78052900
vt 0.56504300 0.38644700
vt 0.56786800 0.56530800
vt 0.56889700 0.81647500
vt 0.57258000 0.53033300
vt 0.57401200 0.85172600
vt 0.57563300 -0.65168400
vt 0.57563500 -0.69863900
vt 0.57645100 -0.67509800
vt 0.57688200 0.35255500
vt 0.57719700 -0.62731300
vt 0.57720300 -0.72291600
vt 0.57756500 -0.59211800
vt 0.57757300 -0.75808700
vt 0.57883400 0.49560800
vt 0.57986400 0.88598700
vt 0.58577000 0.91904800
vt 0.58664800 0.46131000
vt 0.59593100 0.42768800
vt 0.60657300 0.39547400
vt 0.61575400 0.36340700
vt 0.63991000 -0.54904700
vt 0.64059900 -0.51144100
vt 0.64076900 -0.49737300
vt 0.64095400 -0.48277600
vt 0.64162700 -0.45448500
vt 0.64241000 -0.42522600
vt 0.64301000 -0.39589300
vt 0.64367200 -0.36760400
vt 0.64417400 -0.35302300
vt 0.64466400 -0.33896900
vt 0.64573700 -0.30137600
vt 0.64644400 0.67161300
vt 0.64706800 0.70549400
vt 0.64725100 0.63791800
vt 0.64859200 0.73976500
vt 0.64943300 0.60434500
vt 0.65208400 0.77374000
vt 0.65317900 0.57078800
vt 0.65718200 0.80753100
vt 0.65856100 0.53743600
vt 0.65906600 -0.52151400
vt 0.65923600 -0.57476200
vt 0.65973800 -0.46807100
vt 0.66000600 -0.62471300
vt 0.66098100 -0.41792200
vt 0.66126500 -0.67457200
vt 0.66271100 -0.36776900
vt 0.66285900 -0.72435800
vt 0.66352000 0.84123400
vt 0.66472300 -0.77407900
vt 0.66477500 -0.31762300
vt 0.66573200 0.50430000
vt 0.66711000 -0.26749000
vt 0.67031900 0.87503400
vt 0.67459300 0.47131300
vt 0.67593500 0.90921200
vt 0.68521500 0.43838800
vt 0.69899800 0.40550900
vt 0.70626300 0.37171500
vt 0.73067500 0.23710200
vt 0.73403300 0.67168000
vt 0.73469300 0.64081300
vt 0.73500900 0.70262000
vt 0.73699700 0.60996000
vt 0.73771900 0.73348800
vt 0.74104400 0.57900700
vt 0.74225800 0.76433900
vt 0.74234800 0.28739300
vt 0.74694200 0.54810500
vt 0.74790800 0.19410100
vt 0.74848100 0.79543800
vt 0.75336200 0.23477400
vt 0.75472300 0.51722600
vt 0.75612600 0.82715100
vt 0.75827500 0.20627200
vt 0.76153784 -0.82038286
vt 0.76263267 -0.83493206
vt 0.76400001 -0.85311279
vt 0.76427300 0.48625800
vt 0.76445400 0.27804500
vt 0.76466600 0.85994800
vt 0.76476656 -0.86318055
vt 0.76529143 -0.87000101
vt 0.76604887 -0.87969224
vt 0.76653672 -0.88598020
vt 0.76703392 -0.89229308
vt 0.76779444 -0.90201609
vt 0.76833606 -0.90883601
vt 0.76914300 -0.91890249
vt 0.77061813 -0.93708133
vt 0.77090800 0.17434000
vt 0.77179829 -0.95162923
vt 0.77273900 0.89451800
vt 0.77535400 0.45497700
vt 0.77573900 0.33056400
vt 0.77674900 0.67142100
vt 0.77712900 0.64266400
vt 0.77799300 0.70018800
vt 0.77860400 0.19088300
vt 0.77946700 0.61391000
vt 0.78117700 0.72888800
vt 0.78357300 0.58506400
vt 0.78552800 0.22198700
vt 0.78600300 0.75769100
vt 0.78686900 0.42266600
vt 0.78919900 0.31614000
vt 0.78977700 0.55628100
vt 0.79245500 0.78689700
vt 0.79725900 0.67119700
vt 0.79737200 0.64364000
vt 0.79780000 0.52745100
vt 0.79784400 0.38910100
vt 0.79871600 0.69876400
vt 0.79904000 0.26257500
vt 0.79970900 0.61611800
vt 0.80042700 0.81682300
vt 0.80218400 0.72627900
vt 0.80384100 0.58854800
vt 0.80429100 0.15559200
vt 0.80697900 0.75392800
vt 0.80747900 0.35404200
vt 0.80769300 0.49844800
vt 0.81015900 0.84778700
vt 0.81028300 0.56109900
vt 0.81101800 0.33564400
vt 0.81211700 0.17216700
vt 0.81328900 0.78181300
vt 0.81596600 -0.12043300
vt 0.81642600 0.64460400
vt 0.81646900 0.67085300
vt 0.81806200 0.69721700
vt 0.81846400 0.53359400
vt 0.81864900 0.61846000
vt 0.81889400 0.46876200
vt 0.81897900 -0.16323500
vt 0.81933000 0.30149100
vt 0.82094700 0.81017600
vt 0.82157700 0.72362100
vt 0.82203400 0.88001400
vt 0.82273600 0.59230400
vt 0.82500200 0.20167300
vt 0.82617300 0.75016500
vt 0.82659000 -7.9377000e-2
vt 0.82823400 -0.12233100
vt 0.82855700 0.50599200
vt 0.82916900 0.56628500
vt 0.83101400 -0.15892300
vt 0.83106600 0.83879000
vt 0.83149400 0.43818500
vt 0.83215800 0.77671000
vt 0.83413900 -0.20118000
vt 0.83548800 0.64547300
vt 0.83555400 0.67029600
vt 0.83637600 0.33137600
vt 0.83715900 0.69539200
vt 0.83718800 -8.7313000e-2
vt 0.83730000 0.54018700
vt 0.83755100 0.62089300
vt 0.83908800 -0.12409500
vt 0.83912900 0.80315500
vt 0.83982500 0.47798300
vt 0.84055300 0.72072100
vt 0.84056900 0.13734200
vt 0.84147200 0.59634000
vt 0.84188400 -0.15512600
vt 0.84195900 0.24138100
vt 0.84259300 0.35287800
vt 0.84413000 -0.19145200
vt 0.84498300 0.74628200
vt 0.84539300 0.86653800
vt 0.84651200 -9.4312000e-2
vt 0.84668100 0.40691500
vt 0.84730500 0.51409700
vt 0.84762700 0.57180600
vt 0.84791600 0.15430600
vt 0.84862900 0.82866000
vt 0.84947500 -4.7380000e-2
vt 0.85066200 0.77169300
vt 0.85113900 -0.12576700
vt 0.85321100 -0.18267000
vt 0.85354600 0.44966800
vt 0.85387300 -0.15071700
vt 0.85549200 0.54704700
vt 0.85666100 -6.0095000e-2
vt 0.85686700 -0.10177500
vt 0.85711300 0.79632000
vt 0.85869900 0.48828300
vt 0.85890900 0.28223000
vt 0.85893000 -0.22956500
vt 0.86261400 0.85133400
vt 0.86302100 -7.1232000e-2
vt 0.86329100 -0.17285100
vt 0.86381800 -0.12725700
vt 0.86482200 0.18096800
vt 0.86518400 0.52223300
vt 0.86542400 0.81860800
vt 0.86549700 -0.21585100
vt 0.86636300 -0.14584000
vt 0.86776600 -0.10950600
vt 0.86990570 -0.81970527
vt 0.87014500 -8.3373000e-2
vt 0.87045299 -0.82697821
vt 0.87109600 0.42251700
vt 0.87146100 -0.20334100
vt 0.87187800 0.46229800
vt 0.87189100 0.31454200
vt 0.87250532 -0.85426692
vt 0.87288859 -0.85930069
vt 0.87366000 0.14620200
vt 0.87367590 -0.86953150
vt 0.87381000 -0.16244500
vt 0.87405461 -0.87437706
vt 0.87478686 -0.88381510
vt 0.87509700 -0.13007200
vt 0.87553314 -0.89329055
vt 0.87591340 -0.89815200
vt 0.87663600 0.49797600
vt 0.87672584 -0.90838199
vt 0.87684800 -0.11852200
vt 0.87692000 0.83657300
vt 0.87712930 -0.91341513
vt 0.87759400 -9.6240000e-2
vt 0.87759800 -0.14247700
vt 0.87816100 -0.18954300
vt 0.87817500 0.12710300
vt 0.87934342 -0.94070099
vt 0.87941800 0.33502000
vt 0.87993337 -0.94797328
vt 0.88050300 -3.0178000e-2
vt 0.88258700 -0.10982500
vt 0.88284900 -0.15317100
vt 0.88318300 -4.5638000e-2
vt 0.88424600 0.21835100
vt 0.88523900 -0.17514000
vt 0.88566300 -5.9430000e-2
vt 0.88847100 -7.4483000e-2
vt 0.88871200 0.47456700
vt 0.88930200 0.43995800
vt 0.89011800 -0.24493900
vt 0.89050100 -0.16185100
vt 0.89125100 -9.0387000e-2
vt 0.89140600 -0.10581700
vt 0.89226800 -0.22922200
vt 0.89413800 -0.21504900
vt 0.89555300 0.16260400
vt 0.89643200 -0.19938000
vt 0.89724700 0.25915100
vt 0.89904700 -0.18296500
vt 0.90023100 -0.16809900
vt 0.90157200 -0.10651800
vt 0.90551400 0.29181100
vt 0.90556300 0.45677000
vt 0.90585800 -9.1616000e-2
vt 0.90810700 -7.5216000e-2
vt 0.91008500 -5.9650000e-2
vt 0.91030200 0.14264700
vt 0.91036100 -0.16987300
vt 0.91151000 -0.11203600
vt 0.91195000 -4.5441000e-2
vt 0.91384900 -0.18409200
vt 0.91410100 -2.9714000e-2
vt 0.91425000 0.31083200
vt 0.91617800 -0.20006800
vt 0.91797700 0.19943600
vt 0.91861600 -0.21526300
vt 0.91938400 -9.9413000e-2
vt 0.91944500 -0.16689800
vt 0.92054700 -0.12203200
vt 0.92107400 -0.22901400
vt 0.92375600 -0.24445700
vt 0.92402800 0.27070400
vt 0.92571400 -0.15886800
vt 0.92623700 -8.5029000e-2
vt 0.92640600 -0.13494800
vt 0.92748200 -0.17781700
vt 0.92804600 0.24193100
vt 0.92821000 -0.14755100
vt 0.93044300 -0.11195000
vt 0.93270000 -7.1339000e-2
vt 0.93450100 -0.19095600
vt 0.93690100 -0.16413700
vt 0.93777600 -0.12820800
vt 0.93783400 0.27751700
vt 0.93867400 -5.8798000e-2
vt 0.93984100 0.18872600
vt 0.94043900 -0.14644400
vt 0.94090500 -0.10163300
vt 0.94126500 -0.20336000
vt 0.94524600 -4.5076000e-2
vt 0.94756000 -0.17232600
vt 0.94759700 -0.21448400
vt 0.94963100 0.23635800
vt 0.95026200 -0.12360500
vt 0.95085200 -9.1957000e-2
vt 0.95305600 -0.14836400
vt 0.95478800 -0.22718100
vt 0.95766600 -0.18016100
vt 0.95996500 -8.3144000e-2
vt 0.96214600 -0.11945400
vt 0.96496800 -0.15039000
vt 0.96699700 -0.18718600
vt 0.96742100 -0.53805400
vt 0.96786300 -0.44417400
vt 0.96835400 -0.49109900
vt 0.96864300 -0.58252800
vt 0.96882400 -0.61535800
vt 0.96950500 -0.39942100
vt 0.96996800 -7.3408000e-2
vt 0.96999500 -0.36652300
vt 0.97058800 -0.65196800
vt 0.97182800 -0.69759700
vt 0.97210600 -0.32953300
vt 0.97306200 -0.11564800
vt 0.97377600 -0.28361900
vt 0.97586600 -0.15217300
vt 0.97760800 -0.19510800
vt 0.97822400 -0.81902800
vt 0.98100600 -0.85542100
vt 0.98205800 -0.86906200
vt 0.98303700 -0.88165000
vt 0.98403000 -0.89428800
vt 0.98511100 -0.90792800
vt 0.98511200 -0.11132800
vt 0.98801900 -0.94431900
vt 0.98815000 -0.15406100
vn -9.8880714e-2 -0.23524113 0.96689411
vn -7.7735129e-2 -0.32983061 0.94083421
vn -0.29667120 -0.95477187 1.9921574e-2
vn -0.63095702 -0.77549844 2.2257598e-2
vn 4.6788603e-4 -0.99987298 1.5931420e-2
vn -6.8551227e-2 -0.15395842 0.98569647
vn -8.8726796e-2 0.19258082 0.97726157
vn -5.5416381e-2 0.15926184 0.98567981
vn -3.6629416e-3 0.15514778 0.98788448
vn 5.7409985e-6 0.99850752 5.4614346e-2
vn -0.20854897 0.97707845 4.2720414e-2
vn -0.67681350 0.73591736 1.8684855e-2
vn -0.92244079 -0.38208716 5.5788787e-2
vn -0.81364659 -0.32147321 0.48439054
vn -0.62908744 -0.60704547 0.48553558
vn -0.70599876 -0.70599850 5.5963060e-2
vn -0.84884341 -0.36060615 0.38655928
vn -0.64486602 -0.65778428 0.38918846
vn -0.92259277 -8.9058243e-3 0.38567249
vn -0.99843281 -1.8445043e-7 5.5963666e-2
vn -0.87407327 1.5587705e-2 0.48554397
vn -0.92244054 0.38208774 5.5788929e-2
vn -0.80265240 0.34802025 0.48438728
vn -0.85658832 0.34600298 0.38280332
vn -0.65958424 0.64718080 0.38223767
vn -0.70599853 0.70599868 5.5963623e-2
vn -0.60704645 0.62909025 0.48553070
vn -0.38229888 -0.92235318 5.5786957e-2
vn -0.34481364 -0.85413150 0.38931084
vn -0.34817789 -0.80260538 0.48435189
vn 1.1648587e-4 -0.94010135 0.34089505
vn 1.2438032e-4 -0.99843261 5.5967072e-2
vn 1.1523025e-4 -0.86773693 0.49702376
vn -0.38230208 0.92235176 5.5788427e-2
vn -0.36143415 0.85127758 0.38038380
vn 1.2085530e-4 0.96209979 0.27269758
vn 1.2332083e-4 0.99843247 5.5969474e-2
vn -0.32168625 0.81358388 0.48435445
vn 9.0154592e-5 0.78670508 0.61732901
vn -0.68493638 -0.28347134 0.67119755
vn -0.52198538 -0.52169581 0.67480719
vn -0.70076413 -0.29315919 0.65037475
vn -0.53729604 -0.54048176 0.64745072
vn -0.75104364 -3.1707417e-2 0.65949078
vn -0.74290658 2.6432191e-4 0.66939506
vn -0.68974119 0.28588801 0.66522563
vn -0.71192634 0.23896608 0.66034544
vn -0.54676790 0.50680925 0.66647524
vn -0.52878040 0.52893914 0.66378813
vn -0.28251336 -0.68129138 0.67529864
vn -0.29140990 -0.70797230 0.64331602
vn 1.1901499e-4 -0.73594094 0.67704573
vn 1.5295372e-4 -0.77496038 0.63200980
vn -0.28674311 0.69345867 0.66097917
vn -0.28590423 0.68570384 0.66937958
vn 1.2709829e-4 0.74404111 0.66813383
vn 1.0605163e-4 0.74952808 0.66197255
vn -0.84729471 -0.39831406 0.35133686
vn -0.63761766 -0.68677094 0.34898337
vn -0.81518523 -0.57881017 2.1256220e-2
vn -0.99724140 -7.3273562e-2 1.1856385e-2
vn -0.88654762 -1.6426324e-2 0.46234564
vn -0.31254310 0.86081589 0.40163766
vn -0.68384698 0.67823591 0.26897835
vn 1.7956105e-4 0.85957559 0.51100858
vn -0.35150809 -0.87123968 0.34261274
vn 2.2956715e-4 -0.97092252 0.23939384
vn -0.21298187 -0.15410396 0.96482677
vn -0.23689576 -0.10430445 0.96591976
vn -0.20089458 8.8908316e-2 0.97556993
vn -0.87751739 0.47933159 1.4298910e-2
vn -0.86825309 0.33626202 0.36477996
vn 0.10460245 -0.24830580 0.96301742
vn 0.16312668 -0.33902646 0.92652617
vn 0.32853696 -0.94431633 1.8169913e-2
vn 0.66114472 -0.74990863 2.2906327e-2
vn 5.6918394e-2 0.41839317 0.90648080
vn 0.11562777 0.23569901 0.96492290
vn 0.25032194 0.96740100 3.8395647e-2
vn 0.72620284 0.68725991 1.7414163e-2
vn 0.92244080 -0.38208715 5.5788756e-2
vn 0.70599857 -0.70599864 5.5963765e-2
vn 0.62908744 -0.60704536 0.48553570
vn 0.81364667 -0.32147312 0.48439047
vn 0.84884320 -0.36060635 0.38655954
vn 0.64486629 -0.65778431 0.38918797
vn 0.99843283 -4.6748866e-8 5.5963163e-2
vn 0.92259266 -8.9059617e-3 0.38567275
vn 0.87407285 1.5587480e-2 0.48554472
vn 0.92244062 0.38208752 5.5789175e-2
vn 0.80265225 0.34802005 0.48438767
vn 0.85658841 0.34600299 0.38280311
vn 0.70599869 0.70599851 5.5963839e-2
vn 0.65958429 0.64718067 0.38223781
vn 0.60704645 0.62909025 0.48553070
vn 0.38241294 -0.92230595 5.5786040e-2
vn 0.34492700 -0.85408777 0.38930636
vn 0.34826342 -0.80257336 0.48434346
vn 0.38241694 0.92230420 5.5787511e-2
vn 0.36154270 0.85123466 0.38037669
vn 0.32179696 0.81354330 0.48434907
vn 0.68493686 -0.28347127 0.67119709
vn 0.52198518 -0.52169589 0.67480728
vn 0.70076364 -0.29315946 0.65037516
vn 0.53729602 -0.54048179 0.64745071
vn 0.74290684 2.6446020e-4 0.66939477
vn 0.75104392 -3.1707269e-2 0.65949047
vn 0.68974102 0.28588810 0.66522576
vn 0.71192655 0.23896642 0.66034509
vn 0.52878029 0.52893896 0.66378835
vn 0.54676808 0.50680950 0.66647491
vn 0.28261244 -0.68125772 0.67529114
vn 0.29153345 -0.70792684 0.64331006
vn 0.28685647 0.69341834 0.66097230
vn 0.28604067 0.68565937 0.66936683
vn 0.84729468 -0.39831402 0.35133697
vn 0.63761809 -0.68677068 0.34898311
vn 0.84177143 -0.53950255 1.8917362e-2
vn 0.88654748 -1.6426748e-2 0.46234590
vn 0.99751911 -6.7820765e-2 1.8867396e-2
vn 0.31265511 0.86077720 0.40163341
vn 0.68384704 0.67823596 0.26897808
vn 0.35168646 -0.87117067 0.34260516
vn 0.20732867 -0.18202618 0.96118744
vn 0.27946439 -5.5359121e-2 0.95855883
vn 0.23062032 0.19690303 0.95291315
vn 0.90349176 0.42841979 1.2614047e-2
vn 0.86825321 0.33626185 0.36477984
vn -0.38081394 -0.91983283 9.4277824e-2
vn -0.36199539 -0.88024922 0.30679089
vn -0.67075151 -0.67488037 0.30761811
vn -0.70360664 -0.70427776 9.4501521e-2
vn -0.38285238 -0.92361865 1.8778992e-2
vn -0.70698255 -0.70698203 1.8764094e-2
vn 5.5696478e-5 -0.99982204 1.8864769e-2
vn 5.8288764e-5 -0.99279969 0.11978639
vn 6.2468970e-5 -0.93576670 0.35261973
vn -0.38083778 0.91988491 9.3671433e-2
vn -0.70543108 0.70543271 6.8787194e-2
vn -0.65793745 0.69597734 0.28763495
vn -0.30816895 0.90086443 0.30573709
vn 5.8253720e-5 0.99287770 0.11913805
vn 6.0672855e-5 0.95165560 0.30716708
vn 5.5401437e-5 0.99983457 1.8188862e-2
vn -0.44061400 0.89751365 1.8126099e-2
vn -0.73564200 0.67712384 1.8279968e-2
vn -0.92837294 -0.17495212 -0.32789546
vn -0.58564475 -0.15456750 -0.79569411
vn -0.60220402 -0.39302169 -0.69489874
vn -0.73557853 -0.54282178 -0.40530080
vn -0.94168902 -0.18403107 -0.28169904
vn -0.76603806 -0.60337284 -0.22164590
vn -0.95266331 1.5069007e-2 -0.30365366
vn -0.95261390 4.3635800e-3 -0.30415082
vn -0.57005908 6.7648858e-3 -0.82157585
vn -0.88425673 -0.36320601 0.29354970
vn -0.87833176 -0.36672753 0.30666633
vn -0.67793542 -0.67358709 0.29442148
vn -0.92297113 -0.38200938 4.6830767e-2
vn -0.70653730 -0.70611493 4.6976037e-2
vn -0.99889595 2.9860777e-4 4.6976548e-2
vn -0.95569289 3.0729596e-3 0.29434956
vn -0.95156351 -2.9177156e-3 0.30743841
vn -0.93438201 0.17743100 -0.30894741
vn -0.52300216 0.16654709 -0.83590120
vn -0.95377169 0.19347797 -0.22996919
vn -0.75533402 0.63163484 -0.17466523
vn -0.68882847 0.54657946 -0.47619978
vn -0.40720369 0.34913578 -0.84397237
vn -0.88211473 0.36844686 0.29346297
vn -0.88044860 0.36178491 0.30646688
vn -0.92276070 0.38251783 4.6827263e-2
vn -0.70611495 0.70653772 4.6969447e-2
vn -0.67362509 0.67796723 0.29426124
vn -0.39105260 -0.91307909 -0.11560470
vn -0.38543594 -0.92267821 -1.0201177e-2
vn -0.71998953 -0.69365322 -2.1454380e-2
vn -0.74776009 -0.64965869 -0.13710739
vn -0.38461954 -0.89626857 -0.22084033
vn 5.3146707e-5 -0.97271728 -0.23199374
vn 5.4640971e-5 -0.99594226 -8.9994489e-2
vn 5.4325442e-5 -0.99999309 -3.7169034e-3
vn -0.92594827 -0.37763650 3.2357907e-3
vn -0.93768964 -0.34210838 -6.0827503e-2
vn -0.70793783 -0.70617856 1.1656324e-2
vn -0.92371987 -0.38261701 1.8596440e-2
vn -0.99982840 2.1373192e-7 1.8524845e-2
vn -0.99997242 4.2173582e-3 -6.1131893e-3
vn -0.99533964 1.7781182e-2 -9.4777810e-2
vn -0.92540504 0.37896658 -3.1388848e-3
vn -0.93388831 0.34945060 -7.5742328e-2
vn -0.92372404 0.38261944 1.8337487e-2
vn -0.71080474 0.70335397 7.0584476e-3
vn -0.73112423 0.68147372 -3.2418089e-2
vn -0.36871941 -0.88196182 0.29358021
vn -0.38284855 -0.92262386 4.6820935e-2
vn 7.2794257e-5 -0.96976891 0.24402511
vn 7.6589674e-5 -0.99988779 1.4979894e-2
vn -0.36354725 0.88417406 0.29337626
vn -0.38234377 0.92283330 4.6818135e-2
vn 7.6114818e-5 0.99688221 7.8904099e-2
vn 6.5884804e-5 0.93906195 0.34374795
vn -0.92201986 -0.38197387 -6.3050310e-2
vn -0.70564825 -0.70573451 -6.3240357e-2
vn -0.92383118 -0.38261091 -1.2035376e-2
vn -0.70709288 -0.70701853 -1.2019041e-2
vn -0.99992716 5.2334468e-5 -1.2069600e-2
vn -0.99799795 -6.0796967e-5 -6.3246279e-2
vn -0.92206315 0.38187087 -6.3041159e-2
vn -0.92379482 0.38270056 -1.1975744e-2
vn -0.70701998 0.70709332 -1.1907197e-2
vn -0.70573506 0.70564927 -6.3222885e-2
vn -8.5839648e-2 -7.3513572e-2 -0.99359313
vn -6.5210905e-8 -4.2134148e-2 -0.99911196
vn 1.7600663e-5 -0.44841326 -0.89382635
vn -0.26013843 -0.45262441 -0.85291215
vn -7.6479950e-2 2.1180284e-3 -0.99706887
vn -1.2747615e-6 -1.3408396e-3 -0.99999910
vn -9.9947911e-2 8.7016869e-2 -0.99118035
vn 2.0192758e-6 9.2668075e-2 -0.99569706
vn -0.21995727 0.43207892 -0.87460082
vn 2.1886503e-5 0.54119589 -0.84089655
vn -0.33442539 0.82251747 -0.46002681
vn 4.5275065e-5 0.90211091 -0.43150424
vn -0.31701799 0.92203132 -0.22216625
vn 5.2475057e-5 0.96781609 -0.25165851
vn -0.38291606 -0.92368636 1.3371592e-2
vn 5.4809917e-5 -0.99988373 1.5248501e-2
vn -0.38389025 0.92329949 1.2096782e-2
vn 5.4454812e-5 0.99993955 1.0995310e-2
vn -0.38895169 0.92117630 -1.2280622e-2
vn 5.4534694e-5 0.99987682 -1.5695183e-2
vn -0.91961257 -0.38138860 9.4103452e-2
vn -0.99554654 -4.7327602e-4 9.4270138e-2
vn -0.91996813 0.38059214 9.3852379e-2
vn -0.93537829 -0.25477492 -0.24526965
vn -0.94305145 2.6943000e-2 -0.33155396
vn -0.92011860 0.27060389 -0.28311711
vn -0.75904774 0.63028199 -0.16306790
vn -0.33991418 -0.82121565 -0.45832653
vn 4.5931177e-5 -0.90253362 -0.43061939
vn -0.39324694 0.91261142 -0.11179108
vn 5.4223285e-5 0.98924615 -0.14626025
vn -0.38219825 -0.92192844 -6.3027350e-2
vn -0.38299067 -0.92367587 -1.1875235e-2
vn 7.1959042e-5 -0.99768281 -6.8036744e-2
vn 6.8876802e-5 -0.99994787 1.0210350e-2
vn -0.38228041 0.92189618 -6.3001013e-2
vn -0.38286552 0.92372979 -1.1716002e-2
vn 7.0171509e-5 0.99943210 -3.3696885e-2
vn 7.5195827e-5 0.99829440 -5.8380542e-2
vn -0.89358250 -0.37345563 0.24908072
vn -0.68230361 -0.68701266 0.24995076
vn -0.75408335 -0.31865452 0.57429748
vn -0.57374208 -0.58266377 0.57560660
vn -0.81778728 -6.3216267e-3 0.57548588
vn -0.96828883 -3.3353122e-3 0.24981117
vn -0.89590550 0.36776445 0.24920403
vn -0.75850678 0.30787232 0.57435364
vn -0.58262644 0.57367832 0.57570793
vn -0.68698481 0.68224775 0.25017968
vn -0.24535301 -0.60303198 0.75904831
vn -0.45629962 -0.46274801 0.76003614
vn -0.30797233 -0.75828014 0.57459923
vn 6.5327873e-5 -0.78498778 0.61951124
vn 6.5051129e-5 -0.62715467 0.77889474
vn -0.25312859 0.59981403 0.75904482
vn 5.9724469e-5 0.67190473 0.74063759
vn -0.31866790 0.75376341 0.57470992
vn 6.4102900e-5 0.84745549 0.53086646
vn -0.46274708 0.45629656 0.76003855
vn -0.59988562 -0.25303690 0.75901882
vn -0.64988314 -4.5632657e-3 0.76002045
vn -0.60310548 0.24525771 0.75902071
vn -0.36797183 -0.89574392 0.24947857
vn 6.8947318e-5 -0.94919254 0.31469591
vn -0.37358755 0.89332987 0.24978809
vn 6.8402691e-5 0.98267417 0.18534148
vn 0.38086552 -0.91981152 9.4277428e-2
vn 0.70360666 -0.70427774 9.4501527e-2
vn 0.67075148 -0.67488034 0.30761823
vn 0.36205026 -0.88022730 0.30678902
vn 0.38290331 -0.92359754 1.8778856e-2
vn 0.70698259 -0.70698198 1.8764069e-2
vn 0.38088943 0.91986356 9.3671032e-2
vn 0.30824670 0.90083886 0.30573407
vn 0.65793749 0.69597727 0.28763502
vn 0.70543118 0.70543262 6.8787153e-2
vn 0.44064665 0.89749762 1.8126040e-2
vn 0.73564206 0.67712378 1.8279996e-2
vn 0.92837326 -0.17495230 -0.32789448
vn 0.73557869 -0.54282171 -0.40530061
vn 0.60220467 -0.39302166 -0.69489820
vn 0.58564474 -0.15456752 -0.79569411
vn 0.94168885 -0.18403110 -0.28169962
vn 0.76603808 -0.60337268 -0.22164625
vn 0.95261400 4.3634297e-3 -0.30415050
vn 0.95266326 1.5068752e-2 -0.30365383
vn 0.57005871 6.7646930e-3 -0.82157611
vn 0.88425681 -0.36320596 0.29354954
vn 0.67793539 -0.67358712 0.29442147
vn 0.87833179 -0.36672742 0.30666639
vn 0.92297108 -0.38200952 4.6830692e-2
vn 0.70653729 -0.70611494 4.6976050e-2
vn 0.95569291 3.0728765e-3 0.29434947
vn 0.99889596 2.9869412e-4 4.6976330e-2
vn 0.95156350 -2.9178587e-3 0.30743844
vn 0.93438205 0.17743103 -0.30894727
vn 0.52300163 0.16654723 -0.83590150
vn 0.95377151 0.19347820 -0.22996975
vn 0.68882849 0.54657972 -0.47619945
vn 0.75533403 0.63163481 -0.17466530
vn 0.40720279 0.34913523 -0.84397303
vn 0.88211473 0.36844677 0.29346309
vn 0.88044862 0.36178484 0.30646689
vn 0.92276068 0.38251791 4.6827211e-2
vn 0.67362507 0.67796722 0.29426130
vn 0.70611494 0.70653773 4.6969451e-2
vn 0.39110257 -0.91305791 -0.11560289
vn 0.74776005 -0.64965871 -0.13710748
vn 0.71998953 -0.69365321 -2.1454422e-2
vn 0.38548632 -0.92265716 -1.0201040e-2
vn 0.38466643 -0.89624921 -0.22083725
vn 0.92594829 -0.37763646 3.2358320e-3
vn 0.70793793 -0.70617846 1.1656313e-2
vn 0.93768965 -0.34210835 -6.0827551e-2
vn 0.92371991 -0.38261691 1.8596411e-2
vn 0.99997242 4.2173070e-3 -6.1131243e-3
vn 0.99982840 2.1373192e-7 1.8524845e-2
vn 0.99533964 1.7781172e-2 -9.4777822e-2
vn 0.92540508 0.37896646 -3.1388690e-3
vn 0.93388832 0.34945058 -7.5742343e-2
vn 0.92372408 0.38261934 1.8337515e-2
vn 0.71080472 0.70335399 7.0583946e-3
vn 0.73112420 0.68147375 -3.2418102e-2
vn 0.36878082 -0.88193729 0.29357677
vn 0.38291900 -0.92259468 4.6819910e-2
vn 0.36361497 0.88414689 0.29337420
vn 0.38241469 0.92280391 4.6818170e-2
vn 0.92201981 -0.38197400 -6.3050285e-2
vn 0.70564829 -0.70573448 -6.3240341e-2
vn 0.92383112 -0.38261105 -1.2035316e-2
vn 0.70709298 -0.70701842 -1.2019145e-2
vn 0.99799795 -6.0888159e-5 -6.3246213e-2
vn 0.99992716 5.2258053e-5 -1.2069599e-2
vn 0.92206320 0.38187074 -6.3041135e-2
vn 0.92379484 0.38270051 -1.1975830e-2
vn 0.70573499 0.70564933 -6.3222980e-2
vn 0.70702007 0.70709323 -1.1907173e-2
vn 8.5841086e-2 -7.3513458e-2 -0.99359301
vn 0.26014856 -0.45262295 -0.85290984
vn 7.6478407e-2 2.1179944e-3 -0.99706899
vn 9.9947084e-2 8.7016671e-2 -0.99118045
vn 0.21996790 0.43207760 -0.87459881
vn 0.33445909 0.82250699 -0.46002105
vn 0.31708353 0.92200954 -0.22216311
vn 0.38296637 -0.92366550 1.3371537e-2
vn 0.38394085 0.92327845 1.2096650e-2
vn 0.38900186 0.92115511 -1.2280628e-2
vn 0.91961262 -0.38138849 9.4103446e-2
vn 0.99554655 -4.7322064e-4 9.4270073e-2
vn 0.91996817 0.38059204 9.3852309e-2
vn 0.93537817 -0.25477486 -0.24527014
vn 0.94305135 2.6942704e-2 -0.33155428
vn 0.92011840 0.27060405 -0.28311760
vn 0.75904763 0.63028201 -0.16306834
vn 0.33994870 -0.82120465 -0.45832063
vn 0.39329730 0.91258978 -0.11179055
vn 0.38226777 -0.92189966 -6.3026806e-2
vn 0.38305559 -0.92364896 -1.1874913e-2
vn 0.38234685 0.92186867 -6.3000340e-2
vn 0.38292911 0.92370343 -1.1716239e-2
vn 0.89358256 -0.37345552 0.24908067
vn 0.68230371 -0.68701253 0.24995084
vn 0.75408348 -0.31865449 0.57429732
vn 0.57374218 -0.58266373 0.57560654
vn 0.96828880 -3.3356166e-3 0.24981128
vn 0.81778741 -6.3217662e-3 0.57548570
vn 0.89590554 0.36776439 0.24920398
vn 0.75850685 0.30787212 0.57435365
vn 0.68698482 0.68224773 0.25017970
vn 0.58262639 0.57367840 0.57570789
vn 0.24541011 -0.60301385 0.75904425
vn 0.45629973 -0.46274798 0.76003610
vn 0.30803287 -0.75825846 0.57459539
vn 0.25319026 0.59979309 0.75904081
vn 0.31872924 0.75374075 0.57470562
vn 0.46274708 0.45629656 0.76003855
vn 0.59988567 -0.25303702 0.75901874
vn 0.64988337 -4.5632803e-3 0.76002025
vn 0.60310558 0.24525767 0.75902064
vn 0.36803539 -0.89571820 0.24947717
vn 0.37365158 0.89330391 0.24978517
vn 0.60032547 0.43102226 0.67366842
vn 0.72363790 0.33596765 0.60288799
vn 0.78770354 -7.3407888e-2 0.61166528
vn 0.69420911 -0.44005958 0.56957991
vn 0.58459001 -0.51576621 0.62629046
vn 0.64976797 0.47690256 0.59191682
vn 0.45462600 0.57049934 0.68399247
vn 0.18073815 0.77774749 0.60203203
vn -3.1541984e-2 0.74694734 0.66413461
vn 0.62521347 -0.55641799 0.54727245
vn 0.46835531 -0.61261163 0.63667126
vn 0.35664890 -0.73734691 0.57369077
vn 0.20337572 -0.71482333 0.66907842
vn -0.65522950 0.48092485 0.58256811
vn -0.70874904 0.24498945 0.66155496
vn -0.78720933 -7.6018635e-2 0.61198254
vn -0.68343880 -0.35694497 0.63679015
vn -0.62632724 -0.55740949 0.54498518
vn -0.57674327 0.45831663 0.67624927
vn -2.1399599e-2 0.79113257 0.61127025
vn -6.9174580e-5 0.84543632 0.53407623
vn -0.52818527 0.59040794 0.61027762
vn -0.22953440 0.70221967 0.67394473
vn 4.8366902e-2 0.83255690 0.55182394
vn 2.1298742e-2 0.79113875 0.61126578
vn 0.17623357 -0.75641121 0.62990778
vn 7.5366158e-4 -0.82221260 0.56917999
vn -0.57275110 -0.52662064 0.62819335
vn -0.45651070 -0.58566249 0.66977416
vn -0.38413525 -0.72976533 0.56558170
vn -0.17549496 -0.75659633 0.62989166
vn -0.19954468 -0.80651552 0.55652011
vn -0.30845647 -0.34191978 0.88766292
vn -9.9817234e-3 -0.37055414 0.92875723
vn 8.4141227e-2 -0.36663252 0.92655321
vn 4.2604428e-2 0.46849720 0.88243710
vn -0.21478547 0.30217417 0.92873999
vn -0.30557901 -0.25697706 0.91683383
vn -0.29786144 -7.1543889e-2 0.95192438
vn -0.32232588 -3.3650376e-2 0.94603048
vn 0.31468642 -0.31088478 0.89684063
vn 0.22351904 0.25887033 0.93969431
vn 0.34190300 -0.29133756 0.89343426
vn 0.33635645 -0.15795562 0.92839343
vn 0.35059552 -3.3805763e-2 0.93591664
vn 0.29001470 0.19817667 0.93627853
vn 0.31462301 5.8496986e-2 0.94741251
vn 0.18965856 0.25912202 0.94704034
vn 9.6868951e-2 0.32674358 0.94013565
vn 7.3879811e-2 0.43260503 0.89855143
vn 0.22119184 -0.34638737 0.91164135
vn 0.14145066 -0.36532603 0.92006989
vn 8.4320878e-2 -0.35744629 0.93011942
vn -0.26221651 0.16679501 0.95048510
vn -0.28525972 1.9878246e-2 0.95824410
vn -3.8923576e-2 0.44914108 0.89261260
vn -0.19059632 0.27319303 0.94288844
vn -0.11538016 0.32402173 0.93898740
vn -1.3464112e-2 0.39990471 0.91645782
vn -4.6264185e-2 0.39357818 0.91812627
vn -0.24931721 -0.34060207 0.90654904
vn -0.12302687 -0.36953115 0.92103806
vn -8.3184620e-2 -0.35122985 0.93258668
vn -8.7785159e-2 -0.34535310 0.93435807
g ToolChiselRectangleMetal
usemtl Metal
s 1
f 9/215/9 76/219/76 10/217/10
f 9/573/9 435/465/435 14/572/14
f 9/573/9 464/467/464 435/465/435
f 9/573/9 465/468/465 464/467/464
f 10/574/10 463/470/463 9/573/9
f 11/259/11 75/85/75 13/260/13
f 11/243/11 431/340/431 12/244/12
f 11/243/11 433/339/433 431/340/431
f 12/263/12 68/265/68 67/89/67
f 12/263/12 74/87/74 11/259/11
f 12/244/12 429/342/429 68/245/68
f 12/244/12 430/341/430 429/342/429
f 12/244/12 431/340/431 430/341/430
f 13/242/13 432/338/432 11/243/11
f 14/214/14 15/16/15 9/215/9
f 14/214/14 17/17/17 15/16/15
f 14/214/14 81/216/81 17/17/17
f 14/572/14 435/465/435 81/571/81
f 15/16/15 76/219/76 9/215/9
f 15/279/15 460/196/460 16/280/16
f 15/279/15 461/195/461 460/196/460
f 16/15/16 76/219/76 15/16/15
f 16/15/16 77/13/77 76/219/76
f 16/15/16 78/14/78 77/13/77
f 16/280/16 458/199/458 78/281/78
f 16/280/16 459/198/459 458/199/458
f 16/280/16 460/196/460 459/198/459
f 17/17/17 86/19/86 85/18/85
f 17/17/17 132/22/132 86/19/86
f 17/278/17 457/191/457 15/279/15
f 18/556/18 71/295/71 19/555/19
f 18/556/18 73/293/73 71/295/71
f 18/556/18 129/294/129 73/293/73
f 18/51/18 421/151/421 87/48/87
f 18/51/18 422/152/422 421/151/421
f 18/51/18 426/153/426 422/152/422
f 19/555/19 72/297/72 20/559/20
f 19/52/19 426/153/426 18/51/18
f 20/53/20 424/155/424 19/52/19
f 21/521/21 28/543/28 22/522/22
f 22/522/22 23/491/23 21/521/21
f 23/491/23 24/495/24 21/521/21
f 23/491/23 38/441/38 24/495/24
f 24/495/24 25/517/25 21/521/21
f 24/495/24 26/496/26 25/517/25
f 24/495/24 36/449/36 26/496/26
f 24/495/24 38/441/38 36/449/36
f 25/517/25 27/540/27 21/521/21
f 25/517/25 53/532/53 27/540/27
f 26/496/26 48/515/48 25/517/25
f 26/496/26 49/498/49 48/515/48
f 27/540/27 28/543/28 21/521/21
f 27/540/27 32/549/32 28/543/28
f 27/540/27 54/542/54 32/549/32
f 28/543/28 29/548/29 22/522/22
f 28/543/28 30/553/30 29/548/29
f 28/543/28 32/549/32 30/553/30
f 30/553/30 31/568/31 29/548/29
f 30/553/30 34/567/34 31/568/31
f 32/549/32 33/552/33 30/553/30
f 32/549/32 57/547/57 33/552/33
f 33/552/33 34/567/34 30/553/30
f 33/552/33 43/551/43 34/567/34
f 33/552/33 62/545/62 43/551/43
f 34/567/34 35/577/35 31/568/31
f 34/567/34 42/565/42 35/577/35
f 34/567/34 43/551/43 42/565/42
f 36/449/36 37/456/37 26/496/26
f 36/449/36 40/420/40 37/456/37
f 37/456/37 49/498/49 26/496/26
f 37/456/37 58/476/58 49/498/49
f 38/441/38 39/403/39 36/449/36
f 39/403/39 40/420/40 36/449/36
f 39/403/39 104/399/104 40/420/40
f 39/403/39 106/387/106 104/399/104
f 40/420/40 41/432/41 37/456/37
f 40/420/40 105/417/105 41/432/41
f 41/432/41 58/476/58 37/456/37
f 41/432/41 60/444/60 58/476/58
f 41/432/41 120/434/120 60/444/60
f 42/565/42 46/575/46 35/577/35
f 43/551/43 44/546/44 42/565/42
f 43/551/43 65/539/65 44/546/44
f 44/546/44 45/550/45 42/565/42
f 44/546/44 107/536/107 45/550/45
f 44/546/44 108/531/108 107/536/107
f 45/550/45 46/575/46 42/565/42
f 45/550/45 47/560/47 46/575/46
f 45/550/45 109/541/109 47/560/47
f 48/515/48 53/532/53 25/517/25
f 49/498/49 50/512/50 48/515/48
f 49/498/49 51/500/51 50/512/50
f 49/498/49 58/476/58 51/500/51
f 50/512/50 52/527/52 48/515/48
f 50/512/50 70/519/70 52/527/52
f 51/500/51 66/509/66 50/512/50
f 51/500/51 67/501/67 66/509/66
f 52/527/52 53/532/53 48/515/48
f 52/527/52 55/533/55 53/532/53
f 52/527/52 70/519/70 55/533/55
f 53/532/53 54/542/54 27/540/27
f 53/532/53 55/533/55 54/542/54
f 54/542/54 57/547/57 32/549/32
f 55/533/55 56/538/56 54/542/54
f 55/533/55 80/524/80 56/538/56
f 56/538/56 57/547/57 54/542/54
f 56/538/56 63/534/63 57/547/57
f 56/538/56 71/526/71 63/534/63
f 56/538/56 72/529/72 71/526/71
f 56/538/56 80/524/80 72/529/72
f 57/547/57 62/545/62 33/552/33
f 57/547/57 63/534/63 62/545/62
f 58/476/58 59/486/59 51/500/51
f 58/476/58 60/444/60 59/486/59
f 59/486/59 67/501/67 51/500/51
f 59/486/59 74/492/74 67/501/67
f 60/444/60 61/463/61 59/486/59
f 60/444/60 121/450/121 61/463/61
f 61/463/61 74/492/74 59/486/59
f 61/463/61 75/483/75 74/492/74
f 61/463/61 131/475/131 75/483/75
f 62/545/62 65/539/65 43/551/43
f 63/534/63 64/530/64 62/545/62
f 63/534/63 73/520/73 64/530/64
f 64/530/64 65/539/65 62/545/62
f 64/530/64 122/525/122 65/539/65
f 64/530/64 123/518/123 122/525/122
f 65/539/65 108/531/108 44/546/44
f 65/539/65 122/525/122 108/531/108
f 66/509/66 70/519/70 50/512/50
f 67/89/67 68/265/68 66/91/66
f 67/89/67 74/87/74 12/263/12
f 68/566/68 69/564/69 66/305/66
f 68/57/68 418/162/418 69/56/69
f 68/57/68 419/163/419 418/162/418
f 68/245/68 429/342/429 419/344/419
f 69/564/69 70/303/70 66/305/66
f 69/564/69 80/299/80 70/303/70
f 69/56/69 416/160/416 79/54/79
f 69/56/69 417/161/417 416/160/416
f 69/56/69 418/162/418 417/161/417
f 70/519/70 80/524/80 55/533/55
f 71/295/71 72/297/72 19/555/19
f 71/526/71 73/520/73 63/534/63
f 72/297/72 79/561/79 20/559/20
f 72/297/72 80/299/80 79/561/79
f 73/520/73 123/518/123 64/530/64
f 73/520/73 129/510/129 123/518/123
f 74/87/74 75/85/75 11/259/11
f 75/85/75 83/258/83 13/260/13
f 75/85/75 131/86/131 83/258/83
f 76/576/76 439/480/439 434/478/434
f 76/576/76 462/473/462 10/574/10
f 77/282/77 439/207/439 76/283/76
f 77/282/77 440/206/440 439/207/439
f 77/282/77 441/205/441 440/206/440
f 77/282/77 456/203/456 441/205/441
f 78/281/78 455/202/455 77/282/77
f 78/281/78 458/199/458 438/200/438
f 79/561/79 80/299/80 69/564/69
f 79/54/79 416/160/416 415/158/415
f 79/54/79 420/157/420 20/53/20
f 81/216/81 132/22/132 17/17/17
f 81/571/81 453/460/453 82/570/82
f 81/571/81 454/462/454 453/460/453
f 82/218/82 132/22/132 81/216/81
f 82/570/82 442/454/442 132/569/132
f 82/570/82 452/459/452 442/454/442
f 82/570/82 453/460/453 452/459/452
f 83/258/83 131/86/131 84/262/84
f 83/239/83 427/336/427 13/242/13
f 84/262/84 131/86/131 125/88/125
f 84/238/84 412/330/412 83/239/83
f 85/277/85 451/189/451 437/190/437
f 85/277/85 457/191/457 17/278/17
f 86/276/86 451/189/451 85/277/85
f 87/554/87 129/294/129 18/556/18
f 87/554/87 130/296/130 129/294/129
f 87/48/87 408/148/408 88/50/88
f 87/48/87 409/149/409 408/148/408
f 87/48/87 410/150/410 409/149/409
f 87/48/87 421/151/421 410/150/410
f 88/557/88 130/296/130 87/554/87
f 88/557/88 135/558/135 130/296/130
f 88/50/88 402/146/402 135/46/135
f 88/50/88 407/147/407 402/146/402
f 88/50/88 408/148/408 407/147/407
f 89/408/89 93/423/93 90/396/90
f 89/408/89 96/443/96 93/423/93
f 90/396/90 91/380/91 89/408/89
f 90/396/90 106/387/106 91/380/91
f 91/380/91 92/395/92 89/408/89
f 92/395/92 95/436/95 89/408/89
f 92/395/92 97/429/97 95/436/95
f 93/423/93 94/411/94 90/396/90
f 93/423/93 110/437/110 94/411/94
f 93/423/93 114/453/114 110/437/110
f 94/411/94 104/399/104 90/396/90
f 94/411/94 105/417/105 104/399/104
f 94/411/94 111/431/111 105/417/105
f 95/436/95 96/443/96 89/408/89
f 95/436/95 100/487/100 96/443/96
f 96/443/96 114/453/114 93/423/93
f 96/443/96 116/488/116 114/453/114
f 97/429/97 98/484/98 95/436/95
f 97/429/97 99/481/99 98/484/98
f 98/484/98 100/487/100 95/436/95
f 98/484/98 102/507/102 100/487/100
f 99/481/99 101/511/101 98/484/98
f 99/481/99 103/513/103 101/511/101
f 100/487/100 116/488/116 96/443/96
f 100/487/100 118/506/118 116/488/116
f 101/511/101 102/507/102 98/484/98
f 101/511/101 108/531/108 102/507/102
f 102/507/102 118/506/118 100/487/100
f 102/507/102 122/525/122 118/506/118
f 103/513/103 107/536/107 101/511/101
f 103/513/103 109/541/109 107/536/107
f 104/399/104 105/417/105 40/420/40
f 104/399/104 106/387/106 90/396/90
f 105/417/105 120/434/120 41/432/41
f 107/536/107 108/531/108 101/511/101
f 107/536/107 109/541/109 45/550/45
f 108/531/108 122/525/122 102/507/102
f 110/437/110 111/431/111 94/411/94
f 110/437/110 112/451/112 111/431/111
f 110/437/110 115/474/115 112/451/112
f 111/431/111 120/434/120 105/417/105
f 112/451/112 113/445/113 111/431/111
f 112/451/112 124/471/124 113/445/113
f 112/451/112 127/482/127 124/471/124
f 113/445/113 120/434/120 111/431/111
f 113/445/113 121/450/121 120/434/120
f 113/445/113 125/466/125 121/450/121
f 114/453/114 115/474/115 110/437/110
f 114/453/114 117/493/117 115/474/115
f 115/474/115 127/482/127 112/451/112
f 116/488/116 117/493/117 114/453/114
f 116/488/116 119/505/119 117/493/117
f 117/493/117 127/482/127 115/474/115
f 117/493/117 136/494/136 127/482/127
f 118/506/118 119/505/119 116/488/116
f 118/506/118 123/518/123 119/505/119
f 119/505/119 136/494/136 117/493/117
f 120/434/120 121/450/121 60/444/60
f 121/450/121 131/475/131 61/463/61
f 122/525/122 123/518/123 118/506/118
f 123/518/123 129/510/129 119/505/119
f 124/471/124 125/466/125 113/445/113
f 124/90/124 126/264/126 125/88/125
f 124/302/124 128/562/128 126/563/126
f 125/88/125 126/264/126 84/262/84
f 125/466/125 131/475/131 121/450/121
f 126/237/126 406/328/406 84/238/84
f 127/300/127 128/562/128 124/302/124
f 127/300/127 136/298/136 128/562/128
f 128/562/128 136/298/136 135/558/135
f 128/47/128 404/144/404 126/45/126
f 129/510/129 130/502/130 119/505/119
f 130/502/130 136/494/136 119/505/119
f 132/22/132 133/21/133 86/19/86
f 132/273/132 445/182/445 133/274/133
f 133/21/133 134/20/134 86/19/86
f 133/274/133 448/184/448 134/275/134
f 134/275/134 443/186/443 86/276/86
f 134/275/134 447/185/447 443/186/443
f 134/275/134 448/184/448 447/185/447
f 135/558/135 136/298/136 130/296/130
f 135/46/135 404/144/404 128/47/128
f 402/146/402 403/145/403 135/46/135
f 402/146/402 448/184/448 403/145/403
f 403/145/403 404/144/404 135/46/135
f 403/145/403 448/184/448 404/144/404
f 404/144/404 405/143/405 126/45/126
f 404/144/404 445/182/445 405/143/405
f 404/144/404 446/183/446 445/182/445
f 404/144/404 448/184/448 446/183/446
f 405/143/405 406/142/406 126/45/126
f 405/143/405 445/182/445 406/142/406
f 406/328/406 411/329/411 84/238/84
f 406/328/406 442/454/442 411/329/411
f 406/328/406 444/452/444 442/454/442
f 406/142/406 445/182/445 444/181/444
f 407/147/407 443/186/443 402/146/402
f 408/148/408 443/186/443 407/147/407
f 408/148/408 449/187/449 443/186/443
f 408/148/408 450/188/450 449/187/449
f 409/149/409 450/188/450 408/148/408
f 410/150/410 450/188/450 409/149/409
f 410/150/410 451/189/451 450/188/450
f 411/329/411 412/330/412 84/238/84
f 411/329/411 442/454/442 412/330/412
f 412/330/412 413/334/413 83/239/83
f 412/330/412 453/460/453 413/334/413
f 413/334/413 414/335/414 83/239/83
f 413/334/413 453/460/453 414/335/414
f 414/335/414 427/336/427 83/239/83
f 414/335/414 454/462/454 427/336/427
f 415/158/415 420/157/420 79/54/79
f 415/158/415 455/202/455 420/157/420
f 416/160/416 455/202/455 415/158/415
f 416/160/416 456/203/456 455/202/455
f 417/161/417 441/205/441 416/160/416
f 418/162/418 441/205/441 417/161/417
f 419/163/419 439/207/439 418/162/418
f 420/157/420 423/156/423 20/53/20
f 420/157/420 455/202/455 438/200/438
f 420/157/420 458/199/458 423/156/423
f 421/151/421 451/189/451 410/150/410
f 421/151/421 457/191/457 437/190/437
f 422/152/422 457/191/457 421/151/421
f 423/156/423 424/155/424 20/53/20
f 423/156/423 458/199/458 424/155/424
f 424/155/424 425/154/425 19/52/19
f 424/155/424 460/196/460 425/154/425
f 425/154/425 426/153/426 19/52/19
f 425/154/425 460/196/460 426/153/426
f 426/153/426 457/191/457 422/152/422
f 426/153/426 461/195/461 457/191/457
f 427/336/427 428/337/428 13/242/13
f 427/336/427 435/465/435 428/337/428
f 427/336/427 436/464/436 435/465/435
f 427/336/427 454/462/454 436/464/436
f 428/337/428 432/338/432 13/242/13
f 428/337/428 435/465/435 432/338/432
f 429/342/429 439/480/439 419/344/419
f 429/342/429 462/473/462 434/478/434
f 430/341/430 462/473/462 429/342/429
f 430/341/430 463/470/463 462/473/462
f 431/340/431 463/470/463 430/341/430
f 431/340/431 465/468/465 463/470/463
f 432/338/432 433/339/433 11/243/11
f 432/338/432 465/468/465 433/339/433
f 433/339/433 465/468/465 431/340/431
f 434/478/434 439/480/439 429/342/429
f 434/478/434 462/473/462 76/576/76
f 435/465/435 436/464/436 81/571/81
f 435/465/435 464/467/464 432/338/432
f 436/464/436 454/462/454 81/571/81
f 437/190/437 451/189/451 421/151/421
f 437/190/437 457/191/457 85/277/85
f 438/200/438 455/202/455 78/281/78
f 438/200/438 458/199/458 420/157/420
f 439/207/439 440/206/440 418/162/418
f 440/206/440 441/205/441 418/162/418
f 441/205/441 456/203/456 416/160/416
f 442/454/442 444/452/444 132/569/132
f 442/454/442 452/459/452 412/330/412
f 443/186/443 447/185/447 402/146/402
f 443/186/443 449/187/449 86/276/86
f 444/181/444 445/182/445 132/273/132
f 445/182/445 446/183/446 133/274/133
f 446/183/446 448/184/448 133/274/133
f 447/185/447 448/184/448 402/146/402
f 449/187/449 450/188/450 86/276/86
f 450/188/450 451/189/451 86/276/86
f 452/459/452 453/460/453 412/330/412
f 453/460/453 454/462/454 414/335/414
f 455/202/455 456/203/456 77/282/77
f 457/191/457 461/195/461 15/279/15
f 458/199/458 459/198/459 424/155/424
f 459/198/459 460/196/460 424/155/424
f 460/196/460 461/195/461 426/153/426
f 462/473/462 463/470/463 10/574/10
f 463/470/463 465/468/465 9/573/9
f 464/467/464 465/468/465 432/338/432
g ToolChiselRectangleWood
usemtl Wood
s 1
f 22/430/22 271/412/271 23/438/23
f 22/430/22 280/402/280 271/412/271
f 23/438/23 270/428/270 38/448/38
f 23/438/23 271/412/271 270/428/270
f 29/421/29 280/402/280 22/430/22
f 29/421/29 281/394/281 280/402/280
f 31/414/31 281/394/281 29/421/29
f 31/414/31 282/390/282 281/394/281
f 35/407/35 282/390/282 31/414/31
f 38/448/38 274/442/274 39/472/39
f 39/504/39 274/490/274 106/489/106
f 46/405/46 279/383/279 35/407/35
f 47/404/47 275/382/275 46/405/46
f 47/404/47 276/381/276 275/382/275
f 47/404/47 394/385/394 276/381/276
f 91/469/91 392/439/392 92/447/92
f 92/447/92 397/425/397 97/435/97
f 97/435/97 398/409/398 99/426/99
f 99/426/99 399/398/399 103/416/103
f 103/416/103 396/392/396 109/410/109
f 103/416/103 399/398/399 396/392/396
f 106/489/106 391/457/391 91/469/91
f 109/410/109 394/385/394 47/404/47
f 109/410/109 396/392/396 394/385/394
f 137/174/137 144/177/144 138/213/138
f 138/213/138 139/211/139 137/174/137
f 138/213/138 166/233/166 139/211/139
f 138/213/138 203/235/203 166/233/166
f 139/211/139 140/172/140 137/174/137
f 139/211/139 165/209/165 140/172/140
f 139/211/139 166/233/166 164/231/164
f 140/172/140 141/135/141 137/174/137
f 140/172/140 142/133/142 141/135/141
f 140/172/140 241/170/241 142/133/142
f 141/135/141 143/137/143 137/174/137
f 141/135/141 236/112/236 143/137/143
f 142/133/142 194/131/194 193/109/193
f 142/133/142 235/110/235 141/135/141
f 142/133/142 241/170/241 194/131/194
f 143/137/143 144/177/144 137/174/137
f 143/159/143 287/179/287 144/180/144
f 143/159/143 291/141/291 287/179/287
f 144/177/144 145/221/145 138/213/138
f 144/180/144 290/229/290 145/236/145
f 145/221/145 203/235/203 138/213/138
f 145/221/145 205/241/205 203/235/203
f 145/236/145 344/253/344 205/261/205
f 146/164/146 153/127/153 147/165/147
f 147/165/147 148/193/148 146/164/146
f 147/165/147 243/167/243 148/193/148
f 148/193/148 149/192/149 146/164/146
f 148/193/148 207/223/207 149/192/149
f 148/193/148 243/167/243 179/197/179
f 149/192/149 150/166/150 146/164/146
f 149/192/149 151/194/151 150/166/150
f 149/192/149 210/226/210 151/194/151
f 150/166/150 152/129/152 146/164/146
f 150/166/150 293/168/293 152/129/152
f 150/166/150 294/201/294 293/168/293
f 151/194/151 294/201/294 150/166/150
f 152/129/152 153/127/153 146/164/146
f 152/129/152 237/116/237 153/127/153
f 152/129/152 238/117/238 237/116/237
f 152/129/152 366/118/366 238/117/238
f 153/127/153 154/126/154 147/165/147
f 153/127/153 201/115/201 154/126/154
f 153/127/153 237/116/237 201/115/201
f 154/126/154 200/128/200 147/165/147
f 154/126/154 201/115/201 198/114/198
f 155/419/155 162/479/162 156/406/156
f 156/406/156 157/377/157 155/419/155
f 156/406/156 224/358/224 157/377/157
f 157/377/157 158/373/158 155/419/155
f 157/377/157 224/358/224 158/373/158
f 158/25/158 159/43/159 155/26/155
f 158/25/158 160/42/160 159/43/159
f 158/25/158 248/24/248 160/42/160
f 159/43/159 161/44/161 155/26/155
f 159/43/159 245/72/245 161/44/161
f 160/42/160 187/41/187 186/70/186
f 160/42/160 244/71/244 159/43/159
f 160/42/160 248/24/248 187/41/187
f 161/44/161 162/27/162 155/26/155
f 161/44/161 174/49/174 162/27/162
f 161/44/161 246/73/246 174/49/174
f 162/479/162 163/458/163 156/406/156
f 162/479/162 172/514/172 163/458/163
f 162/27/162 174/49/174 172/28/172
f 163/458/163 221/388/221 156/406/156
f 163/458/163 225/440/225 221/388/221
f 164/231/164 165/209/165 139/211/139
f 164/231/164 170/228/170 165/209/165
f 165/209/165 241/170/241 140/172/140
f 166/233/166 167/255/167 164/231/164
f 166/233/166 168/257/168 167/255/167
f 166/233/166 203/235/203 168/257/168
f 167/255/167 169/252/169 164/231/164
f 167/255/167 216/289/216 169/252/169
f 168/257/168 211/291/211 167/255/167
f 168/257/168 212/301/212 211/291/211
f 169/252/169 170/228/170 164/231/164
f 169/252/169 180/249/180 170/228/170
f 169/252/169 217/287/217 180/249/180
f 170/228/170 171/204/171 165/209/165
f 170/228/170 178/225/178 171/204/171
f 170/228/170 180/249/180 178/225/178
f 171/204/171 241/170/241 165/209/165
f 171/204/171 242/169/242 241/170/241
f 172/514/172 173/503/173 163/458/163
f 172/514/172 176/535/176 173/503/173
f 173/503/173 225/440/225 163/458/163
f 173/503/173 227/499/227 225/440/225
f 174/49/174 175/55/175 172/28/172
f 174/49/174 247/74/247 175/55/175
f 175/55/175 176/29/176 172/28/172
f 175/55/175 231/32/231 176/29/176
f 175/55/175 233/58/233 231/32/231
f 175/55/175 250/75/250 233/58/233
f 176/535/176 177/523/177 173/503/173
f 176/535/176 229/528/229 177/523/177
f 176/535/176 231/544/231 229/528/229
f 177/523/177 227/499/227 173/503/173
f 177/523/177 229/528/229 227/499/227
f 178/225/178 179/197/179 171/204/171
f 178/225/178 182/224/182 179/197/179
f 179/197/179 182/224/182 148/193/148
f 179/197/179 242/169/242 171/204/171
f 179/197/179 243/167/243 242/169/242
f 180/249/180 181/248/181 178/225/178
f 180/249/180 220/285/220 181/248/181
f 181/248/181 182/224/182 178/225/178
f 181/248/181 208/247/208 182/224/182
f 181/248/181 256/284/256 208/247/208
f 182/224/182 207/223/207 148/193/148
f 182/224/182 208/247/208 207/223/207
f 183/69/183 189/60/189 184/93/184
f 184/93/184 185/94/185 183/69/183
f 184/93/184 193/109/193 185/94/185
f 184/93/184 235/110/235 193/109/193
f 185/94/185 186/70/186 183/69/183
f 185/94/185 192/95/192 186/70/186
f 185/94/185 193/109/193 191/111/191
f 186/70/186 187/41/187 183/69/183
f 186/70/186 244/71/244 160/42/160
f 187/41/187 188/30/188 183/69/183
f 187/41/187 249/23/249 188/30/188
f 188/30/188 189/60/189 183/69/183
f 188/59/188 327/79/327 189/77/189
f 188/59/188 331/65/331 327/79/327
f 189/60/189 190/92/190 184/93/184
f 189/77/189 330/103/330 190/102/190
f 190/92/190 235/110/235 184/93/184
f 190/92/190 236/112/236 235/110/235
f 190/102/190 365/124/365 236/125/236
f 191/111/191 192/95/192 185/94/185
f 191/111/191 196/113/196 192/95/192
f 192/95/192 244/71/244 186/70/186
f 193/109/193 194/131/194 191/111/191
f 193/109/193 235/110/235 142/133/142
f 194/131/194 195/130/195 191/111/191
f 194/131/194 242/169/242 195/130/195
f 195/130/195 196/113/196 191/111/191
f 195/130/195 200/128/200 196/113/196
f 195/130/195 243/167/243 200/128/200
f 196/113/196 197/96/197 192/95/192
f 196/113/196 198/114/198 197/96/197
f 196/113/196 200/128/200 198/114/198
f 197/96/197 244/71/244 192/95/192
f 197/96/197 245/72/245 244/71/244
f 198/114/198 199/97/199 197/96/197
f 198/114/198 200/128/200 154/126/154
f 198/114/198 201/115/201 199/97/199
f 199/97/199 245/72/245 197/96/197
f 199/97/199 246/73/246 245/72/245
f 200/128/200 243/167/243 147/165/147
f 201/115/201 202/98/202 199/97/199
f 201/115/201 237/116/237 202/98/202
f 202/98/202 246/73/246 199/97/199
f 202/98/202 247/74/247 246/73/246
f 203/235/203 204/267/204 168/257/168
f 203/235/203 205/241/205 204/267/204
f 204/267/204 212/301/212 168/257/168
f 204/267/204 252/306/252 212/301/212
f 205/241/205 206/268/206 204/267/204
f 205/261/205 345/271/345 206/272/206
f 206/268/206 252/306/252 204/267/204
f 206/268/206 254/308/254 252/306/252
f 206/272/206 377/310/377 254/311/254
f 207/223/207 210/226/210 149/192/149
f 208/247/208 209/250/209 207/223/207
f 208/247/208 259/286/259 209/250/209
f 209/250/209 210/226/210 207/223/207
f 209/250/209 346/227/346 210/226/210
f 209/250/209 347/251/347 346/227/346
f 210/226/210 294/201/294 151/194/151
f 210/226/210 346/227/346 294/201/294
f 211/291/211 216/289/216 167/255/167
f 212/301/212 213/323/213 211/291/211
f 212/301/212 214/326/214 213/323/213
f 212/301/212 252/306/252 214/326/214
f 213/323/213 215/319/215 211/291/211
f 213/323/213 265/356/265 215/319/215
f 214/326/214 260/360/260 213/323/213
f 214/326/214 261/368/261 260/360/260
f 215/319/215 216/289/216 211/291/211
f 215/319/215 218/317/218 216/289/216
f 215/319/215 266/353/266 218/317/218
f 216/289/216 217/287/217 169/252/169
f 216/289/216 218/317/218 217/287/217
f 217/287/217 220/285/220 180/249/180
f 218/317/218 219/315/219 217/287/217
f 218/317/218 269/350/269 219/315/219
f 219/315/219 220/285/220 217/287/217
f 219/315/219 257/313/257 220/285/220
f 219/315/219 285/348/285 257/313/257
f 220/285/220 256/284/256 181/248/181
f 220/285/220 257/313/257 256/284/256
f 221/388/221 224/358/224 156/406/156
f 221/388/221 225/440/225 222/366/222
f 222/366/222 223/332/223 221/388/221
f 222/366/222 358/355/358 223/332/223
f 222/366/222 360/393/360 358/355/358
f 223/332/223 224/358/224 221/388/221
f 223/332/223 248/347/248 224/358/224
f 223/332/223 249/320/249 248/347/248
f 223/332/223 375/312/375 249/320/249
f 224/358/224 248/347/248 158/373/158
f 225/440/225 226/418/226 222/366/222
f 225/440/225 227/499/227 226/418/226
f 226/418/226 360/393/360 222/366/222
f 226/418/226 361/446/361 360/393/360
f 227/499/227 228/485/228 226/418/226
f 227/499/227 229/528/229 228/485/228
f 228/485/228 361/446/361 226/418/226
f 228/485/228 362/497/362 361/446/361
f 229/528/229 230/516/230 228/485/228
f 229/528/229 231/544/231 230/516/230
f 230/516/230 362/497/362 228/485/228
f 230/516/230 363/508/363 362/497/362
f 231/544/231 232/537/232 230/516/230
f 231/32/231 233/58/233 232/33/232
f 232/537/232 363/508/363 230/516/230
f 232/33/232 364/63/364 363/34/363
f 233/58/233 234/61/234 232/33/232
f 233/58/233 251/76/251 234/61/234
f 234/61/234 364/63/364 232/33/232
f 235/110/235 236/112/236 141/135/141
f 236/125/236 291/141/291 143/159/143
f 236/125/236 365/124/365 291/141/291
f 237/116/237 239/99/239 202/98/202
f 238/117/238 239/99/239 237/116/237
f 238/117/238 240/100/240 239/99/239
f 238/117/238 367/101/367 240/100/240
f 239/99/239 247/74/247 202/98/202
f 239/99/239 250/75/250 247/74/247
f 240/100/240 250/75/250 239/99/239
f 240/100/240 251/76/251 250/75/250
f 240/100/240 376/78/376 251/76/251
f 241/170/241 242/169/242 194/131/194
f 242/169/242 243/167/243 195/130/195
f 244/71/244 245/72/245 159/43/159
f 245/72/245 246/73/246 161/44/161
f 246/73/246 247/74/247 174/49/174
f 247/74/247 250/75/250 175/55/175
f 248/24/248 249/23/249 187/41/187
f 249/31/249 331/65/331 188/59/188
f 249/31/249 375/36/375 331/65/331
f 250/75/250 251/76/251 233/58/233
f 251/76/251 364/63/364 234/61/234
f 251/76/251 376/78/376 364/63/364
f 252/306/252 253/333/253 214/326/214
f 252/306/252 254/308/254 253/333/253
f 253/333/253 261/368/261 214/326/214
f 253/333/253 283/375/283 261/368/261
f 254/308/254 255/345/255 253/333/253
f 254/311/254 378/357/378 255/364/255
f 255/345/255 283/375/283 253/333/253
f 255/345/255 284/391/284 283/375/283
f 255/364/255 400/401/400 284/424/284
f 256/284/256 259/286/259 208/247/208
f 257/313/257 258/314/258 256/284/256
f 257/313/257 286/349/286 258/314/258
f 258/314/258 259/286/259 256/284/256
f 258/314/258 379/288/379 259/286/259
f 258/314/258 380/316/380 379/288/379
f 259/286/259 347/251/347 209/250/209
f 259/286/259 379/288/379 347/251/347
f 260/360/260 265/356/265 213/323/213
f 261/368/261 262/379/262 260/360/260
f 261/368/261 263/389/263 262/379/262
f 261/368/261 283/375/283 263/389/263
f 262/379/262 264/372/264 260/360/260
f 262/379/262 281/394/281 264/372/264
f 263/389/263 272/400/272 271/412/271
f 263/389/263 280/402/280 262/379/262
f 263/389/263 283/375/283 272/400/272
f 264/372/264 265/356/265 260/360/260
f 264/372/264 267/369/267 265/356/265
f 264/372/264 282/390/282 267/369/267
f 265/356/265 266/353/266 215/319/215
f 265/356/265 267/369/267 266/353/266
f 266/353/266 269/350/269 218/317/218
f 267/369/267 268/365/268 266/353/266
f 267/369/267 279/383/279 268/365/268
f 267/369/267 282/390/282 279/383/279
f 268/365/268 269/350/269 266/353/266
f 268/365/268 277/361/277 269/350/269
f 268/365/268 279/383/279 275/382/275
f 269/350/269 285/348/285 219/315/219
f 270/428/270 274/442/274 38/448/38
f 271/412/271 272/400/272 270/428/270
f 271/412/271 280/402/280 263/389/263
f 272/400/272 273/422/273 270/428/270
f 272/400/272 284/391/284 273/422/273
f 273/422/273 274/442/274 270/428/270
f 273/455/273 391/457/391 274/490/274
f 273/455/273 393/433/393 391/457/391
f 274/490/274 391/457/391 106/489/106
f 275/382/275 277/361/277 268/365/268
f 275/382/275 279/383/279 46/405/46
f 276/381/276 277/361/277 275/382/275
f 276/381/276 278/362/278 277/361/277
f 276/381/276 395/367/395 278/362/278
f 277/361/277 285/348/285 269/350/269
f 278/362/278 285/348/285 277/361/277
f 278/362/278 286/349/286 285/348/285
f 278/362/278 401/352/401 286/349/286
f 279/383/279 282/390/282 35/407/35
f 280/402/280 281/394/281 262/379/262
f 281/394/281 282/390/282 264/372/264
f 283/375/283 284/391/284 272/400/272
f 284/424/284 393/433/393 273/455/273
f 284/424/284 400/401/400 393/433/393
f 285/348/285 286/349/286 257/313/257
f 286/349/286 380/316/380 258/314/258
f 286/349/286 401/352/401 380/316/380
f 287/179/287 290/229/290 144/180/144
f 287/179/287 291/141/291 288/178/288
f 288/178/288 289/222/289 287/179/287
f 288/178/288 310/220/310 289/222/289
f 288/178/288 368/176/368 310/220/310
f 289/222/289 290/229/290 287/179/287
f 289/222/289 309/246/309 290/229/290
f 289/222/289 310/220/310 308/240/308
f 290/229/290 344/253/344 145/236/145
f 291/141/291 292/140/292 288/178/288
f 291/141/291 365/124/365 292/140/292
f 292/140/292 365/124/365 333/123/333
f 292/140/292 368/176/368 288/178/288
f 293/168/293 297/132/297 152/129/152
f 294/201/294 295/208/295 293/168/293
f 294/201/294 346/227/346 295/208/295
f 295/208/295 296/171/296 293/168/293
f 295/208/295 325/230/325 323/210/323
f 295/208/295 346/227/346 325/230/325
f 295/208/295 370/173/370 296/171/296
f 296/171/296 297/132/297 293/168/293
f 296/171/296 298/134/298 297/132/297
f 296/171/296 341/136/341 298/134/298
f 296/171/296 370/173/370 341/136/341
f 297/132/297 366/118/366 152/129/152
f 298/134/298 341/136/341 339/120/339
f 298/134/298 342/119/342 297/132/297
f 299/37/299 303/64/303 300/40/300
f 299/37/299 306/62/306 303/64/303
f 300/322/300 301/327/301 299/343/299
f 300/322/300 359/324/359 301/327/301
f 300/322/300 375/312/375 359/324/359
f 301/327/301 302/351/302 299/343/299
f 301/327/301 359/324/359 302/351/302
f 302/351/302 305/371/305 299/343/299
f 302/351/302 307/378/307 305/371/305
f 302/351/302 358/355/358 307/378/307
f 302/351/302 359/324/359 358/355/358
f 303/64/303 304/68/304 300/40/300
f 303/64/303 371/83/371 304/68/304
f 303/64/303 372/84/372 371/83/371
f 304/68/304 371/83/371 328/81/328
f 304/68/304 375/36/375 300/40/300
f 305/35/305 306/62/306 299/37/299
f 305/35/305 318/66/318 306/62/306
f 306/62/306 372/84/372 303/64/303
f 306/62/306 373/82/373 372/84/372
f 307/378/307 316/415/316 305/371/305
f 307/378/307 317/427/317 316/415/316
f 307/378/307 360/393/360 317/427/317
f 308/240/308 309/246/309 289/222/289
f 308/240/308 311/269/311 309/246/309
f 308/240/308 314/266/314 311/269/311
f 309/246/309 344/253/344 290/229/290
f 310/220/310 313/234/313 308/240/308
f 310/220/310 315/212/315 313/234/313
f 310/220/310 368/176/368 315/212/315
f 311/269/311 312/270/312 309/246/309
f 311/269/311 348/307/348 312/270/312
f 311/269/311 352/304/352 348/307/348
f 312/270/312 344/253/344 309/246/309
f 312/270/312 345/271/345 344/253/344
f 312/270/312 349/309/349 345/271/345
f 313/234/313 314/266/314 308/240/308
f 313/234/313 324/256/324 314/266/314
f 314/266/314 352/304/352 311/269/311
f 314/266/314 354/292/354 352/304/352
f 315/212/315 322/232/322 313/234/313
f 315/212/315 323/210/323 322/232/322
f 315/212/315 369/175/369 323/210/323
f 316/38/316 318/66/318 305/35/305
f 316/38/316 320/67/320 318/66/318
f 317/427/317 319/477/319 316/415/316
f 317/427/317 321/461/321 319/477/319
f 317/427/317 361/446/361 321/461/321
f 318/66/318 373/82/373 306/62/306
f 318/66/318 374/80/374 373/82/373
f 319/39/319 320/67/320 316/38/316
f 319/39/319 363/34/363 320/67/320
f 320/67/320 374/80/374 318/66/318
f 320/67/320 376/78/376 374/80/374
f 321/461/321 362/497/362 319/477/319
f 322/232/322 324/256/324 313/234/313
f 322/232/322 326/254/326 324/256/324
f 323/210/323 325/230/325 322/232/322
f 323/210/323 370/173/370 295/208/295
f 324/256/324 354/292/354 314/266/314
f 324/256/324 356/290/356 354/292/354
f 325/230/325 326/254/326 322/232/322
f 325/230/325 347/251/347 326/254/326
f 326/254/326 356/290/356 324/256/324
f 326/254/326 379/288/379 356/290/356
f 327/79/327 330/103/330 189/77/189
f 327/79/327 331/65/331 328/81/328
f 328/81/328 329/105/329 327/79/327
f 328/81/328 331/65/331 304/68/304
f 328/81/328 334/108/334 329/105/329
f 328/81/328 371/83/371 334/108/334
f 329/105/329 330/103/330 327/79/327
f 329/105/329 333/123/333 330/103/330
f 329/105/329 334/108/334 332/122/332
f 330/103/330 365/124/365 190/102/190
f 331/65/331 375/36/375 304/68/304
f 332/122/332 333/123/333 329/105/329
f 332/122/332 335/139/335 333/123/333
f 332/122/332 337/138/337 335/139/335
f 333/123/333 335/139/335 292/140/292
f 333/123/333 365/124/365 330/103/330
f 334/108/334 336/121/336 332/122/332
f 334/108/334 338/107/338 336/121/336
f 334/108/334 371/83/371 338/107/338
f 335/139/335 368/176/368 292/140/292
f 335/139/335 369/175/369 368/176/368
f 336/121/336 337/138/337 332/122/332
f 336/121/336 341/136/341 337/138/337
f 337/138/337 369/175/369 335/139/335
f 337/138/337 370/173/370 369/175/369
f 338/107/338 339/120/339 336/121/336
f 338/107/338 340/106/340 339/120/339
f 338/107/338 372/84/372 340/106/340
f 339/120/339 341/136/341 336/121/336
f 339/120/339 342/119/342 298/134/298
f 340/106/340 342/119/342 339/120/339
f 340/106/340 343/104/343 342/119/342
f 340/106/340 373/82/373 343/104/343
f 341/136/341 370/173/370 337/138/337
f 342/119/342 366/118/366 297/132/297
f 343/104/343 366/118/366 342/119/342
f 343/104/343 367/101/367 366/118/366
f 343/104/343 374/80/374 367/101/367
f 344/253/344 345/271/345 205/261/205
f 345/271/345 377/310/377 206/272/206
f 346/227/346 347/251/347 325/230/325
f 347/251/347 379/288/379 326/254/326
f 348/307/348 349/309/349 312/270/312
f 348/307/348 350/331/350 349/309/349
f 348/307/348 353/325/353 350/331/350
f 349/309/349 377/310/377 345/271/345
f 350/331/350 351/346/351 349/309/349
f 350/331/350 381/374/381 351/346/351
f 350/331/350 385/363/385 381/374/381
f 351/346/351 377/310/377 349/309/349
f 351/346/351 378/357/378 377/310/377
f 351/346/351 382/386/382 378/357/378
f 352/304/352 353/325/353 348/307/348
f 352/304/352 355/321/355 353/325/353
f 353/325/353 385/363/385 350/331/350
f 353/325/353 387/359/387 385/363/385
f 354/292/354 355/321/355 352/304/352
f 354/292/354 357/318/357 355/321/355
f 355/321/355 387/359/387 353/325/353
f 355/321/355 389/354/389 387/359/387
f 356/290/356 357/318/357 354/292/354
f 356/290/356 380/316/380 357/318/357
f 357/318/357 389/354/389 355/321/355
f 357/318/357 401/352/401 389/354/389
f 358/355/358 359/324/359 223/332/223
f 358/355/358 360/393/360 307/378/307
f 359/324/359 375/312/375 223/332/223
f 360/393/360 361/446/361 317/427/317
f 361/446/361 362/497/362 321/461/321
f 362/497/362 363/508/363 319/477/319
f 363/34/363 364/63/364 320/67/320
f 364/63/364 376/78/376 320/67/320
f 366/118/366 367/101/367 238/117/238
f 367/101/367 376/78/376 240/100/240
f 368/176/368 369/175/369 315/212/315
f 369/175/369 370/173/370 323/210/323
f 371/83/371 372/84/372 338/107/338
f 372/84/372 373/82/373 340/106/340
f 373/82/373 374/80/374 343/104/343
f 374/80/374 376/78/376 367/101/367
f 377/310/377 378/357/378 254/311/254
f 378/357/378 400/401/400 255/364/255
f 379/288/379 380/316/380 356/290/356
f 380/316/380 401/352/401 357/318/357
f 381/374/381 382/386/382 351/346/351
f 381/374/381 383/397/383 382/386/382
f 381/374/381 386/384/386 383/397/383
f 382/386/382 400/401/400 378/357/378
f 383/397/383 384/413/384 382/386/382
f 383/397/383 397/425/397 384/413/384
f 383/397/383 398/409/398 397/425/397
f 384/413/384 397/425/397 392/439/392
f 384/413/384 400/401/400 382/386/382
f 385/363/385 386/384/386 381/374/381
f 385/363/385 388/376/388 386/384/386
f 386/384/386 398/409/398 383/397/383
f 386/384/386 399/398/399 398/409/398
f 387/359/387 388/376/388 385/363/385
f 387/359/387 390/370/390 388/376/388
f 388/376/388 399/398/399 386/384/386
f 389/354/389 390/370/390 387/359/387
f 389/354/389 395/367/395 390/370/390
f 389/354/389 401/352/401 395/367/395
f 390/370/390 395/367/395 394/385/394
f 390/370/390 396/392/396 388/376/388
f 391/457/391 392/439/392 91/469/91
f 391/457/391 393/433/393 392/439/392
f 392/439/392 393/433/393 384/413/384
f 392/439/392 397/425/397 92/447/92
f 393/433/393 400/401/400 384/413/384
f 394/385/394 395/367/395 276/381/276
f 394/385/394 396/392/396 390/370/390
f 395/367/395 401/352/401 278/362/278
f 396/392/396 399/398/399 388/376/388
f 397/425/397 398/409/398 97/435/97
f 398/409/398 399/398/399 99/426/99
