####
#
# OBJ File Generated by Meshlab
#
####
# Object ChiselTip.obj
#
# Vertices: 12
# Faces: 20
#
####
vn -0.782287 -0.471456 0.407131
v -0.009376 0.000041 -0.002810
vn 0.639003 -0.704752 0.308220
v 0.009886 0.000073 -0.003688
vn -0.539163 -0.541167 -0.645323
v -0.009083 0.000041 -0.003453
vn 0.416803 -0.505508 -0.755471
v 0.009536 0.000073 -0.004302
vn -0.222559 -0.338367 0.914317
v -0.005632 0.010220 0.004161
vn 0.472685 -0.138345 0.870304
v 0.006757 0.010241 0.003596
vn 0.278537 0.870043 0.406745
v 0.006685 0.156942 0.003641
vn -0.422355 0.506401 0.751781
v -0.006054 0.156942 0.004221
vn 0.469271 0.531866 -0.704913
v 0.009688 0.156942 -0.004265
vn -0.314845 0.902377 -0.294259
v -0.009763 0.156942 -0.003378
vn 0.921606 0.326953 0.209151
v 0.009817 0.156942 -0.003460
vn -0.941600 0.335273 0.031326
v -0.009742 0.156942 -0.002424
# 12 vertices, 0 vertices normals

f 1//1 12//12 3//3
f 2//2 3//3 4//4
f 2//2 5//5 1//1
f 2//2 6//6 5//5
f 2//2 11//11 6//6
f 3//3 2//2 1//1
f 3//3 9//9 4//4
f 3//3 12//12 10//10
f 4//4 9//9 2//2
f 5//5 8//8 1//1
f 6//6 7//7 8//8
f 6//6 8//8 5//5
f 6//6 11//11 7//7
f 7//7 10//10 8//8
f 8//8 12//12 1//1
f 9//9 11//11 2//2
f 10//10 7//7 9//9
f 10//10 9//9 3//3
f 11//11 9//9 7//7
f 12//12 8//8 10//10
# 20 faces, 0 coords texture

# End of File
