####
#
# OBJ File Generated by Meshlab
#
####
# Object Turntable.obj
#
# Vertices: 146
# Faces: 288
#
####
vn 0.000000 -1.000000 0.000000
v 0.000000 -0.500000 0.000000
vn 0.000000 1.000000 0.000000
v 0.000000 0.500000 0.000000
vn 0.948593 -0.316198 0.013805
v 0.500000 -0.500000 0.000000
vn 0.943780 -0.316198 0.096429
v 0.498097 -0.500000 0.043578
vn 0.931784 -0.316198 0.178317
v 0.492404 -0.500000 0.086824
vn 0.912697 -0.316198 0.258849
v 0.482963 -0.500000 0.129410
vn 0.886664 -0.316198 0.337411
v 0.469846 -0.500000 0.171010
vn 0.853883 -0.316198 0.413405
v 0.453154 -0.500000 0.211309
vn 0.814603 -0.316198 0.486252
v 0.433013 -0.500000 0.250000
vn 0.769123 -0.316198 0.555399
v 0.409576 -0.500000 0.286788
vn 0.717790 -0.316198 0.620320
v 0.383022 -0.500000 0.321394
vn 0.660995 -0.316198 0.680518
v 0.353553 -0.500000 0.353553
vn 0.599168 -0.316198 0.735538
v 0.321394 -0.500000 0.383022
vn 0.532782 -0.316198 0.784960
v 0.286788 -0.500000 0.409576
vn 0.462341 -0.316198 0.828408
v 0.250000 -0.500000 0.433013
vn 0.388381 -0.316198 0.865552
v 0.211309 -0.500000 0.453154
vn 0.311465 -0.316198 0.896107
v 0.171010 -0.500000 0.469846
vn 0.232179 -0.316198 0.919843
v 0.129410 -0.500000 0.482963
vn 0.151126 -0.316198 0.936579
v 0.086824 -0.500000 0.492404
vn 0.068922 -0.316198 0.946186
v 0.043578 -0.500000 0.498097
vn -0.013805 -0.316198 0.948593
v 0.000000 -0.500000 0.500000
vn -0.096429 -0.316198 0.943780
v -0.043578 -0.500000 0.498097
vn -0.178317 -0.316198 0.931784
v -0.086824 -0.500000 0.492404
vn -0.258849 -0.316198 0.912697
v -0.129410 -0.500000 0.482963
vn -0.337411 -0.316198 0.886664
v -0.171010 -0.500000 0.469846
vn -0.413405 -0.316198 0.853883
v -0.211309 -0.500000 0.453154
vn -0.486252 -0.316198 0.814603
v -0.250000 -0.500000 0.433013
vn -0.555399 -0.316198 0.769123
v -0.286788 -0.500000 0.409576
vn -0.620320 -0.316198 0.717790
v -0.321394 -0.500000 0.383022
vn -0.680518 -0.316198 0.660995
v -0.353553 -0.500000 0.353553
vn -0.735538 -0.316198 0.599168
v -0.383022 -0.500000 0.321394
vn -0.784960 -0.316198 0.532782
v -0.409576 -0.500000 0.286788
vn -0.828408 -0.316198 0.462341
v -0.433013 -0.500000 0.250000
vn -0.865552 -0.316198 0.388381
v -0.453154 -0.500000 0.211309
vn -0.896107 -0.316198 0.311465
v -0.469846 -0.500000 0.171010
vn -0.919843 -0.316198 0.232179
v -0.482963 -0.500000 0.129410
vn -0.936579 -0.316198 0.151126
v -0.492404 -0.500000 0.086824
vn -0.946186 -0.316198 0.068922
v -0.498097 -0.500000 0.043578
vn -0.948593 -0.316198 -0.013805
v -0.500000 -0.500000 0.000000
vn -0.943780 -0.316198 -0.096429
v -0.498097 -0.500000 -0.043578
vn -0.931784 -0.316198 -0.178317
v -0.492404 -0.500000 -0.086824
vn -0.912697 -0.316198 -0.258849
v -0.482963 -0.500000 -0.129410
vn -0.886664 -0.316198 -0.337411
v -0.469846 -0.500000 -0.171010
vn -0.853883 -0.316198 -0.413405
v -0.453154 -0.500000 -0.211309
vn -0.814603 -0.316198 -0.486252
v -0.433013 -0.500000 -0.250000
vn -0.769123 -0.316198 -0.555399
v -0.409576 -0.500000 -0.286788
vn -0.717790 -0.316198 -0.620320
v -0.383022 -0.500000 -0.321394
vn -0.660995 -0.316198 -0.680518
v -0.353553 -0.500000 -0.353553
vn -0.599168 -0.316198 -0.735538
v -0.321394 -0.500000 -0.383022
vn -0.532782 -0.316198 -0.784960
v -0.286788 -0.500000 -0.409576
vn -0.462341 -0.316198 -0.828408
v -0.250000 -0.500000 -0.433013
vn -0.388381 -0.316198 -0.865552
v -0.211309 -0.500000 -0.453154
vn -0.311465 -0.316198 -0.896107
v -0.171010 -0.500000 -0.469846
vn -0.232179 -0.316198 -0.919843
v -0.129410 -0.500000 -0.482963
vn -0.151126 -0.316198 -0.936579
v -0.086824 -0.500000 -0.492404
vn -0.068922 -0.316198 -0.946186
v -0.043578 -0.500000 -0.498097
vn 0.013805 -0.316198 -0.948593
v -0.000000 -0.500000 -0.500000
vn 0.096429 -0.316198 -0.943780
v 0.043578 -0.500000 -0.498097
vn 0.178317 -0.316198 -0.931784
v 0.086824 -0.500000 -0.492404
vn 0.258849 -0.316198 -0.912697
v 0.129410 -0.500000 -0.482963
vn 0.337411 -0.316198 -0.886664
v 0.171010 -0.500000 -0.469846
vn 0.413405 -0.316198 -0.853883
v 0.211309 -0.500000 -0.453154
vn 0.486252 -0.316198 -0.814603
v 0.250000 -0.500000 -0.433013
vn 0.555399 -0.316198 -0.769123
v 0.286788 -0.500000 -0.409576
vn 0.620320 -0.316198 -0.717790
v 0.321394 -0.500000 -0.383022
vn 0.680518 -0.316198 -0.660995
v 0.353553 -0.500000 -0.353553
vn 0.735538 -0.316198 -0.599168
v 0.383022 -0.500000 -0.321394
vn 0.784960 -0.316198 -0.532782
v 0.409576 -0.500000 -0.286788
vn 0.828408 -0.316198 -0.462341
v 0.433013 -0.500000 -0.250000
vn 0.865552 -0.316198 -0.388381
v 0.453154 -0.500000 -0.211309
vn 0.896107 -0.316198 -0.311465
v 0.469846 -0.500000 -0.171010
vn 0.919843 -0.316198 -0.232179
v 0.482963 -0.500000 -0.129410
vn 0.936579 -0.316198 -0.151126
v 0.492404 -0.500000 -0.086824
vn 0.946186 -0.316198 -0.068922
v 0.498097 -0.500000 -0.043578
vn 0.948593 0.316198 -0.013805
v 0.500000 0.500000 0.000000
vn 0.946186 0.316198 0.068922
v 0.498097 0.500000 0.043578
vn 0.936579 0.316198 0.151126
v 0.492404 0.500000 0.086824
vn 0.919843 0.316198 0.232179
v 0.482963 0.500000 0.129410
vn 0.896107 0.316198 0.311465
v 0.469846 0.500000 0.171010
vn 0.865552 0.316198 0.388381
v 0.453154 0.500000 0.211309
vn 0.828408 0.316198 0.462341
v 0.433013 0.500000 0.250000
vn 0.784960 0.316198 0.532782
v 0.409576 0.500000 0.286788
vn 0.735538 0.316198 0.599168
v 0.383022 0.500000 0.321394
vn 0.680518 0.316198 0.660995
v 0.353553 0.500000 0.353553
vn 0.620320 0.316198 0.717790
v 0.321394 0.500000 0.383022
vn 0.555399 0.316198 0.769123
v 0.286788 0.500000 0.409576
vn 0.486252 0.316198 0.814603
v 0.250000 0.500000 0.433013
vn 0.413405 0.316198 0.853883
v 0.211309 0.500000 0.453154
vn 0.337411 0.316198 0.886664
v 0.171010 0.500000 0.469846
vn 0.258849 0.316198 0.912697
v 0.129410 0.500000 0.482963
vn 0.178317 0.316198 0.931784
v 0.086824 0.500000 0.492404
vn 0.096429 0.316198 0.943780
v 0.043578 0.500000 0.498097
vn 0.013805 0.316198 0.948593
v 0.000000 0.500000 0.500000
vn -0.068922 0.316198 0.946186
v -0.043578 0.500000 0.498097
vn -0.151126 0.316198 0.936579
v -0.086824 0.500000 0.492404
vn -0.232179 0.316198 0.919843
v -0.129410 0.500000 0.482963
vn -0.311465 0.316198 0.896107
v -0.171010 0.500000 0.469846
vn -0.388381 0.316198 0.865552
v -0.211309 0.500000 0.453154
vn -0.462341 0.316198 0.828408
v -0.250000 0.500000 0.433013
vn -0.532782 0.316198 0.784960
v -0.286788 0.500000 0.409576
vn -0.599168 0.316198 0.735538
v -0.321394 0.500000 0.383022
vn -0.660995 0.316198 0.680518
v -0.353553 0.500000 0.353553
vn -0.717790 0.316198 0.620320
v -0.383022 0.500000 0.321394
vn -0.769123 0.316198 0.555399
v -0.409576 0.500000 0.286788
vn -0.814603 0.316198 0.486252
v -0.433013 0.500000 0.250000
vn -0.853883 0.316198 0.413405
v -0.453154 0.500000 0.211309
vn -0.886664 0.316198 0.337411
v -0.469846 0.500000 0.171010
vn -0.912697 0.316198 0.258849
v -0.482963 0.500000 0.129410
vn -0.931784 0.316198 0.178317
v -0.492404 0.500000 0.086824
vn -0.943780 0.316198 0.096429
v -0.498097 0.500000 0.043578
vn -0.948593 0.316198 0.013805
v -0.500000 0.500000 0.000000
vn -0.946186 0.316198 -0.068922
v -0.498097 0.500000 -0.043578
vn -0.936579 0.316198 -0.151126
v -0.492404 0.500000 -0.086824
vn -0.919843 0.316198 -0.232179
v -0.482963 0.500000 -0.129410
vn -0.896107 0.316198 -0.311465
v -0.469846 0.500000 -0.171010
vn -0.865552 0.316198 -0.388381
v -0.453154 0.500000 -0.211309
vn -0.828408 0.316198 -0.462341
v -0.433013 0.500000 -0.250000
vn -0.784960 0.316198 -0.532782
v -0.409576 0.500000 -0.286788
vn -0.735538 0.316198 -0.599168
v -0.383022 0.500000 -0.321394
vn -0.680518 0.316198 -0.660995
v -0.353553 0.500000 -0.353553
vn -0.620320 0.316198 -0.717790
v -0.321394 0.500000 -0.383022
vn -0.555399 0.316198 -0.769123
v -0.286788 0.500000 -0.409576
vn -0.486252 0.316198 -0.814603
v -0.250000 0.500000 -0.433013
vn -0.413405 0.316198 -0.853883
v -0.211309 0.500000 -0.453154
vn -0.337411 0.316198 -0.886664
v -0.171010 0.500000 -0.469846
vn -0.258849 0.316198 -0.912697
v -0.129410 0.500000 -0.482963
vn -0.178317 0.316198 -0.931784
v -0.086824 0.500000 -0.492404
vn -0.096429 0.316198 -0.943780
v -0.043578 0.500000 -0.498097
vn -0.013805 0.316198 -0.948593
v -0.000000 0.500000 -0.500000
vn 0.068922 0.316198 -0.946186
v 0.043578 0.500000 -0.498097
vn 0.151126 0.316198 -0.936579
v 0.086824 0.500000 -0.492404
vn 0.232179 0.316198 -0.919843
v 0.129410 0.500000 -0.482963
vn 0.311465 0.316198 -0.896107
v 0.171010 0.500000 -0.469846
vn 0.388381 0.316198 -0.865552
v 0.211309 0.500000 -0.453154
vn 0.462341 0.316198 -0.828408
v 0.250000 0.500000 -0.433013
vn 0.532782 0.316198 -0.784960
v 0.286788 0.500000 -0.409576
vn 0.599168 0.316198 -0.735538
v 0.321394 0.500000 -0.383022
vn 0.660995 0.316198 -0.680518
v 0.353553 0.500000 -0.353553
vn 0.717790 0.316198 -0.620320
v 0.383022 0.500000 -0.321394
vn 0.769123 0.316198 -0.555399
v 0.409576 0.500000 -0.286788
vn 0.814603 0.316198 -0.486252
v 0.433013 0.500000 -0.250000
vn 0.853883 0.316198 -0.413405
v 0.453154 0.500000 -0.211309
vn 0.886664 0.316198 -0.337411
v 0.469846 0.500000 -0.171010
vn 0.912697 0.316198 -0.258849
v 0.482963 0.500000 -0.129410
vn 0.931784 0.316198 -0.178317
v 0.492404 0.500000 -0.086824
vn 0.943780 0.316198 -0.096429
v 0.498097 0.500000 -0.043578
# 146 vertices, 0 vertices normals

f 1//1 3//3 4//4
f 1//1 4//4 5//5
f 1//1 5//5 6//6
f 1//1 6//6 7//7
f 1//1 7//7 8//8
f 1//1 8//8 9//9
f 1//1 9//9 10//10
f 1//1 10//10 11//11
f 1//1 11//11 12//12
f 1//1 12//12 13//13
f 1//1 13//13 14//14
f 1//1 14//14 15//15
f 1//1 15//15 16//16
f 1//1 16//16 17//17
f 1//1 17//17 18//18
f 1//1 18//18 19//19
f 1//1 19//19 20//20
f 1//1 20//20 21//21
f 1//1 21//21 22//22
f 1//1 22//22 23//23
f 1//1 23//23 24//24
f 1//1 24//24 25//25
f 1//1 25//25 26//26
f 1//1 26//26 27//27
f 1//1 27//27 28//28
f 1//1 28//28 29//29
f 1//1 29//29 30//30
f 1//1 30//30 31//31
f 1//1 31//31 32//32
f 1//1 32//32 33//33
f 1//1 33//33 34//34
f 1//1 34//34 35//35
f 1//1 35//35 36//36
f 1//1 36//36 37//37
f 1//1 37//37 38//38
f 1//1 38//38 39//39
f 1//1 39//39 40//40
f 1//1 40//40 41//41
f 1//1 41//41 42//42
f 1//1 42//42 43//43
f 1//1 43//43 44//44
f 1//1 44//44 45//45
f 1//1 45//45 46//46
f 1//1 46//46 47//47
f 1//1 47//47 48//48
f 1//1 48//48 49//49
f 1//1 49//49 50//50
f 1//1 50//50 51//51
f 1//1 51//51 52//52
f 1//1 52//52 53//53
f 1//1 53//53 54//54
f 1//1 54//54 55//55
f 1//1 55//55 56//56
f 1//1 56//56 57//57
f 1//1 57//57 58//58
f 1//1 58//58 59//59
f 1//1 59//59 60//60
f 1//1 60//60 61//61
f 1//1 61//61 62//62
f 1//1 62//62 63//63
f 1//1 63//63 64//64
f 1//1 64//64 65//65
f 1//1 65//65 66//66
f 1//1 66//66 67//67
f 1//1 67//67 68//68
f 1//1 68//68 69//69
f 1//1 69//69 70//70
f 1//1 70//70 71//71
f 1//1 71//71 72//72
f 1//1 72//72 73//73
f 1//1 73//73 74//74
f 1//1 74//74 3//3
f 2//2 76//76 75//75
f 2//2 77//77 76//76
f 2//2 78//78 77//77
f 2//2 79//79 78//78
f 2//2 80//80 79//79
f 2//2 81//81 80//80
f 2//2 82//82 81//81
f 2//2 83//83 82//82
f 2//2 84//84 83//83
f 2//2 85//85 84//84
f 2//2 86//86 85//85
f 2//2 87//87 86//86
f 2//2 88//88 87//87
f 2//2 89//89 88//88
f 2//2 90//90 89//89
f 2//2 91//91 90//90
f 2//2 92//92 91//91
f 2//2 93//93 92//92
f 2//2 94//94 93//93
f 2//2 95//95 94//94
f 2//2 96//96 95//95
f 2//2 97//97 96//96
f 2//2 98//98 97//97
f 2//2 99//99 98//98
f 2//2 100//100 99//99
f 2//2 101//101 100//100
f 2//2 102//102 101//101
f 2//2 103//103 102//102
f 2//2 104//104 103//103
f 2//2 105//105 104//104
f 2//2 106//106 105//105
f 2//2 107//107 106//106
f 2//2 108//108 107//107
f 2//2 109//109 108//108
f 2//2 110//110 109//109
f 2//2 111//111 110//110
f 2//2 112//112 111//111
f 2//2 113//113 112//112
f 2//2 114//114 113//113
f 2//2 115//115 114//114
f 2//2 116//116 115//115
f 2//2 117//117 116//116
f 2//2 118//118 117//117
f 2//2 119//119 118//118
f 2//2 120//120 119//119
f 2//2 121//121 120//120
f 2//2 122//122 121//121
f 2//2 123//123 122//122
f 2//2 124//124 123//123
f 2//2 125//125 124//124
f 2//2 126//126 125//125
f 2//2 127//127 126//126
f 2//2 128//128 127//127
f 2//2 129//129 128//128
f 2//2 130//130 129//129
f 2//2 131//131 130//130
f 2//2 132//132 131//131
f 2//2 133//133 132//132
f 2//2 134//134 133//133
f 2//2 135//135 134//134
f 2//2 136//136 135//135
f 2//2 137//137 136//136
f 2//2 138//138 137//137
f 2//2 139//139 138//138
f 2//2 140//140 139//139
f 2//2 141//141 140//140
f 2//2 142//142 141//141
f 2//2 143//143 142//142
f 2//2 144//144 143//143
f 2//2 145//145 144//144
f 2//2 146//146 145//145
f 2//2 75//75 146//146
f 3//3 75//75 76//76
f 3//3 76//76 4//4
f 4//4 76//76 77//77
f 4//4 77//77 5//5
f 5//5 77//77 78//78
f 5//5 78//78 6//6
f 6//6 78//78 79//79
f 6//6 79//79 7//7
f 7//7 79//79 80//80
f 7//7 80//80 8//8
f 8//8 80//80 81//81
f 8//8 81//81 9//9
f 9//9 81//81 82//82
f 9//9 82//82 10//10
f 10//10 82//82 83//83
f 10//10 83//83 11//11
f 11//11 83//83 84//84
f 11//11 84//84 12//12
f 12//12 84//84 85//85
f 12//12 85//85 13//13
f 13//13 85//85 86//86
f 13//13 86//86 14//14
f 14//14 86//86 87//87
f 14//14 87//87 15//15
f 15//15 87//87 88//88
f 15//15 88//88 16//16
f 16//16 88//88 89//89
f 16//16 89//89 17//17
f 17//17 89//89 90//90
f 17//17 90//90 18//18
f 18//18 90//90 91//91
f 18//18 91//91 19//19
f 19//19 91//91 92//92
f 19//19 92//92 20//20
f 20//20 92//92 93//93
f 20//20 93//93 21//21
f 21//21 93//93 94//94
f 21//21 94//94 22//22
f 22//22 94//94 95//95
f 22//22 95//95 23//23
f 23//23 95//95 96//96
f 23//23 96//96 24//24
f 24//24 96//96 97//97
f 24//24 97//97 25//25
f 25//25 97//97 98//98
f 25//25 98//98 26//26
f 26//26 98//98 99//99
f 26//26 99//99 27//27
f 27//27 99//99 100//100
f 27//27 100//100 28//28
f 28//28 100//100 101//101
f 28//28 101//101 29//29
f 29//29 101//101 102//102
f 29//29 102//102 30//30
f 30//30 102//102 103//103
f 30//30 103//103 31//31
f 31//31 103//103 104//104
f 31//31 104//104 32//32
f 32//32 104//104 105//105
f 32//32 105//105 33//33
f 33//33 105//105 106//106
f 33//33 106//106 34//34
f 34//34 106//106 107//107
f 34//34 107//107 35//35
f 35//35 107//107 108//108
f 35//35 108//108 36//36
f 36//36 108//108 109//109
f 36//36 109//109 37//37
f 37//37 109//109 110//110
f 37//37 110//110 38//38
f 38//38 110//110 111//111
f 38//38 111//111 39//39
f 39//39 111//111 112//112
f 39//39 112//112 40//40
f 40//40 112//112 113//113
f 40//40 113//113 41//41
f 41//41 113//113 114//114
f 41//41 114//114 42//42
f 42//42 114//114 115//115
f 42//42 115//115 43//43
f 43//43 115//115 116//116
f 43//43 116//116 44//44
f 44//44 116//116 117//117
f 44//44 117//117 45//45
f 45//45 117//117 118//118
f 45//45 118//118 46//46
f 46//46 118//118 119//119
f 46//46 119//119 47//47
f 47//47 119//119 120//120
f 47//47 120//120 48//48
f 48//48 120//120 121//121
f 48//48 121//121 49//49
f 49//49 121//121 122//122
f 49//49 122//122 50//50
f 50//50 122//122 123//123
f 50//50 123//123 51//51
f 51//51 123//123 124//124
f 51//51 124//124 52//52
f 52//52 124//124 125//125
f 52//52 125//125 53//53
f 53//53 125//125 126//126
f 53//53 126//126 54//54
f 54//54 126//126 127//127
f 54//54 127//127 55//55
f 55//55 127//127 128//128
f 55//55 128//128 56//56
f 56//56 128//128 129//129
f 56//56 129//129 57//57
f 57//57 129//129 130//130
f 57//57 130//130 58//58
f 58//58 130//130 131//131
f 58//58 131//131 59//59
f 59//59 131//131 132//132
f 59//59 132//132 60//60
f 60//60 132//132 133//133
f 60//60 133//133 61//61
f 61//61 133//133 134//134
f 61//61 134//134 62//62
f 62//62 134//134 135//135
f 62//62 135//135 63//63
f 63//63 135//135 136//136
f 63//63 136//136 64//64
f 64//64 136//136 137//137
f 64//64 137//137 65//65
f 65//65 137//137 138//138
f 65//65 138//138 66//66
f 66//66 138//138 139//139
f 66//66 139//139 67//67
f 67//67 139//139 140//140
f 67//67 140//140 68//68
f 68//68 140//140 141//141
f 68//68 141//141 69//69
f 69//69 141//141 142//142
f 69//69 142//142 70//70
f 70//70 142//142 143//143
f 70//70 143//143 71//71
f 71//71 143//143 144//144
f 71//71 144//144 72//72
f 72//72 144//144 145//145
f 72//72 145//145 73//73
f 73//73 145//145 146//146
f 73//73 146//146 74//74
f 74//74 146//146 75//75
f 74//74 75//75 3//3
# 288 faces, 0 coords texture

# End of File
